G04 #@! TF.GenerationSoftware,KiCad,Pcbnew,(5.1.8)-1*
G04 #@! TF.CreationDate,2021-08-02T19:11:59-06:00*
G04 #@! TF.ProjectId,RCtoUSB,5243746f-5553-4422-9e6b-696361645f70,rev?*
G04 #@! TF.SameCoordinates,Original*
G04 #@! TF.FileFunction,Soldermask,Top*
G04 #@! TF.FilePolarity,Negative*
%FSLAX46Y46*%
G04 Gerber Fmt 4.6, Leading zero omitted, Abs format (unit mm)*
G04 Created by KiCad (PCBNEW (5.1.8)-1) date 2021-08-02 19:11:59*
%MOMM*%
%LPD*%
G01*
G04 APERTURE LIST*
%ADD10C,1.640000*%
%ADD11O,1.800000X1.800000*%
%ADD12O,1.130000X1.830000*%
%ADD13C,1.000000*%
G04 APERTURE END LIST*
G36*
G01*
X99125000Y-120050000D02*
X99125000Y-119450000D01*
G75*
G02*
X99350000Y-119225000I225000J0D01*
G01*
X99800000Y-119225000D01*
G75*
G02*
X100025000Y-119450000I0J-225000D01*
G01*
X100025000Y-120050000D01*
G75*
G02*
X99800000Y-120275000I-225000J0D01*
G01*
X99350000Y-120275000D01*
G75*
G02*
X99125000Y-120050000I0J225000D01*
G01*
G37*
G36*
G01*
X97475000Y-120050000D02*
X97475000Y-119450000D01*
G75*
G02*
X97700000Y-119225000I225000J0D01*
G01*
X98150000Y-119225000D01*
G75*
G02*
X98375000Y-119450000I0J-225000D01*
G01*
X98375000Y-120050000D01*
G75*
G02*
X98150000Y-120275000I-225000J0D01*
G01*
X97700000Y-120275000D01*
G75*
G02*
X97475000Y-120050000I0J225000D01*
G01*
G37*
G36*
G01*
X96875000Y-108200000D02*
X96875000Y-108800000D01*
G75*
G02*
X96650000Y-109025000I-225000J0D01*
G01*
X96200000Y-109025000D01*
G75*
G02*
X95975000Y-108800000I0J225000D01*
G01*
X95975000Y-108200000D01*
G75*
G02*
X96200000Y-107975000I225000J0D01*
G01*
X96650000Y-107975000D01*
G75*
G02*
X96875000Y-108200000I0J-225000D01*
G01*
G37*
G36*
G01*
X98525000Y-108200000D02*
X98525000Y-108800000D01*
G75*
G02*
X98300000Y-109025000I-225000J0D01*
G01*
X97850000Y-109025000D01*
G75*
G02*
X97625000Y-108800000I0J225000D01*
G01*
X97625000Y-108200000D01*
G75*
G02*
X97850000Y-107975000I225000J0D01*
G01*
X98300000Y-107975000D01*
G75*
G02*
X98525000Y-108200000I0J-225000D01*
G01*
G37*
G36*
G01*
X95450000Y-112875000D02*
X96050000Y-112875000D01*
G75*
G02*
X96275000Y-113100000I0J-225000D01*
G01*
X96275000Y-113550000D01*
G75*
G02*
X96050000Y-113775000I-225000J0D01*
G01*
X95450000Y-113775000D01*
G75*
G02*
X95225000Y-113550000I0J225000D01*
G01*
X95225000Y-113100000D01*
G75*
G02*
X95450000Y-112875000I225000J0D01*
G01*
G37*
G36*
G01*
X95450000Y-111225000D02*
X96050000Y-111225000D01*
G75*
G02*
X96275000Y-111450000I0J-225000D01*
G01*
X96275000Y-111900000D01*
G75*
G02*
X96050000Y-112125000I-225000J0D01*
G01*
X95450000Y-112125000D01*
G75*
G02*
X95225000Y-111900000I0J225000D01*
G01*
X95225000Y-111450000D01*
G75*
G02*
X95450000Y-111225000I225000J0D01*
G01*
G37*
G36*
G01*
X112625000Y-123050000D02*
X112625000Y-122450000D01*
G75*
G02*
X112850000Y-122225000I225000J0D01*
G01*
X113300000Y-122225000D01*
G75*
G02*
X113525000Y-122450000I0J-225000D01*
G01*
X113525000Y-123050000D01*
G75*
G02*
X113300000Y-123275000I-225000J0D01*
G01*
X112850000Y-123275000D01*
G75*
G02*
X112625000Y-123050000I0J225000D01*
G01*
G37*
G36*
G01*
X110975000Y-123050000D02*
X110975000Y-122450000D01*
G75*
G02*
X111200000Y-122225000I225000J0D01*
G01*
X111650000Y-122225000D01*
G75*
G02*
X111875000Y-122450000I0J-225000D01*
G01*
X111875000Y-123050000D01*
G75*
G02*
X111650000Y-123275000I-225000J0D01*
G01*
X111200000Y-123275000D01*
G75*
G02*
X110975000Y-123050000I0J225000D01*
G01*
G37*
G36*
G01*
X112625000Y-126050000D02*
X112625000Y-125450000D01*
G75*
G02*
X112850000Y-125225000I225000J0D01*
G01*
X113300000Y-125225000D01*
G75*
G02*
X113525000Y-125450000I0J-225000D01*
G01*
X113525000Y-126050000D01*
G75*
G02*
X113300000Y-126275000I-225000J0D01*
G01*
X112850000Y-126275000D01*
G75*
G02*
X112625000Y-126050000I0J225000D01*
G01*
G37*
G36*
G01*
X110975000Y-126050000D02*
X110975000Y-125450000D01*
G75*
G02*
X111200000Y-125225000I225000J0D01*
G01*
X111650000Y-125225000D01*
G75*
G02*
X111875000Y-125450000I0J-225000D01*
G01*
X111875000Y-126050000D01*
G75*
G02*
X111650000Y-126275000I-225000J0D01*
G01*
X111200000Y-126275000D01*
G75*
G02*
X110975000Y-126050000I0J225000D01*
G01*
G37*
G36*
G01*
X116700000Y-122468750D02*
X116700000Y-123031250D01*
G75*
G02*
X116456250Y-123275000I-243750J0D01*
G01*
X115968750Y-123275000D01*
G75*
G02*
X115725000Y-123031250I0J243750D01*
G01*
X115725000Y-122468750D01*
G75*
G02*
X115968750Y-122225000I243750J0D01*
G01*
X116456250Y-122225000D01*
G75*
G02*
X116700000Y-122468750I0J-243750D01*
G01*
G37*
G36*
G01*
X118275000Y-122468750D02*
X118275000Y-123031250D01*
G75*
G02*
X118031250Y-123275000I-243750J0D01*
G01*
X117543750Y-123275000D01*
G75*
G02*
X117300000Y-123031250I0J243750D01*
G01*
X117300000Y-122468750D01*
G75*
G02*
X117543750Y-122225000I243750J0D01*
G01*
X118031250Y-122225000D01*
G75*
G02*
X118275000Y-122468750I0J-243750D01*
G01*
G37*
G36*
G01*
X116700000Y-125468750D02*
X116700000Y-126031250D01*
G75*
G02*
X116456250Y-126275000I-243750J0D01*
G01*
X115968750Y-126275000D01*
G75*
G02*
X115725000Y-126031250I0J243750D01*
G01*
X115725000Y-125468750D01*
G75*
G02*
X115968750Y-125225000I243750J0D01*
G01*
X116456250Y-125225000D01*
G75*
G02*
X116700000Y-125468750I0J-243750D01*
G01*
G37*
G36*
G01*
X118275000Y-125468750D02*
X118275000Y-126031250D01*
G75*
G02*
X118031250Y-126275000I-243750J0D01*
G01*
X117543750Y-126275000D01*
G75*
G02*
X117300000Y-126031250I0J243750D01*
G01*
X117300000Y-125468750D01*
G75*
G02*
X117543750Y-125225000I243750J0D01*
G01*
X118031250Y-125225000D01*
G75*
G02*
X118275000Y-125468750I0J-243750D01*
G01*
G37*
G36*
G01*
X106275000Y-114025000D02*
X106275000Y-113475000D01*
G75*
G02*
X106525000Y-113225000I250000J0D01*
G01*
X107025000Y-113225000D01*
G75*
G02*
X107275000Y-113475000I0J-250000D01*
G01*
X107275000Y-114025000D01*
G75*
G02*
X107025000Y-114275000I-250000J0D01*
G01*
X106525000Y-114275000D01*
G75*
G02*
X106275000Y-114025000I0J250000D01*
G01*
G37*
G36*
G01*
X104725000Y-114025000D02*
X104725000Y-113475000D01*
G75*
G02*
X104975000Y-113225000I250000J0D01*
G01*
X105475000Y-113225000D01*
G75*
G02*
X105725000Y-113475000I0J-250000D01*
G01*
X105725000Y-114025000D01*
G75*
G02*
X105475000Y-114275000I-250000J0D01*
G01*
X104975000Y-114275000D01*
G75*
G02*
X104725000Y-114025000I0J250000D01*
G01*
G37*
G36*
G01*
X117525000Y-119525000D02*
X117525000Y-118975000D01*
G75*
G02*
X117775000Y-118725000I250000J0D01*
G01*
X118275000Y-118725000D01*
G75*
G02*
X118525000Y-118975000I0J-250000D01*
G01*
X118525000Y-119525000D01*
G75*
G02*
X118275000Y-119775000I-250000J0D01*
G01*
X117775000Y-119775000D01*
G75*
G02*
X117525000Y-119525000I0J250000D01*
G01*
G37*
G36*
G01*
X115975000Y-119525000D02*
X115975000Y-118975000D01*
G75*
G02*
X116225000Y-118725000I250000J0D01*
G01*
X116725000Y-118725000D01*
G75*
G02*
X116975000Y-118975000I0J-250000D01*
G01*
X116975000Y-119525000D01*
G75*
G02*
X116725000Y-119775000I-250000J0D01*
G01*
X116225000Y-119775000D01*
G75*
G02*
X115975000Y-119525000I0J250000D01*
G01*
G37*
G36*
G01*
X105525000Y-124025000D02*
X105525000Y-123475000D01*
G75*
G02*
X105775000Y-123225000I250000J0D01*
G01*
X106275000Y-123225000D01*
G75*
G02*
X106525000Y-123475000I0J-250000D01*
G01*
X106525000Y-124025000D01*
G75*
G02*
X106275000Y-124275000I-250000J0D01*
G01*
X105775000Y-124275000D01*
G75*
G02*
X105525000Y-124025000I0J250000D01*
G01*
G37*
G36*
G01*
X103975000Y-124025000D02*
X103975000Y-123475000D01*
G75*
G02*
X104225000Y-123225000I250000J0D01*
G01*
X104725000Y-123225000D01*
G75*
G02*
X104975000Y-123475000I0J-250000D01*
G01*
X104975000Y-124025000D01*
G75*
G02*
X104725000Y-124275000I-250000J0D01*
G01*
X104225000Y-124275000D01*
G75*
G02*
X103975000Y-124025000I0J250000D01*
G01*
G37*
G36*
G01*
X113025000Y-115725000D02*
X112475000Y-115725000D01*
G75*
G02*
X112225000Y-115475000I0J250000D01*
G01*
X112225000Y-114975000D01*
G75*
G02*
X112475000Y-114725000I250000J0D01*
G01*
X113025000Y-114725000D01*
G75*
G02*
X113275000Y-114975000I0J-250000D01*
G01*
X113275000Y-115475000D01*
G75*
G02*
X113025000Y-115725000I-250000J0D01*
G01*
G37*
G36*
G01*
X113025000Y-117275000D02*
X112475000Y-117275000D01*
G75*
G02*
X112225000Y-117025000I0J250000D01*
G01*
X112225000Y-116525000D01*
G75*
G02*
X112475000Y-116275000I250000J0D01*
G01*
X113025000Y-116275000D01*
G75*
G02*
X113275000Y-116525000I0J-250000D01*
G01*
X113275000Y-117025000D01*
G75*
G02*
X113025000Y-117275000I-250000J0D01*
G01*
G37*
G36*
G01*
X107345500Y-121145500D02*
X103154500Y-121145500D01*
G75*
G02*
X103104500Y-121095500I0J50000D01*
G01*
X103104500Y-116904500D01*
G75*
G02*
X103154500Y-116854500I50000J0D01*
G01*
X107345500Y-116854500D01*
G75*
G02*
X107395500Y-116904500I0J-50000D01*
G01*
X107395500Y-121095500D01*
G75*
G02*
X107345500Y-121145500I-50000J0D01*
G01*
G37*
G36*
G01*
X102964000Y-121152399D02*
X101948000Y-121152399D01*
G75*
G02*
X101898000Y-121102399I0J50000D01*
G01*
X101898000Y-120797599D01*
G75*
G02*
X101948000Y-120747599I50000J0D01*
G01*
X102964000Y-120747599D01*
G75*
G02*
X103014000Y-120797599I0J-50000D01*
G01*
X103014000Y-121102399D01*
G75*
G02*
X102964000Y-121152399I-50000J0D01*
G01*
G37*
G36*
G01*
X102964000Y-120502400D02*
X101948000Y-120502400D01*
G75*
G02*
X101898000Y-120452400I0J50000D01*
G01*
X101898000Y-120147600D01*
G75*
G02*
X101948000Y-120097600I50000J0D01*
G01*
X102964000Y-120097600D01*
G75*
G02*
X103014000Y-120147600I0J-50000D01*
G01*
X103014000Y-120452400D01*
G75*
G02*
X102964000Y-120502400I-50000J0D01*
G01*
G37*
G36*
G01*
X102964000Y-119852399D02*
X101948000Y-119852399D01*
G75*
G02*
X101898000Y-119802399I0J50000D01*
G01*
X101898000Y-119497599D01*
G75*
G02*
X101948000Y-119447599I50000J0D01*
G01*
X102964000Y-119447599D01*
G75*
G02*
X103014000Y-119497599I0J-50000D01*
G01*
X103014000Y-119802399D01*
G75*
G02*
X102964000Y-119852399I-50000J0D01*
G01*
G37*
G36*
G01*
X102964000Y-119202400D02*
X101948000Y-119202400D01*
G75*
G02*
X101898000Y-119152400I0J50000D01*
G01*
X101898000Y-118847600D01*
G75*
G02*
X101948000Y-118797600I50000J0D01*
G01*
X102964000Y-118797600D01*
G75*
G02*
X103014000Y-118847600I0J-50000D01*
G01*
X103014000Y-119152400D01*
G75*
G02*
X102964000Y-119202400I-50000J0D01*
G01*
G37*
G36*
G01*
X102964000Y-118552399D02*
X101948000Y-118552399D01*
G75*
G02*
X101898000Y-118502399I0J50000D01*
G01*
X101898000Y-118197599D01*
G75*
G02*
X101948000Y-118147599I50000J0D01*
G01*
X102964000Y-118147599D01*
G75*
G02*
X103014000Y-118197599I0J-50000D01*
G01*
X103014000Y-118502399D01*
G75*
G02*
X102964000Y-118552399I-50000J0D01*
G01*
G37*
G36*
G01*
X102964000Y-117902400D02*
X101948000Y-117902400D01*
G75*
G02*
X101898000Y-117852400I0J50000D01*
G01*
X101898000Y-117547600D01*
G75*
G02*
X101948000Y-117497600I50000J0D01*
G01*
X102964000Y-117497600D01*
G75*
G02*
X103014000Y-117547600I0J-50000D01*
G01*
X103014000Y-117852400D01*
G75*
G02*
X102964000Y-117902400I-50000J0D01*
G01*
G37*
G36*
G01*
X102964000Y-117252399D02*
X101948000Y-117252399D01*
G75*
G02*
X101898000Y-117202399I0J50000D01*
G01*
X101898000Y-116897599D01*
G75*
G02*
X101948000Y-116847599I50000J0D01*
G01*
X102964000Y-116847599D01*
G75*
G02*
X103014000Y-116897599I0J-50000D01*
G01*
X103014000Y-117202399D01*
G75*
G02*
X102964000Y-117252399I-50000J0D01*
G01*
G37*
G36*
G01*
X103502401Y-115698000D02*
X103502401Y-116714000D01*
G75*
G02*
X103452401Y-116764000I-50000J0D01*
G01*
X103147601Y-116764000D01*
G75*
G02*
X103097601Y-116714000I0J50000D01*
G01*
X103097601Y-115698000D01*
G75*
G02*
X103147601Y-115648000I50000J0D01*
G01*
X103452401Y-115648000D01*
G75*
G02*
X103502401Y-115698000I0J-50000D01*
G01*
G37*
G36*
G01*
X104152400Y-115698000D02*
X104152400Y-116714000D01*
G75*
G02*
X104102400Y-116764000I-50000J0D01*
G01*
X103797600Y-116764000D01*
G75*
G02*
X103747600Y-116714000I0J50000D01*
G01*
X103747600Y-115698000D01*
G75*
G02*
X103797600Y-115648000I50000J0D01*
G01*
X104102400Y-115648000D01*
G75*
G02*
X104152400Y-115698000I0J-50000D01*
G01*
G37*
G36*
G01*
X104802401Y-115698000D02*
X104802401Y-116714000D01*
G75*
G02*
X104752401Y-116764000I-50000J0D01*
G01*
X104447601Y-116764000D01*
G75*
G02*
X104397601Y-116714000I0J50000D01*
G01*
X104397601Y-115698000D01*
G75*
G02*
X104447601Y-115648000I50000J0D01*
G01*
X104752401Y-115648000D01*
G75*
G02*
X104802401Y-115698000I0J-50000D01*
G01*
G37*
G36*
G01*
X105452400Y-115698000D02*
X105452400Y-116714000D01*
G75*
G02*
X105402400Y-116764000I-50000J0D01*
G01*
X105097600Y-116764000D01*
G75*
G02*
X105047600Y-116714000I0J50000D01*
G01*
X105047600Y-115698000D01*
G75*
G02*
X105097600Y-115648000I50000J0D01*
G01*
X105402400Y-115648000D01*
G75*
G02*
X105452400Y-115698000I0J-50000D01*
G01*
G37*
G36*
G01*
X106102401Y-115698000D02*
X106102401Y-116714000D01*
G75*
G02*
X106052401Y-116764000I-50000J0D01*
G01*
X105747601Y-116764000D01*
G75*
G02*
X105697601Y-116714000I0J50000D01*
G01*
X105697601Y-115698000D01*
G75*
G02*
X105747601Y-115648000I50000J0D01*
G01*
X106052401Y-115648000D01*
G75*
G02*
X106102401Y-115698000I0J-50000D01*
G01*
G37*
G36*
G01*
X106752400Y-115698000D02*
X106752400Y-116714000D01*
G75*
G02*
X106702400Y-116764000I-50000J0D01*
G01*
X106397600Y-116764000D01*
G75*
G02*
X106347600Y-116714000I0J50000D01*
G01*
X106347600Y-115698000D01*
G75*
G02*
X106397600Y-115648000I50000J0D01*
G01*
X106702400Y-115648000D01*
G75*
G02*
X106752400Y-115698000I0J-50000D01*
G01*
G37*
G36*
G01*
X107402401Y-115698000D02*
X107402401Y-116714000D01*
G75*
G02*
X107352401Y-116764000I-50000J0D01*
G01*
X107047601Y-116764000D01*
G75*
G02*
X106997601Y-116714000I0J50000D01*
G01*
X106997601Y-115698000D01*
G75*
G02*
X107047601Y-115648000I50000J0D01*
G01*
X107352401Y-115648000D01*
G75*
G02*
X107402401Y-115698000I0J-50000D01*
G01*
G37*
G36*
G01*
X108552000Y-117252401D02*
X107536000Y-117252401D01*
G75*
G02*
X107486000Y-117202401I0J50000D01*
G01*
X107486000Y-116897601D01*
G75*
G02*
X107536000Y-116847601I50000J0D01*
G01*
X108552000Y-116847601D01*
G75*
G02*
X108602000Y-116897601I0J-50000D01*
G01*
X108602000Y-117202401D01*
G75*
G02*
X108552000Y-117252401I-50000J0D01*
G01*
G37*
G36*
G01*
X108552000Y-117902400D02*
X107536000Y-117902400D01*
G75*
G02*
X107486000Y-117852400I0J50000D01*
G01*
X107486000Y-117547600D01*
G75*
G02*
X107536000Y-117497600I50000J0D01*
G01*
X108552000Y-117497600D01*
G75*
G02*
X108602000Y-117547600I0J-50000D01*
G01*
X108602000Y-117852400D01*
G75*
G02*
X108552000Y-117902400I-50000J0D01*
G01*
G37*
G36*
G01*
X108552000Y-118552401D02*
X107536000Y-118552401D01*
G75*
G02*
X107486000Y-118502401I0J50000D01*
G01*
X107486000Y-118197601D01*
G75*
G02*
X107536000Y-118147601I50000J0D01*
G01*
X108552000Y-118147601D01*
G75*
G02*
X108602000Y-118197601I0J-50000D01*
G01*
X108602000Y-118502401D01*
G75*
G02*
X108552000Y-118552401I-50000J0D01*
G01*
G37*
G36*
G01*
X108552000Y-119202400D02*
X107536000Y-119202400D01*
G75*
G02*
X107486000Y-119152400I0J50000D01*
G01*
X107486000Y-118847600D01*
G75*
G02*
X107536000Y-118797600I50000J0D01*
G01*
X108552000Y-118797600D01*
G75*
G02*
X108602000Y-118847600I0J-50000D01*
G01*
X108602000Y-119152400D01*
G75*
G02*
X108552000Y-119202400I-50000J0D01*
G01*
G37*
G36*
G01*
X108552000Y-119852401D02*
X107536000Y-119852401D01*
G75*
G02*
X107486000Y-119802401I0J50000D01*
G01*
X107486000Y-119497601D01*
G75*
G02*
X107536000Y-119447601I50000J0D01*
G01*
X108552000Y-119447601D01*
G75*
G02*
X108602000Y-119497601I0J-50000D01*
G01*
X108602000Y-119802401D01*
G75*
G02*
X108552000Y-119852401I-50000J0D01*
G01*
G37*
G36*
G01*
X108552000Y-120502400D02*
X107536000Y-120502400D01*
G75*
G02*
X107486000Y-120452400I0J50000D01*
G01*
X107486000Y-120147600D01*
G75*
G02*
X107536000Y-120097600I50000J0D01*
G01*
X108552000Y-120097600D01*
G75*
G02*
X108602000Y-120147600I0J-50000D01*
G01*
X108602000Y-120452400D01*
G75*
G02*
X108552000Y-120502400I-50000J0D01*
G01*
G37*
G36*
G01*
X108552000Y-121152401D02*
X107536000Y-121152401D01*
G75*
G02*
X107486000Y-121102401I0J50000D01*
G01*
X107486000Y-120797601D01*
G75*
G02*
X107536000Y-120747601I50000J0D01*
G01*
X108552000Y-120747601D01*
G75*
G02*
X108602000Y-120797601I0J-50000D01*
G01*
X108602000Y-121102401D01*
G75*
G02*
X108552000Y-121152401I-50000J0D01*
G01*
G37*
G36*
G01*
X107402399Y-121286000D02*
X107402399Y-122302000D01*
G75*
G02*
X107352399Y-122352000I-50000J0D01*
G01*
X107047599Y-122352000D01*
G75*
G02*
X106997599Y-122302000I0J50000D01*
G01*
X106997599Y-121286000D01*
G75*
G02*
X107047599Y-121236000I50000J0D01*
G01*
X107352399Y-121236000D01*
G75*
G02*
X107402399Y-121286000I0J-50000D01*
G01*
G37*
G36*
G01*
X106752400Y-121286000D02*
X106752400Y-122302000D01*
G75*
G02*
X106702400Y-122352000I-50000J0D01*
G01*
X106397600Y-122352000D01*
G75*
G02*
X106347600Y-122302000I0J50000D01*
G01*
X106347600Y-121286000D01*
G75*
G02*
X106397600Y-121236000I50000J0D01*
G01*
X106702400Y-121236000D01*
G75*
G02*
X106752400Y-121286000I0J-50000D01*
G01*
G37*
G36*
G01*
X106102399Y-121286000D02*
X106102399Y-122302000D01*
G75*
G02*
X106052399Y-122352000I-50000J0D01*
G01*
X105747599Y-122352000D01*
G75*
G02*
X105697599Y-122302000I0J50000D01*
G01*
X105697599Y-121286000D01*
G75*
G02*
X105747599Y-121236000I50000J0D01*
G01*
X106052399Y-121236000D01*
G75*
G02*
X106102399Y-121286000I0J-50000D01*
G01*
G37*
G36*
G01*
X105452400Y-121286000D02*
X105452400Y-122302000D01*
G75*
G02*
X105402400Y-122352000I-50000J0D01*
G01*
X105097600Y-122352000D01*
G75*
G02*
X105047600Y-122302000I0J50000D01*
G01*
X105047600Y-121286000D01*
G75*
G02*
X105097600Y-121236000I50000J0D01*
G01*
X105402400Y-121236000D01*
G75*
G02*
X105452400Y-121286000I0J-50000D01*
G01*
G37*
G36*
G01*
X104802401Y-121286000D02*
X104802401Y-122302000D01*
G75*
G02*
X104752401Y-122352000I-50000J0D01*
G01*
X104447601Y-122352000D01*
G75*
G02*
X104397601Y-122302000I0J50000D01*
G01*
X104397601Y-121286000D01*
G75*
G02*
X104447601Y-121236000I50000J0D01*
G01*
X104752401Y-121236000D01*
G75*
G02*
X104802401Y-121286000I0J-50000D01*
G01*
G37*
G36*
G01*
X104152400Y-121286000D02*
X104152400Y-122302000D01*
G75*
G02*
X104102400Y-122352000I-50000J0D01*
G01*
X103797600Y-122352000D01*
G75*
G02*
X103747600Y-122302000I0J50000D01*
G01*
X103747600Y-121286000D01*
G75*
G02*
X103797600Y-121236000I50000J0D01*
G01*
X104102400Y-121236000D01*
G75*
G02*
X104152400Y-121286000I0J-50000D01*
G01*
G37*
G36*
G01*
X103502399Y-121286000D02*
X103502399Y-122302000D01*
G75*
G02*
X103452399Y-122352000I-50000J0D01*
G01*
X103147599Y-122352000D01*
G75*
G02*
X103097599Y-122302000I0J50000D01*
G01*
X103097599Y-121286000D01*
G75*
G02*
X103147599Y-121236000I50000J0D01*
G01*
X103452399Y-121236000D01*
G75*
G02*
X103502399Y-121286000I0J-50000D01*
G01*
G37*
G36*
G01*
X117850000Y-116350000D02*
X116650000Y-116350000D01*
G75*
G02*
X116600000Y-116300000I0J50000D01*
G01*
X116600000Y-115700000D01*
G75*
G02*
X116650000Y-115650000I50000J0D01*
G01*
X117850000Y-115650000D01*
G75*
G02*
X117900000Y-115700000I0J-50000D01*
G01*
X117900000Y-116300000D01*
G75*
G02*
X117850000Y-116350000I-50000J0D01*
G01*
G37*
G36*
G01*
X115350000Y-117300000D02*
X114150000Y-117300000D01*
G75*
G02*
X114100000Y-117250000I0J50000D01*
G01*
X114100000Y-116650000D01*
G75*
G02*
X114150000Y-116600000I50000J0D01*
G01*
X115350000Y-116600000D01*
G75*
G02*
X115400000Y-116650000I0J-50000D01*
G01*
X115400000Y-117250000D01*
G75*
G02*
X115350000Y-117300000I-50000J0D01*
G01*
G37*
G36*
G01*
X115350000Y-115400000D02*
X114150000Y-115400000D01*
G75*
G02*
X114100000Y-115350000I0J50000D01*
G01*
X114100000Y-114750000D01*
G75*
G02*
X114150000Y-114700000I50000J0D01*
G01*
X115350000Y-114700000D01*
G75*
G02*
X115400000Y-114750000I0J-50000D01*
G01*
X115400000Y-115350000D01*
G75*
G02*
X115350000Y-115400000I-50000J0D01*
G01*
G37*
G36*
G01*
X105480600Y-75774401D02*
X105480600Y-75215599D01*
G75*
G02*
X105530599Y-75165600I49999J0D01*
G01*
X107511801Y-75165600D01*
G75*
G02*
X107561800Y-75215599I0J-49999D01*
G01*
X107561800Y-75774401D01*
G75*
G02*
X107511801Y-75824400I-49999J0D01*
G01*
X105530599Y-75824400D01*
G75*
G02*
X105480600Y-75774401I0J49999D01*
G01*
G37*
G36*
G01*
X105480600Y-77044401D02*
X105480600Y-76485599D01*
G75*
G02*
X105530599Y-76435600I49999J0D01*
G01*
X107511801Y-76435600D01*
G75*
G02*
X107561800Y-76485599I0J-49999D01*
G01*
X107561800Y-77044401D01*
G75*
G02*
X107511801Y-77094400I-49999J0D01*
G01*
X105530599Y-77094400D01*
G75*
G02*
X105480600Y-77044401I0J49999D01*
G01*
G37*
G36*
G01*
X105480600Y-78314401D02*
X105480600Y-77755599D01*
G75*
G02*
X105530599Y-77705600I49999J0D01*
G01*
X107511801Y-77705600D01*
G75*
G02*
X107561800Y-77755599I0J-49999D01*
G01*
X107561800Y-78314401D01*
G75*
G02*
X107511801Y-78364400I-49999J0D01*
G01*
X105530599Y-78364400D01*
G75*
G02*
X105480600Y-78314401I0J49999D01*
G01*
G37*
G36*
G01*
X105480600Y-79584401D02*
X105480600Y-79025599D01*
G75*
G02*
X105530599Y-78975600I49999J0D01*
G01*
X107511801Y-78975600D01*
G75*
G02*
X107561800Y-79025599I0J-49999D01*
G01*
X107561800Y-79584401D01*
G75*
G02*
X107511801Y-79634400I-49999J0D01*
G01*
X105530599Y-79634400D01*
G75*
G02*
X105480600Y-79584401I0J49999D01*
G01*
G37*
G36*
G01*
X105480600Y-80854401D02*
X105480600Y-80295599D01*
G75*
G02*
X105530599Y-80245600I49999J0D01*
G01*
X107511801Y-80245600D01*
G75*
G02*
X107561800Y-80295599I0J-49999D01*
G01*
X107561800Y-80854401D01*
G75*
G02*
X107511801Y-80904400I-49999J0D01*
G01*
X105530599Y-80904400D01*
G75*
G02*
X105480600Y-80854401I0J49999D01*
G01*
G37*
G36*
G01*
X105480600Y-82124401D02*
X105480600Y-81565599D01*
G75*
G02*
X105530599Y-81515600I49999J0D01*
G01*
X107511801Y-81515600D01*
G75*
G02*
X107561800Y-81565599I0J-49999D01*
G01*
X107561800Y-82124401D01*
G75*
G02*
X107511801Y-82174400I-49999J0D01*
G01*
X105530599Y-82174400D01*
G75*
G02*
X105480600Y-82124401I0J49999D01*
G01*
G37*
G36*
G01*
X105480600Y-83394401D02*
X105480600Y-82835599D01*
G75*
G02*
X105530599Y-82785600I49999J0D01*
G01*
X107511801Y-82785600D01*
G75*
G02*
X107561800Y-82835599I0J-49999D01*
G01*
X107561800Y-83394401D01*
G75*
G02*
X107511801Y-83444400I-49999J0D01*
G01*
X105530599Y-83444400D01*
G75*
G02*
X105480600Y-83394401I0J49999D01*
G01*
G37*
G36*
G01*
X105480600Y-84664401D02*
X105480600Y-84105599D01*
G75*
G02*
X105530599Y-84055600I49999J0D01*
G01*
X107511801Y-84055600D01*
G75*
G02*
X107561800Y-84105599I0J-49999D01*
G01*
X107561800Y-84664401D01*
G75*
G02*
X107511801Y-84714400I-49999J0D01*
G01*
X105530599Y-84714400D01*
G75*
G02*
X105480600Y-84664401I0J49999D01*
G01*
G37*
G36*
G01*
X105480600Y-85934401D02*
X105480600Y-85375599D01*
G75*
G02*
X105530599Y-85325600I49999J0D01*
G01*
X107511801Y-85325600D01*
G75*
G02*
X107561800Y-85375599I0J-49999D01*
G01*
X107561800Y-85934401D01*
G75*
G02*
X107511801Y-85984400I-49999J0D01*
G01*
X105530599Y-85984400D01*
G75*
G02*
X105480600Y-85934401I0J49999D01*
G01*
G37*
G36*
G01*
X105480600Y-87204401D02*
X105480600Y-86645599D01*
G75*
G02*
X105530599Y-86595600I49999J0D01*
G01*
X107511801Y-86595600D01*
G75*
G02*
X107561800Y-86645599I0J-49999D01*
G01*
X107561800Y-87204401D01*
G75*
G02*
X107511801Y-87254400I-49999J0D01*
G01*
X105530599Y-87254400D01*
G75*
G02*
X105480600Y-87204401I0J49999D01*
G01*
G37*
G36*
G01*
X105480600Y-88474401D02*
X105480600Y-87915599D01*
G75*
G02*
X105530599Y-87865600I49999J0D01*
G01*
X107511801Y-87865600D01*
G75*
G02*
X107561800Y-87915599I0J-49999D01*
G01*
X107561800Y-88474401D01*
G75*
G02*
X107511801Y-88524400I-49999J0D01*
G01*
X105530599Y-88524400D01*
G75*
G02*
X105480600Y-88474401I0J49999D01*
G01*
G37*
G36*
G01*
X105480600Y-89744401D02*
X105480600Y-89185599D01*
G75*
G02*
X105530599Y-89135600I49999J0D01*
G01*
X107511801Y-89135600D01*
G75*
G02*
X107561800Y-89185599I0J-49999D01*
G01*
X107561800Y-89744401D01*
G75*
G02*
X107511801Y-89794400I-49999J0D01*
G01*
X105530599Y-89794400D01*
G75*
G02*
X105480600Y-89744401I0J49999D01*
G01*
G37*
G36*
G01*
X105480600Y-91014401D02*
X105480600Y-90455599D01*
G75*
G02*
X105530599Y-90405600I49999J0D01*
G01*
X107511801Y-90405600D01*
G75*
G02*
X107561800Y-90455599I0J-49999D01*
G01*
X107561800Y-91014401D01*
G75*
G02*
X107511801Y-91064400I-49999J0D01*
G01*
X105530599Y-91064400D01*
G75*
G02*
X105480600Y-91014401I0J49999D01*
G01*
G37*
G36*
G01*
X105480600Y-92284401D02*
X105480600Y-91725599D01*
G75*
G02*
X105530599Y-91675600I49999J0D01*
G01*
X107511801Y-91675600D01*
G75*
G02*
X107561800Y-91725599I0J-49999D01*
G01*
X107561800Y-92284401D01*
G75*
G02*
X107511801Y-92334400I-49999J0D01*
G01*
X105530599Y-92334400D01*
G75*
G02*
X105480600Y-92284401I0J49999D01*
G01*
G37*
G36*
G01*
X96438200Y-92284401D02*
X96438200Y-91725599D01*
G75*
G02*
X96488199Y-91675600I49999J0D01*
G01*
X98469401Y-91675600D01*
G75*
G02*
X98519400Y-91725599I0J-49999D01*
G01*
X98519400Y-92284401D01*
G75*
G02*
X98469401Y-92334400I-49999J0D01*
G01*
X96488199Y-92334400D01*
G75*
G02*
X96438200Y-92284401I0J49999D01*
G01*
G37*
G36*
G01*
X96438200Y-91014401D02*
X96438200Y-90455599D01*
G75*
G02*
X96488199Y-90405600I49999J0D01*
G01*
X98469401Y-90405600D01*
G75*
G02*
X98519400Y-90455599I0J-49999D01*
G01*
X98519400Y-91014401D01*
G75*
G02*
X98469401Y-91064400I-49999J0D01*
G01*
X96488199Y-91064400D01*
G75*
G02*
X96438200Y-91014401I0J49999D01*
G01*
G37*
G36*
G01*
X96438200Y-89744401D02*
X96438200Y-89185599D01*
G75*
G02*
X96488199Y-89135600I49999J0D01*
G01*
X98469401Y-89135600D01*
G75*
G02*
X98519400Y-89185599I0J-49999D01*
G01*
X98519400Y-89744401D01*
G75*
G02*
X98469401Y-89794400I-49999J0D01*
G01*
X96488199Y-89794400D01*
G75*
G02*
X96438200Y-89744401I0J49999D01*
G01*
G37*
G36*
G01*
X96438200Y-88474401D02*
X96438200Y-87915599D01*
G75*
G02*
X96488199Y-87865600I49999J0D01*
G01*
X98469401Y-87865600D01*
G75*
G02*
X98519400Y-87915599I0J-49999D01*
G01*
X98519400Y-88474401D01*
G75*
G02*
X98469401Y-88524400I-49999J0D01*
G01*
X96488199Y-88524400D01*
G75*
G02*
X96438200Y-88474401I0J49999D01*
G01*
G37*
G36*
G01*
X96438200Y-87204401D02*
X96438200Y-86645599D01*
G75*
G02*
X96488199Y-86595600I49999J0D01*
G01*
X98469401Y-86595600D01*
G75*
G02*
X98519400Y-86645599I0J-49999D01*
G01*
X98519400Y-87204401D01*
G75*
G02*
X98469401Y-87254400I-49999J0D01*
G01*
X96488199Y-87254400D01*
G75*
G02*
X96438200Y-87204401I0J49999D01*
G01*
G37*
G36*
G01*
X96438200Y-85934401D02*
X96438200Y-85375599D01*
G75*
G02*
X96488199Y-85325600I49999J0D01*
G01*
X98469401Y-85325600D01*
G75*
G02*
X98519400Y-85375599I0J-49999D01*
G01*
X98519400Y-85934401D01*
G75*
G02*
X98469401Y-85984400I-49999J0D01*
G01*
X96488199Y-85984400D01*
G75*
G02*
X96438200Y-85934401I0J49999D01*
G01*
G37*
G36*
G01*
X96438200Y-84664401D02*
X96438200Y-84105599D01*
G75*
G02*
X96488199Y-84055600I49999J0D01*
G01*
X98469401Y-84055600D01*
G75*
G02*
X98519400Y-84105599I0J-49999D01*
G01*
X98519400Y-84664401D01*
G75*
G02*
X98469401Y-84714400I-49999J0D01*
G01*
X96488199Y-84714400D01*
G75*
G02*
X96438200Y-84664401I0J49999D01*
G01*
G37*
G36*
G01*
X96438200Y-83394401D02*
X96438200Y-82835599D01*
G75*
G02*
X96488199Y-82785600I49999J0D01*
G01*
X98469401Y-82785600D01*
G75*
G02*
X98519400Y-82835599I0J-49999D01*
G01*
X98519400Y-83394401D01*
G75*
G02*
X98469401Y-83444400I-49999J0D01*
G01*
X96488199Y-83444400D01*
G75*
G02*
X96438200Y-83394401I0J49999D01*
G01*
G37*
G36*
G01*
X96438200Y-82124401D02*
X96438200Y-81565599D01*
G75*
G02*
X96488199Y-81515600I49999J0D01*
G01*
X98469401Y-81515600D01*
G75*
G02*
X98519400Y-81565599I0J-49999D01*
G01*
X98519400Y-82124401D01*
G75*
G02*
X98469401Y-82174400I-49999J0D01*
G01*
X96488199Y-82174400D01*
G75*
G02*
X96438200Y-82124401I0J49999D01*
G01*
G37*
G36*
G01*
X96438200Y-80854401D02*
X96438200Y-80295599D01*
G75*
G02*
X96488199Y-80245600I49999J0D01*
G01*
X98469401Y-80245600D01*
G75*
G02*
X98519400Y-80295599I0J-49999D01*
G01*
X98519400Y-80854401D01*
G75*
G02*
X98469401Y-80904400I-49999J0D01*
G01*
X96488199Y-80904400D01*
G75*
G02*
X96438200Y-80854401I0J49999D01*
G01*
G37*
G36*
G01*
X96438200Y-79584401D02*
X96438200Y-79025599D01*
G75*
G02*
X96488199Y-78975600I49999J0D01*
G01*
X98469401Y-78975600D01*
G75*
G02*
X98519400Y-79025599I0J-49999D01*
G01*
X98519400Y-79584401D01*
G75*
G02*
X98469401Y-79634400I-49999J0D01*
G01*
X96488199Y-79634400D01*
G75*
G02*
X96438200Y-79584401I0J49999D01*
G01*
G37*
G36*
G01*
X96438200Y-78314401D02*
X96438200Y-77755599D01*
G75*
G02*
X96488199Y-77705600I49999J0D01*
G01*
X98469401Y-77705600D01*
G75*
G02*
X98519400Y-77755599I0J-49999D01*
G01*
X98519400Y-78314401D01*
G75*
G02*
X98469401Y-78364400I-49999J0D01*
G01*
X96488199Y-78364400D01*
G75*
G02*
X96438200Y-78314401I0J49999D01*
G01*
G37*
G36*
G01*
X96438200Y-77044401D02*
X96438200Y-76485599D01*
G75*
G02*
X96488199Y-76435600I49999J0D01*
G01*
X98469401Y-76435600D01*
G75*
G02*
X98519400Y-76485599I0J-49999D01*
G01*
X98519400Y-77044401D01*
G75*
G02*
X98469401Y-77094400I-49999J0D01*
G01*
X96488199Y-77094400D01*
G75*
G02*
X96438200Y-77044401I0J49999D01*
G01*
G37*
G36*
G01*
X96438200Y-75774401D02*
X96438200Y-75215599D01*
G75*
G02*
X96488199Y-75165600I49999J0D01*
G01*
X98469401Y-75165600D01*
G75*
G02*
X98519400Y-75215599I0J-49999D01*
G01*
X98519400Y-75774401D01*
G75*
G02*
X98469401Y-75824400I-49999J0D01*
G01*
X96488199Y-75824400D01*
G75*
G02*
X96438200Y-75774401I0J49999D01*
G01*
G37*
G36*
G01*
X112850000Y-91900000D02*
X112850000Y-93100000D01*
G75*
G02*
X112800000Y-93150000I-50000J0D01*
G01*
X112200000Y-93150000D01*
G75*
G02*
X112150000Y-93100000I0J50000D01*
G01*
X112150000Y-91900000D01*
G75*
G02*
X112200000Y-91850000I50000J0D01*
G01*
X112800000Y-91850000D01*
G75*
G02*
X112850000Y-91900000I0J-50000D01*
G01*
G37*
G36*
G01*
X113800000Y-94400000D02*
X113800000Y-95600000D01*
G75*
G02*
X113750000Y-95650000I-50000J0D01*
G01*
X113150000Y-95650000D01*
G75*
G02*
X113100000Y-95600000I0J50000D01*
G01*
X113100000Y-94400000D01*
G75*
G02*
X113150000Y-94350000I50000J0D01*
G01*
X113750000Y-94350000D01*
G75*
G02*
X113800000Y-94400000I0J-50000D01*
G01*
G37*
G36*
G01*
X111900000Y-94400000D02*
X111900000Y-95600000D01*
G75*
G02*
X111850000Y-95650000I-50000J0D01*
G01*
X111250000Y-95650000D01*
G75*
G02*
X111200000Y-95600000I0J50000D01*
G01*
X111200000Y-94400000D01*
G75*
G02*
X111250000Y-94350000I50000J0D01*
G01*
X111850000Y-94350000D01*
G75*
G02*
X111900000Y-94400000I0J-50000D01*
G01*
G37*
D10*
X91250000Y-123500000D03*
X97750000Y-123500000D03*
X91250000Y-128000000D03*
X97750000Y-128000000D03*
X119750000Y-74500000D03*
X119750000Y-68000000D03*
X124250000Y-74500000D03*
X124250000Y-68000000D03*
G36*
G01*
X107725612Y-98400000D02*
X106774388Y-98400000D01*
G75*
G02*
X106500000Y-98125612I0J274388D01*
G01*
X106500000Y-97549388D01*
G75*
G02*
X106774388Y-97275000I274388J0D01*
G01*
X107725612Y-97275000D01*
G75*
G02*
X108000000Y-97549388I0J-274388D01*
G01*
X108000000Y-98125612D01*
G75*
G02*
X107725612Y-98400000I-274388J0D01*
G01*
G37*
G36*
G01*
X107725612Y-100225000D02*
X106774388Y-100225000D01*
G75*
G02*
X106500000Y-99950612I0J274388D01*
G01*
X106500000Y-99374388D01*
G75*
G02*
X106774388Y-99100000I274388J0D01*
G01*
X107725612Y-99100000D01*
G75*
G02*
X108000000Y-99374388I0J-274388D01*
G01*
X108000000Y-99950612D01*
G75*
G02*
X107725612Y-100225000I-274388J0D01*
G01*
G37*
G36*
G01*
X93350000Y-102475612D02*
X93350000Y-101524388D01*
G75*
G02*
X93624388Y-101250000I274388J0D01*
G01*
X94200612Y-101250000D01*
G75*
G02*
X94475000Y-101524388I0J-274388D01*
G01*
X94475000Y-102475612D01*
G75*
G02*
X94200612Y-102750000I-274388J0D01*
G01*
X93624388Y-102750000D01*
G75*
G02*
X93350000Y-102475612I0J274388D01*
G01*
G37*
G36*
G01*
X91525000Y-102475612D02*
X91525000Y-101524388D01*
G75*
G02*
X91799388Y-101250000I274388J0D01*
G01*
X92375612Y-101250000D01*
G75*
G02*
X92650000Y-101524388I0J-274388D01*
G01*
X92650000Y-102475612D01*
G75*
G02*
X92375612Y-102750000I-274388J0D01*
G01*
X91799388Y-102750000D01*
G75*
G02*
X91525000Y-102475612I0J274388D01*
G01*
G37*
G36*
G01*
X94650000Y-72524388D02*
X94650000Y-73475612D01*
G75*
G02*
X94375612Y-73750000I-274388J0D01*
G01*
X93799388Y-73750000D01*
G75*
G02*
X93525000Y-73475612I0J274388D01*
G01*
X93525000Y-72524388D01*
G75*
G02*
X93799388Y-72250000I274388J0D01*
G01*
X94375612Y-72250000D01*
G75*
G02*
X94650000Y-72524388I0J-274388D01*
G01*
G37*
G36*
G01*
X96475000Y-72524388D02*
X96475000Y-73475612D01*
G75*
G02*
X96200612Y-73750000I-274388J0D01*
G01*
X95624388Y-73750000D01*
G75*
G02*
X95350000Y-73475612I0J274388D01*
G01*
X95350000Y-72524388D01*
G75*
G02*
X95624388Y-72250000I274388J0D01*
G01*
X96200612Y-72250000D01*
G75*
G02*
X96475000Y-72524388I0J-274388D01*
G01*
G37*
G36*
G01*
X89150000Y-93524388D02*
X89150000Y-94475612D01*
G75*
G02*
X88875612Y-94750000I-274388J0D01*
G01*
X88299388Y-94750000D01*
G75*
G02*
X88025000Y-94475612I0J274388D01*
G01*
X88025000Y-93524388D01*
G75*
G02*
X88299388Y-93250000I274388J0D01*
G01*
X88875612Y-93250000D01*
G75*
G02*
X89150000Y-93524388I0J-274388D01*
G01*
G37*
G36*
G01*
X90975000Y-93524388D02*
X90975000Y-94475612D01*
G75*
G02*
X90700612Y-94750000I-274388J0D01*
G01*
X90124388Y-94750000D01*
G75*
G02*
X89850000Y-94475612I0J274388D01*
G01*
X89850000Y-93524388D01*
G75*
G02*
X90124388Y-93250000I274388J0D01*
G01*
X90700612Y-93250000D01*
G75*
G02*
X90975000Y-93524388I0J-274388D01*
G01*
G37*
G36*
G01*
X89150000Y-88774388D02*
X89150000Y-89725612D01*
G75*
G02*
X88875612Y-90000000I-274388J0D01*
G01*
X88299388Y-90000000D01*
G75*
G02*
X88025000Y-89725612I0J274388D01*
G01*
X88025000Y-88774388D01*
G75*
G02*
X88299388Y-88500000I274388J0D01*
G01*
X88875612Y-88500000D01*
G75*
G02*
X89150000Y-88774388I0J-274388D01*
G01*
G37*
G36*
G01*
X90975000Y-88774388D02*
X90975000Y-89725612D01*
G75*
G02*
X90700612Y-90000000I-274388J0D01*
G01*
X90124388Y-90000000D01*
G75*
G02*
X89850000Y-89725612I0J274388D01*
G01*
X89850000Y-88774388D01*
G75*
G02*
X90124388Y-88500000I274388J0D01*
G01*
X90700612Y-88500000D01*
G75*
G02*
X90975000Y-88774388I0J-274388D01*
G01*
G37*
G36*
G01*
X97980000Y-111850000D02*
X97980000Y-111250000D01*
G75*
G02*
X98050000Y-111180000I70000J0D01*
G01*
X99350000Y-111180000D01*
G75*
G02*
X99420000Y-111250000I0J-70000D01*
G01*
X99420000Y-111850000D01*
G75*
G02*
X99350000Y-111920000I-70000J0D01*
G01*
X98050000Y-111920000D01*
G75*
G02*
X97980000Y-111850000I0J70000D01*
G01*
G37*
G36*
G01*
X97980000Y-113750000D02*
X97980000Y-113150000D01*
G75*
G02*
X98050000Y-113080000I70000J0D01*
G01*
X99350000Y-113080000D01*
G75*
G02*
X99420000Y-113150000I0J-70000D01*
G01*
X99420000Y-113750000D01*
G75*
G02*
X99350000Y-113820000I-70000J0D01*
G01*
X98050000Y-113820000D01*
G75*
G02*
X97980000Y-113750000I0J70000D01*
G01*
G37*
G36*
G01*
X100080000Y-112800000D02*
X100080000Y-112200000D01*
G75*
G02*
X100150000Y-112130000I70000J0D01*
G01*
X101450000Y-112130000D01*
G75*
G02*
X101520000Y-112200000I0J-70000D01*
G01*
X101520000Y-112800000D01*
G75*
G02*
X101450000Y-112870000I-70000J0D01*
G01*
X100150000Y-112870000D01*
G75*
G02*
X100080000Y-112800000I0J70000D01*
G01*
G37*
G36*
G01*
X92350000Y-100020000D02*
X91750000Y-100020000D01*
G75*
G02*
X91680000Y-99950000I0J70000D01*
G01*
X91680000Y-98650000D01*
G75*
G02*
X91750000Y-98580000I70000J0D01*
G01*
X92350000Y-98580000D01*
G75*
G02*
X92420000Y-98650000I0J-70000D01*
G01*
X92420000Y-99950000D01*
G75*
G02*
X92350000Y-100020000I-70000J0D01*
G01*
G37*
G36*
G01*
X94250000Y-100020000D02*
X93650000Y-100020000D01*
G75*
G02*
X93580000Y-99950000I0J70000D01*
G01*
X93580000Y-98650000D01*
G75*
G02*
X93650000Y-98580000I70000J0D01*
G01*
X94250000Y-98580000D01*
G75*
G02*
X94320000Y-98650000I0J-70000D01*
G01*
X94320000Y-99950000D01*
G75*
G02*
X94250000Y-100020000I-70000J0D01*
G01*
G37*
G36*
G01*
X93300000Y-97920000D02*
X92700000Y-97920000D01*
G75*
G02*
X92630000Y-97850000I0J70000D01*
G01*
X92630000Y-96550000D01*
G75*
G02*
X92700000Y-96480000I70000J0D01*
G01*
X93300000Y-96480000D01*
G75*
G02*
X93370000Y-96550000I0J-70000D01*
G01*
X93370000Y-97850000D01*
G75*
G02*
X93300000Y-97920000I-70000J0D01*
G01*
G37*
D11*
X90750000Y-107840000D03*
X90750000Y-110380000D03*
X90750000Y-112920000D03*
X90750000Y-115460000D03*
G36*
G01*
X91650000Y-117150000D02*
X91650000Y-118850000D01*
G75*
G02*
X91600000Y-118900000I-50000J0D01*
G01*
X89900000Y-118900000D01*
G75*
G02*
X89850000Y-118850000I0J50000D01*
G01*
X89850000Y-117150000D01*
G75*
G02*
X89900000Y-117100000I50000J0D01*
G01*
X91600000Y-117100000D01*
G75*
G02*
X91650000Y-117150000I0J-50000D01*
G01*
G37*
D12*
X107000000Y-108250000D03*
X105500000Y-108250000D03*
G36*
G01*
X103435000Y-108890732D02*
X103435000Y-107609268D01*
G75*
G02*
X103709268Y-107335000I274268J0D01*
G01*
X104290732Y-107335000D01*
G75*
G02*
X104565000Y-107609268I0J-274268D01*
G01*
X104565000Y-108890732D01*
G75*
G02*
X104290732Y-109165000I-274268J0D01*
G01*
X103709268Y-109165000D01*
G75*
G02*
X103435000Y-108890732I0J274268D01*
G01*
G37*
D13*
X123500000Y-110800000D03*
X123500000Y-115200000D03*
G36*
G01*
X122150000Y-111700000D02*
X119650000Y-111700000D01*
G75*
G02*
X119600000Y-111650000I0J50000D01*
G01*
X119600000Y-111150000D01*
G75*
G02*
X119650000Y-111100000I50000J0D01*
G01*
X122150000Y-111100000D01*
G75*
G02*
X122200000Y-111150000I0J-50000D01*
G01*
X122200000Y-111650000D01*
G75*
G02*
X122150000Y-111700000I-50000J0D01*
G01*
G37*
G36*
G01*
X122150000Y-112500000D02*
X119650000Y-112500000D01*
G75*
G02*
X119600000Y-112450000I0J50000D01*
G01*
X119600000Y-111950000D01*
G75*
G02*
X119650000Y-111900000I50000J0D01*
G01*
X122150000Y-111900000D01*
G75*
G02*
X122200000Y-111950000I0J-50000D01*
G01*
X122200000Y-112450000D01*
G75*
G02*
X122150000Y-112500000I-50000J0D01*
G01*
G37*
G36*
G01*
X122150000Y-113300000D02*
X119650000Y-113300000D01*
G75*
G02*
X119600000Y-113250000I0J50000D01*
G01*
X119600000Y-112750000D01*
G75*
G02*
X119650000Y-112700000I50000J0D01*
G01*
X122150000Y-112700000D01*
G75*
G02*
X122200000Y-112750000I0J-50000D01*
G01*
X122200000Y-113250000D01*
G75*
G02*
X122150000Y-113300000I-50000J0D01*
G01*
G37*
G36*
G01*
X122150000Y-114100000D02*
X119650000Y-114100000D01*
G75*
G02*
X119600000Y-114050000I0J50000D01*
G01*
X119600000Y-113550000D01*
G75*
G02*
X119650000Y-113500000I50000J0D01*
G01*
X122150000Y-113500000D01*
G75*
G02*
X122200000Y-113550000I0J-50000D01*
G01*
X122200000Y-114050000D01*
G75*
G02*
X122150000Y-114100000I-50000J0D01*
G01*
G37*
G36*
G01*
X122150000Y-114900000D02*
X119650000Y-114900000D01*
G75*
G02*
X119600000Y-114850000I0J50000D01*
G01*
X119600000Y-114350000D01*
G75*
G02*
X119650000Y-114300000I50000J0D01*
G01*
X122150000Y-114300000D01*
G75*
G02*
X122200000Y-114350000I0J-50000D01*
G01*
X122200000Y-114850000D01*
G75*
G02*
X122150000Y-114900000I-50000J0D01*
G01*
G37*
G36*
G01*
X122150000Y-109650000D02*
X119650000Y-109650000D01*
G75*
G02*
X119600000Y-109600000I0J50000D01*
G01*
X119600000Y-107600000D01*
G75*
G02*
X119650000Y-107550000I50000J0D01*
G01*
X122150000Y-107550000D01*
G75*
G02*
X122200000Y-107600000I0J-50000D01*
G01*
X122200000Y-109600000D01*
G75*
G02*
X122150000Y-109650000I-50000J0D01*
G01*
G37*
G36*
G01*
X122150000Y-118450000D02*
X119650000Y-118450000D01*
G75*
G02*
X119600000Y-118400000I0J50000D01*
G01*
X119600000Y-116400000D01*
G75*
G02*
X119650000Y-116350000I50000J0D01*
G01*
X122150000Y-116350000D01*
G75*
G02*
X122200000Y-116400000I0J-50000D01*
G01*
X122200000Y-118400000D01*
G75*
G02*
X122150000Y-118450000I-50000J0D01*
G01*
G37*
G36*
G01*
X127650000Y-109650000D02*
X125150000Y-109650000D01*
G75*
G02*
X125100000Y-109600000I0J50000D01*
G01*
X125100000Y-107600000D01*
G75*
G02*
X125150000Y-107550000I50000J0D01*
G01*
X127650000Y-107550000D01*
G75*
G02*
X127700000Y-107600000I0J-50000D01*
G01*
X127700000Y-109600000D01*
G75*
G02*
X127650000Y-109650000I-50000J0D01*
G01*
G37*
G36*
G01*
X127650000Y-118450000D02*
X125150000Y-118450000D01*
G75*
G02*
X125100000Y-118400000I0J50000D01*
G01*
X125100000Y-116400000D01*
G75*
G02*
X125150000Y-116350000I50000J0D01*
G01*
X127650000Y-116350000D01*
G75*
G02*
X127700000Y-116400000I0J-50000D01*
G01*
X127700000Y-118400000D01*
G75*
G02*
X127650000Y-118450000I-50000J0D01*
G01*
G37*
X123750000Y-86300000D03*
X123750000Y-90700000D03*
G36*
G01*
X122400000Y-87200000D02*
X119900000Y-87200000D01*
G75*
G02*
X119850000Y-87150000I0J50000D01*
G01*
X119850000Y-86650000D01*
G75*
G02*
X119900000Y-86600000I50000J0D01*
G01*
X122400000Y-86600000D01*
G75*
G02*
X122450000Y-86650000I0J-50000D01*
G01*
X122450000Y-87150000D01*
G75*
G02*
X122400000Y-87200000I-50000J0D01*
G01*
G37*
G36*
G01*
X122400000Y-88000000D02*
X119900000Y-88000000D01*
G75*
G02*
X119850000Y-87950000I0J50000D01*
G01*
X119850000Y-87450000D01*
G75*
G02*
X119900000Y-87400000I50000J0D01*
G01*
X122400000Y-87400000D01*
G75*
G02*
X122450000Y-87450000I0J-50000D01*
G01*
X122450000Y-87950000D01*
G75*
G02*
X122400000Y-88000000I-50000J0D01*
G01*
G37*
G36*
G01*
X122400000Y-88800000D02*
X119900000Y-88800000D01*
G75*
G02*
X119850000Y-88750000I0J50000D01*
G01*
X119850000Y-88250000D01*
G75*
G02*
X119900000Y-88200000I50000J0D01*
G01*
X122400000Y-88200000D01*
G75*
G02*
X122450000Y-88250000I0J-50000D01*
G01*
X122450000Y-88750000D01*
G75*
G02*
X122400000Y-88800000I-50000J0D01*
G01*
G37*
G36*
G01*
X122400000Y-89600000D02*
X119900000Y-89600000D01*
G75*
G02*
X119850000Y-89550000I0J50000D01*
G01*
X119850000Y-89050000D01*
G75*
G02*
X119900000Y-89000000I50000J0D01*
G01*
X122400000Y-89000000D01*
G75*
G02*
X122450000Y-89050000I0J-50000D01*
G01*
X122450000Y-89550000D01*
G75*
G02*
X122400000Y-89600000I-50000J0D01*
G01*
G37*
G36*
G01*
X122400000Y-90400000D02*
X119900000Y-90400000D01*
G75*
G02*
X119850000Y-90350000I0J50000D01*
G01*
X119850000Y-89850000D01*
G75*
G02*
X119900000Y-89800000I50000J0D01*
G01*
X122400000Y-89800000D01*
G75*
G02*
X122450000Y-89850000I0J-50000D01*
G01*
X122450000Y-90350000D01*
G75*
G02*
X122400000Y-90400000I-50000J0D01*
G01*
G37*
G36*
G01*
X122400000Y-85150000D02*
X119900000Y-85150000D01*
G75*
G02*
X119850000Y-85100000I0J50000D01*
G01*
X119850000Y-83100000D01*
G75*
G02*
X119900000Y-83050000I50000J0D01*
G01*
X122400000Y-83050000D01*
G75*
G02*
X122450000Y-83100000I0J-50000D01*
G01*
X122450000Y-85100000D01*
G75*
G02*
X122400000Y-85150000I-50000J0D01*
G01*
G37*
G36*
G01*
X122400000Y-93950000D02*
X119900000Y-93950000D01*
G75*
G02*
X119850000Y-93900000I0J50000D01*
G01*
X119850000Y-91900000D01*
G75*
G02*
X119900000Y-91850000I50000J0D01*
G01*
X122400000Y-91850000D01*
G75*
G02*
X122450000Y-91900000I0J-50000D01*
G01*
X122450000Y-93900000D01*
G75*
G02*
X122400000Y-93950000I-50000J0D01*
G01*
G37*
G36*
G01*
X127900000Y-85150000D02*
X125400000Y-85150000D01*
G75*
G02*
X125350000Y-85100000I0J50000D01*
G01*
X125350000Y-83100000D01*
G75*
G02*
X125400000Y-83050000I50000J0D01*
G01*
X127900000Y-83050000D01*
G75*
G02*
X127950000Y-83100000I0J-50000D01*
G01*
X127950000Y-85100000D01*
G75*
G02*
X127900000Y-85150000I-50000J0D01*
G01*
G37*
G36*
G01*
X127900000Y-93950000D02*
X125400000Y-93950000D01*
G75*
G02*
X125350000Y-93900000I0J50000D01*
G01*
X125350000Y-91900000D01*
G75*
G02*
X125400000Y-91850000I50000J0D01*
G01*
X127900000Y-91850000D01*
G75*
G02*
X127950000Y-91900000I0J-50000D01*
G01*
X127950000Y-93900000D01*
G75*
G02*
X127900000Y-93950000I-50000J0D01*
G01*
G37*
D11*
X113750000Y-73880000D03*
X113750000Y-76420000D03*
X113750000Y-78960000D03*
G36*
G01*
X114650000Y-80650000D02*
X114650000Y-82350000D01*
G75*
G02*
X114600000Y-82400000I-50000J0D01*
G01*
X112900000Y-82400000D01*
G75*
G02*
X112850000Y-82350000I0J50000D01*
G01*
X112850000Y-80650000D01*
G75*
G02*
X112900000Y-80600000I50000J0D01*
G01*
X114600000Y-80600000D01*
G75*
G02*
X114650000Y-80650000I0J-50000D01*
G01*
G37*
X108410000Y-67250000D03*
X105870000Y-67250000D03*
X103330000Y-67250000D03*
X100790000Y-67250000D03*
G36*
G01*
X99100000Y-68150000D02*
X97400000Y-68150000D01*
G75*
G02*
X97350000Y-68100000I0J50000D01*
G01*
X97350000Y-66400000D01*
G75*
G02*
X97400000Y-66350000I50000J0D01*
G01*
X99100000Y-66350000D01*
G75*
G02*
X99150000Y-66400000I0J-50000D01*
G01*
X99150000Y-68100000D01*
G75*
G02*
X99100000Y-68150000I-50000J0D01*
G01*
G37*
D12*
X103500000Y-98750000D03*
X102000000Y-98750000D03*
G36*
G01*
X99935000Y-99390732D02*
X99935000Y-98109268D01*
G75*
G02*
X100209268Y-97835000I274268J0D01*
G01*
X100790732Y-97835000D01*
G75*
G02*
X101065000Y-98109268I0J-274268D01*
G01*
X101065000Y-99390732D01*
G75*
G02*
X100790732Y-99665000I-274268J0D01*
G01*
X100209268Y-99665000D01*
G75*
G02*
X99935000Y-99390732I0J274268D01*
G01*
G37*
D11*
X86750000Y-80790000D03*
X86750000Y-78250000D03*
X86750000Y-75710000D03*
G36*
G01*
X85850000Y-74020000D02*
X85850000Y-72320000D01*
G75*
G02*
X85900000Y-72270000I50000J0D01*
G01*
X87600000Y-72270000D01*
G75*
G02*
X87650000Y-72320000I0J-50000D01*
G01*
X87650000Y-74020000D01*
G75*
G02*
X87600000Y-74070000I-50000J0D01*
G01*
X85900000Y-74070000D01*
G75*
G02*
X85850000Y-74020000I0J50000D01*
G01*
G37*
X86960000Y-67500000D03*
G36*
G01*
X88650000Y-66600000D02*
X90350000Y-66600000D01*
G75*
G02*
X90400000Y-66650000I0J-50000D01*
G01*
X90400000Y-68350000D01*
G75*
G02*
X90350000Y-68400000I-50000J0D01*
G01*
X88650000Y-68400000D01*
G75*
G02*
X88600000Y-68350000I0J50000D01*
G01*
X88600000Y-66650000D01*
G75*
G02*
X88650000Y-66600000I50000J0D01*
G01*
G37*
G36*
G01*
X84962500Y-94481250D02*
X84962500Y-93518750D01*
G75*
G02*
X85231250Y-93250000I268750J0D01*
G01*
X85768750Y-93250000D01*
G75*
G02*
X86037500Y-93518750I0J-268750D01*
G01*
X86037500Y-94481250D01*
G75*
G02*
X85768750Y-94750000I-268750J0D01*
G01*
X85231250Y-94750000D01*
G75*
G02*
X84962500Y-94481250I0J268750D01*
G01*
G37*
G36*
G01*
X83087500Y-94481250D02*
X83087500Y-93518750D01*
G75*
G02*
X83356250Y-93250000I268750J0D01*
G01*
X83893750Y-93250000D01*
G75*
G02*
X84162500Y-93518750I0J-268750D01*
G01*
X84162500Y-94481250D01*
G75*
G02*
X83893750Y-94750000I-268750J0D01*
G01*
X83356250Y-94750000D01*
G75*
G02*
X83087500Y-94481250I0J268750D01*
G01*
G37*
G36*
G01*
X84900000Y-89731250D02*
X84900000Y-88768750D01*
G75*
G02*
X85168750Y-88500000I268750J0D01*
G01*
X85706250Y-88500000D01*
G75*
G02*
X85975000Y-88768750I0J-268750D01*
G01*
X85975000Y-89731250D01*
G75*
G02*
X85706250Y-90000000I-268750J0D01*
G01*
X85168750Y-90000000D01*
G75*
G02*
X84900000Y-89731250I0J268750D01*
G01*
G37*
G36*
G01*
X83025000Y-89731250D02*
X83025000Y-88768750D01*
G75*
G02*
X83293750Y-88500000I268750J0D01*
G01*
X83831250Y-88500000D01*
G75*
G02*
X84100000Y-88768750I0J-268750D01*
G01*
X84100000Y-89731250D01*
G75*
G02*
X83831250Y-90000000I-268750J0D01*
G01*
X83293750Y-90000000D01*
G75*
G02*
X83025000Y-89731250I0J268750D01*
G01*
G37*
G36*
G01*
X109750000Y-87150000D02*
X110750000Y-87150000D01*
G75*
G02*
X111025000Y-87425000I0J-275000D01*
G01*
X111025000Y-87975000D01*
G75*
G02*
X110750000Y-88250000I-275000J0D01*
G01*
X109750000Y-88250000D01*
G75*
G02*
X109475000Y-87975000I0J275000D01*
G01*
X109475000Y-87425000D01*
G75*
G02*
X109750000Y-87150000I275000J0D01*
G01*
G37*
G36*
G01*
X109750000Y-85250000D02*
X110750000Y-85250000D01*
G75*
G02*
X111025000Y-85525000I0J-275000D01*
G01*
X111025000Y-86075000D01*
G75*
G02*
X110750000Y-86350000I-275000J0D01*
G01*
X109750000Y-86350000D01*
G75*
G02*
X109475000Y-86075000I0J275000D01*
G01*
X109475000Y-85525000D01*
G75*
G02*
X109750000Y-85250000I275000J0D01*
G01*
G37*
G36*
G01*
X115750000Y-93900000D02*
X116750000Y-93900000D01*
G75*
G02*
X117025000Y-94175000I0J-275000D01*
G01*
X117025000Y-94725000D01*
G75*
G02*
X116750000Y-95000000I-275000J0D01*
G01*
X115750000Y-95000000D01*
G75*
G02*
X115475000Y-94725000I0J275000D01*
G01*
X115475000Y-94175000D01*
G75*
G02*
X115750000Y-93900000I275000J0D01*
G01*
G37*
G36*
G01*
X115750000Y-92000000D02*
X116750000Y-92000000D01*
G75*
G02*
X117025000Y-92275000I0J-275000D01*
G01*
X117025000Y-92825000D01*
G75*
G02*
X116750000Y-93100000I-275000J0D01*
G01*
X115750000Y-93100000D01*
G75*
G02*
X115475000Y-92825000I0J275000D01*
G01*
X115475000Y-92275000D01*
G75*
G02*
X115750000Y-92000000I275000J0D01*
G01*
G37*
G36*
G01*
X93000000Y-83900000D02*
X94000000Y-83900000D01*
G75*
G02*
X94275000Y-84175000I0J-275000D01*
G01*
X94275000Y-84725000D01*
G75*
G02*
X94000000Y-85000000I-275000J0D01*
G01*
X93000000Y-85000000D01*
G75*
G02*
X92725000Y-84725000I0J275000D01*
G01*
X92725000Y-84175000D01*
G75*
G02*
X93000000Y-83900000I275000J0D01*
G01*
G37*
G36*
G01*
X93000000Y-82000000D02*
X94000000Y-82000000D01*
G75*
G02*
X94275000Y-82275000I0J-275000D01*
G01*
X94275000Y-82825000D01*
G75*
G02*
X94000000Y-83100000I-275000J0D01*
G01*
X93000000Y-83100000D01*
G75*
G02*
X92725000Y-82825000I0J275000D01*
G01*
X92725000Y-82275000D01*
G75*
G02*
X93000000Y-82000000I275000J0D01*
G01*
G37*
G36*
G01*
X112100000Y-97500000D02*
X112100000Y-98500000D01*
G75*
G02*
X111825000Y-98775000I-275000J0D01*
G01*
X111275000Y-98775000D01*
G75*
G02*
X111000000Y-98500000I0J275000D01*
G01*
X111000000Y-97500000D01*
G75*
G02*
X111275000Y-97225000I275000J0D01*
G01*
X111825000Y-97225000D01*
G75*
G02*
X112100000Y-97500000I0J-275000D01*
G01*
G37*
G36*
G01*
X114000000Y-97500000D02*
X114000000Y-98500000D01*
G75*
G02*
X113725000Y-98775000I-275000J0D01*
G01*
X113175000Y-98775000D01*
G75*
G02*
X112900000Y-98500000I0J275000D01*
G01*
X112900000Y-97500000D01*
G75*
G02*
X113175000Y-97225000I275000J0D01*
G01*
X113725000Y-97225000D01*
G75*
G02*
X114000000Y-97500000I0J-275000D01*
G01*
G37*
M02*
