G04 #@! TF.GenerationSoftware,KiCad,Pcbnew,(5.1.8)-1*
G04 #@! TF.CreationDate,2021-08-02T19:11:59-06:00*
G04 #@! TF.ProjectId,RCtoUSB,5243746f-5553-4422-9e6b-696361645f70,rev?*
G04 #@! TF.SameCoordinates,Original*
G04 #@! TF.FileFunction,Soldermask,Bot*
G04 #@! TF.FilePolarity,Negative*
%FSLAX46Y46*%
G04 Gerber Fmt 4.6, Leading zero omitted, Abs format (unit mm)*
G04 Created by KiCad (PCBNEW (5.1.8)-1) date 2021-08-02 19:11:59*
%MOMM*%
%LPD*%
G01*
G04 APERTURE LIST*
%ADD10C,1.640000*%
%ADD11O,1.800000X1.800000*%
%ADD12O,1.130000X1.830000*%
%ADD13C,1.000000*%
G04 APERTURE END LIST*
D10*
X91250000Y-123500000D03*
X97750000Y-123500000D03*
X91250000Y-128000000D03*
X97750000Y-128000000D03*
X119750000Y-74500000D03*
X119750000Y-68000000D03*
X124250000Y-74500000D03*
X124250000Y-68000000D03*
D11*
X90750000Y-107840000D03*
X90750000Y-110380000D03*
X90750000Y-112920000D03*
X90750000Y-115460000D03*
G36*
G01*
X91650000Y-117150000D02*
X91650000Y-118850000D01*
G75*
G02*
X91600000Y-118900000I-50000J0D01*
G01*
X89900000Y-118900000D01*
G75*
G02*
X89850000Y-118850000I0J50000D01*
G01*
X89850000Y-117150000D01*
G75*
G02*
X89900000Y-117100000I50000J0D01*
G01*
X91600000Y-117100000D01*
G75*
G02*
X91650000Y-117150000I0J-50000D01*
G01*
G37*
D12*
X107000000Y-108250000D03*
X105500000Y-108250000D03*
G36*
G01*
X103435000Y-108890732D02*
X103435000Y-107609268D01*
G75*
G02*
X103709268Y-107335000I274268J0D01*
G01*
X104290732Y-107335000D01*
G75*
G02*
X104565000Y-107609268I0J-274268D01*
G01*
X104565000Y-108890732D01*
G75*
G02*
X104290732Y-109165000I-274268J0D01*
G01*
X103709268Y-109165000D01*
G75*
G02*
X103435000Y-108890732I0J274268D01*
G01*
G37*
D13*
X123500000Y-110800000D03*
X123500000Y-115200000D03*
X123750000Y-86300000D03*
X123750000Y-90700000D03*
D11*
X113750000Y-73880000D03*
X113750000Y-76420000D03*
X113750000Y-78960000D03*
G36*
G01*
X114650000Y-80650000D02*
X114650000Y-82350000D01*
G75*
G02*
X114600000Y-82400000I-50000J0D01*
G01*
X112900000Y-82400000D01*
G75*
G02*
X112850000Y-82350000I0J50000D01*
G01*
X112850000Y-80650000D01*
G75*
G02*
X112900000Y-80600000I50000J0D01*
G01*
X114600000Y-80600000D01*
G75*
G02*
X114650000Y-80650000I0J-50000D01*
G01*
G37*
X108410000Y-67250000D03*
X105870000Y-67250000D03*
X103330000Y-67250000D03*
X100790000Y-67250000D03*
G36*
G01*
X99100000Y-68150000D02*
X97400000Y-68150000D01*
G75*
G02*
X97350000Y-68100000I0J50000D01*
G01*
X97350000Y-66400000D01*
G75*
G02*
X97400000Y-66350000I50000J0D01*
G01*
X99100000Y-66350000D01*
G75*
G02*
X99150000Y-66400000I0J-50000D01*
G01*
X99150000Y-68100000D01*
G75*
G02*
X99100000Y-68150000I-50000J0D01*
G01*
G37*
D12*
X103500000Y-98750000D03*
X102000000Y-98750000D03*
G36*
G01*
X99935000Y-99390732D02*
X99935000Y-98109268D01*
G75*
G02*
X100209268Y-97835000I274268J0D01*
G01*
X100790732Y-97835000D01*
G75*
G02*
X101065000Y-98109268I0J-274268D01*
G01*
X101065000Y-99390732D01*
G75*
G02*
X100790732Y-99665000I-274268J0D01*
G01*
X100209268Y-99665000D01*
G75*
G02*
X99935000Y-99390732I0J274268D01*
G01*
G37*
D11*
X86750000Y-80790000D03*
X86750000Y-78250000D03*
X86750000Y-75710000D03*
G36*
G01*
X85850000Y-74020000D02*
X85850000Y-72320000D01*
G75*
G02*
X85900000Y-72270000I50000J0D01*
G01*
X87600000Y-72270000D01*
G75*
G02*
X87650000Y-72320000I0J-50000D01*
G01*
X87650000Y-74020000D01*
G75*
G02*
X87600000Y-74070000I-50000J0D01*
G01*
X85900000Y-74070000D01*
G75*
G02*
X85850000Y-74020000I0J50000D01*
G01*
G37*
X86960000Y-67500000D03*
G36*
G01*
X88650000Y-66600000D02*
X90350000Y-66600000D01*
G75*
G02*
X90400000Y-66650000I0J-50000D01*
G01*
X90400000Y-68350000D01*
G75*
G02*
X90350000Y-68400000I-50000J0D01*
G01*
X88650000Y-68400000D01*
G75*
G02*
X88600000Y-68350000I0J50000D01*
G01*
X88600000Y-66650000D01*
G75*
G02*
X88650000Y-66600000I50000J0D01*
G01*
G37*
M02*
