M48
; DRILL file {KiCad (5.1.8)-1} date 08/02/21 19:12:04
; FORMAT={-:-/ absolute / inch / decimal}
; #@! TF.CreationDate,2021-08-02T19:12:04-06:00
; #@! TF.GenerationSoftware,Kicad,Pcbnew,(5.1.8)-1
; #@! TF.FileFunction,Plated,1,2,PTH
FMAT,2
INCH
T1C0.0157
T2C0.0287
T3C0.0390
T4C0.0394
%
G90
G05
T1
X3.2874Y-3.6024
X3.6811Y-3.376
X3.75Y-3.6319
X3.75Y-4.2717
X3.7598Y-4.0157
X3.7598Y-4.3307
X3.7844Y-4.6998
X3.8258Y-4.4616
X4.0846Y-4.5177
X4.0945Y-4.4291
X4.0945Y-4.6358
X4.1929Y-4.7343
X4.2618Y-3.6811
X4.2717Y-4.872
X4.311Y-3.8484
X4.3406Y-3.5138
X4.4783Y-4.6457
X4.5276Y-3.376
X4.5276Y-3.8189
X4.6063Y-4.5079
X4.6373Y-4.8903
X4.8563Y-4.622
X4.8583Y-4.2756
X4.876Y-3.6575
X4.878Y-3.311
T2
X3.9567Y-3.8878
X4.0157Y-3.8878
X4.0748Y-3.8878
X4.0945Y-4.2618
X4.1535Y-4.2618
X4.2126Y-4.2618
T3
X3.5925Y-4.8622
X3.5925Y-5.0394
X3.8484Y-4.8622
X3.8484Y-5.0394
X4.7146Y-2.6772
X4.7146Y-2.9331
X4.8917Y-2.6772
X4.8917Y-2.9331
T4
X4.4783Y-2.9087
X4.4783Y-3.0087
X4.4783Y-3.1087
X4.4783Y-3.2087
X3.4154Y-2.8807
X3.4154Y-2.9807
X3.4154Y-3.0807
X3.4154Y-3.1807
X3.8681Y-2.6476
X3.9681Y-2.6476
X4.0681Y-2.6476
X4.1681Y-2.6476
X4.2681Y-2.6476
X3.5728Y-4.2457
X3.5728Y-4.3457
X3.5728Y-4.4457
X3.5728Y-4.5457
X3.5728Y-4.6457
X3.4236Y-2.6575
X3.5236Y-2.6575
T0
M30
