G04 #@! TF.GenerationSoftware,KiCad,Pcbnew,(5.1.8)-1*
G04 #@! TF.CreationDate,2021-08-02T19:11:59-06:00*
G04 #@! TF.ProjectId,RCtoUSB,5243746f-5553-4422-9e6b-696361645f70,rev?*
G04 #@! TF.SameCoordinates,Original*
G04 #@! TF.FileFunction,Copper,L2,Bot*
G04 #@! TF.FilePolarity,Positive*
%FSLAX46Y46*%
G04 Gerber Fmt 4.6, Leading zero omitted, Abs format (unit mm)*
G04 Created by KiCad (PCBNEW (5.1.8)-1) date 2021-08-02 19:11:59*
%MOMM*%
%LPD*%
G01*
G04 APERTURE LIST*
G04 #@! TA.AperFunction,ComponentPad*
%ADD10C,1.540000*%
G04 #@! TD*
G04 #@! TA.AperFunction,ComponentPad*
%ADD11O,1.700000X1.700000*%
G04 #@! TD*
G04 #@! TA.AperFunction,ComponentPad*
%ADD12R,1.700000X1.700000*%
G04 #@! TD*
G04 #@! TA.AperFunction,ComponentPad*
%ADD13O,1.030000X1.730000*%
G04 #@! TD*
G04 #@! TA.AperFunction,ViaPad*
%ADD14C,0.800000*%
G04 #@! TD*
G04 #@! TA.AperFunction,Conductor*
%ADD15C,0.250000*%
G04 #@! TD*
G04 #@! TA.AperFunction,Conductor*
%ADD16C,0.254000*%
G04 #@! TD*
G04 #@! TA.AperFunction,Conductor*
%ADD17C,0.100000*%
G04 #@! TD*
G04 APERTURE END LIST*
D10*
X91250000Y-123500000D03*
X97750000Y-123500000D03*
X91250000Y-128000000D03*
X97750000Y-128000000D03*
X119750000Y-74500000D03*
X119750000Y-68000000D03*
X124250000Y-74500000D03*
X124250000Y-68000000D03*
D11*
X90750000Y-107840000D03*
X90750000Y-110380000D03*
X90750000Y-112920000D03*
X90750000Y-115460000D03*
D12*
X90750000Y-118000000D03*
D13*
X107000000Y-108250000D03*
X105500000Y-108250000D03*
G04 #@! TA.AperFunction,ComponentPad*
G36*
G01*
X103485000Y-108865003D02*
X103485000Y-107634997D01*
G75*
G02*
X103734997Y-107385000I249997J0D01*
G01*
X104265003Y-107385000D01*
G75*
G02*
X104515000Y-107634997I0J-249997D01*
G01*
X104515000Y-108865003D01*
G75*
G02*
X104265003Y-109115000I-249997J0D01*
G01*
X103734997Y-109115000D01*
G75*
G02*
X103485000Y-108865003I0J249997D01*
G01*
G37*
G04 #@! TD.AperFunction*
D11*
X113750000Y-73880000D03*
X113750000Y-76420000D03*
X113750000Y-78960000D03*
D12*
X113750000Y-81500000D03*
D11*
X108410000Y-67250000D03*
X105870000Y-67250000D03*
X103330000Y-67250000D03*
X100790000Y-67250000D03*
D12*
X98250000Y-67250000D03*
D13*
X103500000Y-98750000D03*
X102000000Y-98750000D03*
G04 #@! TA.AperFunction,ComponentPad*
G36*
G01*
X99985000Y-99365003D02*
X99985000Y-98134997D01*
G75*
G02*
X100234997Y-97885000I249997J0D01*
G01*
X100765003Y-97885000D01*
G75*
G02*
X101015000Y-98134997I0J-249997D01*
G01*
X101015000Y-99365003D01*
G75*
G02*
X100765003Y-99615000I-249997J0D01*
G01*
X100234997Y-99615000D01*
G75*
G02*
X99985000Y-99365003I0J249997D01*
G01*
G37*
G04 #@! TD.AperFunction*
D11*
X86750000Y-80790000D03*
X86750000Y-78250000D03*
X86750000Y-75710000D03*
D12*
X86750000Y-73170000D03*
D11*
X86960000Y-67500000D03*
D12*
X89500000Y-67500000D03*
D14*
X83500000Y-91500000D03*
X95500000Y-102000000D03*
X109500000Y-97750000D03*
X123850000Y-92900000D03*
X123900000Y-84100000D03*
X110250000Y-89250000D03*
X93500000Y-85750000D03*
X115000000Y-97000000D03*
X115000000Y-85750000D03*
X113750000Y-118000000D03*
X104000000Y-112500000D03*
X96125000Y-119375000D03*
X108250000Y-93500000D03*
X95250000Y-92250000D03*
X106500000Y-120250000D03*
X104000000Y-117750000D03*
X123350000Y-117400000D03*
X123400000Y-108600000D03*
X117787500Y-124212500D03*
X117000000Y-114500000D03*
X97175000Y-113325000D03*
X95250000Y-108500000D03*
X108500000Y-123750000D03*
X95500000Y-110000000D03*
X103750000Y-114750000D03*
D15*
X115000000Y-97000000D02*
X115000000Y-85750000D01*
X113750000Y-118000000D02*
X113750000Y-115750000D01*
X110500000Y-112500000D02*
X104000000Y-112500000D01*
X113750000Y-115750000D02*
X110500000Y-112500000D01*
X101250000Y-112500000D02*
X104000000Y-112500000D01*
X96125000Y-117625000D02*
X101250000Y-112500000D01*
X96125000Y-119375000D02*
X96125000Y-117625000D01*
X95250000Y-92250000D02*
X96250000Y-93250000D01*
X108000000Y-93250000D02*
X108250000Y-93500000D01*
X96250000Y-93250000D02*
X108000000Y-93250000D01*
X108500000Y-123750000D02*
X106500000Y-125750000D01*
X106500000Y-125750000D02*
X97250000Y-125750000D01*
X97250000Y-125750000D02*
X94000000Y-122500000D01*
X94000000Y-122500000D02*
X94000000Y-111500000D01*
X94000000Y-111500000D02*
X95500000Y-110000000D01*
X97750000Y-123500000D02*
X97750000Y-119500000D01*
X97750000Y-119500000D02*
X102500000Y-114750000D01*
X102500000Y-114750000D02*
X103750000Y-114750000D01*
D16*
X128340000Y-103623000D02*
X81660000Y-103623000D01*
X81660000Y-98134997D01*
X99346928Y-98134997D01*
X99346928Y-99365003D01*
X99363992Y-99538257D01*
X99414528Y-99704852D01*
X99496595Y-99858388D01*
X99607037Y-99992963D01*
X99741612Y-100103405D01*
X99895148Y-100185472D01*
X100061743Y-100236008D01*
X100234997Y-100253072D01*
X100765003Y-100253072D01*
X100938257Y-100236008D01*
X101104852Y-100185472D01*
X101258388Y-100103405D01*
X101334144Y-100041234D01*
X101358004Y-100060816D01*
X101557786Y-100167602D01*
X101774562Y-100233360D01*
X102000000Y-100255564D01*
X102225439Y-100233360D01*
X102442215Y-100167602D01*
X102641997Y-100060816D01*
X102750001Y-99972180D01*
X102858004Y-100060816D01*
X103057786Y-100167602D01*
X103274562Y-100233360D01*
X103500000Y-100255564D01*
X103725439Y-100233360D01*
X103942215Y-100167602D01*
X104141997Y-100060816D01*
X104317107Y-99917107D01*
X104460816Y-99741997D01*
X104567602Y-99542215D01*
X104633360Y-99325438D01*
X104650000Y-99156491D01*
X104650000Y-98343508D01*
X104633360Y-98174561D01*
X104567602Y-97957785D01*
X104460816Y-97758003D01*
X104317107Y-97582893D01*
X104141996Y-97439184D01*
X103942214Y-97332398D01*
X103725438Y-97266640D01*
X103500000Y-97244436D01*
X103274561Y-97266640D01*
X103057785Y-97332398D01*
X102858003Y-97439184D01*
X102750000Y-97527820D01*
X102641996Y-97439184D01*
X102442214Y-97332398D01*
X102225438Y-97266640D01*
X102000000Y-97244436D01*
X101774561Y-97266640D01*
X101557785Y-97332398D01*
X101358003Y-97439184D01*
X101334143Y-97458765D01*
X101258388Y-97396595D01*
X101104852Y-97314528D01*
X100938257Y-97263992D01*
X100765003Y-97246928D01*
X100234997Y-97246928D01*
X100061743Y-97263992D01*
X99895148Y-97314528D01*
X99741612Y-97396595D01*
X99607037Y-97507037D01*
X99496595Y-97641612D01*
X99414528Y-97795148D01*
X99363992Y-97961743D01*
X99346928Y-98134997D01*
X81660000Y-98134997D01*
X81660000Y-92148061D01*
X94215000Y-92148061D01*
X94215000Y-92351939D01*
X94254774Y-92551898D01*
X94332795Y-92740256D01*
X94446063Y-92909774D01*
X94590226Y-93053937D01*
X94759744Y-93167205D01*
X94948102Y-93245226D01*
X95148061Y-93285000D01*
X95210199Y-93285000D01*
X95686200Y-93761002D01*
X95709999Y-93790001D01*
X95738997Y-93813799D01*
X95825724Y-93884974D01*
X95957753Y-93955546D01*
X96101014Y-93999003D01*
X96250000Y-94013677D01*
X96287333Y-94010000D01*
X107345987Y-94010000D01*
X107446063Y-94159774D01*
X107590226Y-94303937D01*
X107759744Y-94417205D01*
X107948102Y-94495226D01*
X108148061Y-94535000D01*
X108351939Y-94535000D01*
X108551898Y-94495226D01*
X108740256Y-94417205D01*
X108909774Y-94303937D01*
X109053937Y-94159774D01*
X109167205Y-93990256D01*
X109245226Y-93801898D01*
X109285000Y-93601939D01*
X109285000Y-93398061D01*
X109245226Y-93198102D01*
X109167205Y-93009744D01*
X109053937Y-92840226D01*
X108909774Y-92696063D01*
X108740256Y-92582795D01*
X108551898Y-92504774D01*
X108351939Y-92465000D01*
X108148061Y-92465000D01*
X108027326Y-92489015D01*
X108000000Y-92486324D01*
X107962678Y-92490000D01*
X96564802Y-92490000D01*
X96285000Y-92210199D01*
X96285000Y-92148061D01*
X96245226Y-91948102D01*
X96167205Y-91759744D01*
X96053937Y-91590226D01*
X95909774Y-91446063D01*
X95740256Y-91332795D01*
X95551898Y-91254774D01*
X95351939Y-91215000D01*
X95148061Y-91215000D01*
X94948102Y-91254774D01*
X94759744Y-91332795D01*
X94590226Y-91446063D01*
X94446063Y-91590226D01*
X94332795Y-91759744D01*
X94254774Y-91948102D01*
X94215000Y-92148061D01*
X81660000Y-92148061D01*
X81660000Y-85648061D01*
X113965000Y-85648061D01*
X113965000Y-85851939D01*
X114004774Y-86051898D01*
X114082795Y-86240256D01*
X114196063Y-86409774D01*
X114240001Y-86453712D01*
X114240000Y-96296289D01*
X114196063Y-96340226D01*
X114082795Y-96509744D01*
X114004774Y-96698102D01*
X113965000Y-96898061D01*
X113965000Y-97101939D01*
X114004774Y-97301898D01*
X114082795Y-97490256D01*
X114196063Y-97659774D01*
X114340226Y-97803937D01*
X114509744Y-97917205D01*
X114698102Y-97995226D01*
X114898061Y-98035000D01*
X115101939Y-98035000D01*
X115301898Y-97995226D01*
X115490256Y-97917205D01*
X115659774Y-97803937D01*
X115803937Y-97659774D01*
X115917205Y-97490256D01*
X115995226Y-97301898D01*
X116035000Y-97101939D01*
X116035000Y-96898061D01*
X115995226Y-96698102D01*
X115917205Y-96509744D01*
X115803937Y-96340226D01*
X115760000Y-96296289D01*
X115760000Y-90593137D01*
X122665000Y-90593137D01*
X122665000Y-90806863D01*
X122706696Y-91016483D01*
X122788485Y-91213940D01*
X122907225Y-91391647D01*
X123058353Y-91542775D01*
X123236060Y-91661515D01*
X123433517Y-91743304D01*
X123643137Y-91785000D01*
X123856863Y-91785000D01*
X124066483Y-91743304D01*
X124263940Y-91661515D01*
X124441647Y-91542775D01*
X124592775Y-91391647D01*
X124711515Y-91213940D01*
X124793304Y-91016483D01*
X124835000Y-90806863D01*
X124835000Y-90593137D01*
X124793304Y-90383517D01*
X124711515Y-90186060D01*
X124592775Y-90008353D01*
X124441647Y-89857225D01*
X124263940Y-89738485D01*
X124066483Y-89656696D01*
X123856863Y-89615000D01*
X123643137Y-89615000D01*
X123433517Y-89656696D01*
X123236060Y-89738485D01*
X123058353Y-89857225D01*
X122907225Y-90008353D01*
X122788485Y-90186060D01*
X122706696Y-90383517D01*
X122665000Y-90593137D01*
X115760000Y-90593137D01*
X115760000Y-86453711D01*
X115803937Y-86409774D01*
X115917205Y-86240256D01*
X115936722Y-86193137D01*
X122665000Y-86193137D01*
X122665000Y-86406863D01*
X122706696Y-86616483D01*
X122788485Y-86813940D01*
X122907225Y-86991647D01*
X123058353Y-87142775D01*
X123236060Y-87261515D01*
X123433517Y-87343304D01*
X123643137Y-87385000D01*
X123856863Y-87385000D01*
X124066483Y-87343304D01*
X124263940Y-87261515D01*
X124441647Y-87142775D01*
X124592775Y-86991647D01*
X124711515Y-86813940D01*
X124793304Y-86616483D01*
X124835000Y-86406863D01*
X124835000Y-86193137D01*
X124793304Y-85983517D01*
X124711515Y-85786060D01*
X124592775Y-85608353D01*
X124441647Y-85457225D01*
X124263940Y-85338485D01*
X124066483Y-85256696D01*
X123856863Y-85215000D01*
X123643137Y-85215000D01*
X123433517Y-85256696D01*
X123236060Y-85338485D01*
X123058353Y-85457225D01*
X122907225Y-85608353D01*
X122788485Y-85786060D01*
X122706696Y-85983517D01*
X122665000Y-86193137D01*
X115936722Y-86193137D01*
X115995226Y-86051898D01*
X116035000Y-85851939D01*
X116035000Y-85648061D01*
X115995226Y-85448102D01*
X115917205Y-85259744D01*
X115803937Y-85090226D01*
X115659774Y-84946063D01*
X115490256Y-84832795D01*
X115301898Y-84754774D01*
X115101939Y-84715000D01*
X114898061Y-84715000D01*
X114698102Y-84754774D01*
X114509744Y-84832795D01*
X114340226Y-84946063D01*
X114196063Y-85090226D01*
X114082795Y-85259744D01*
X114004774Y-85448102D01*
X113965000Y-85648061D01*
X81660000Y-85648061D01*
X81660000Y-72320000D01*
X85261928Y-72320000D01*
X85261928Y-74020000D01*
X85274188Y-74144482D01*
X85310498Y-74264180D01*
X85369463Y-74374494D01*
X85448815Y-74471185D01*
X85545506Y-74550537D01*
X85655820Y-74609502D01*
X85728380Y-74631513D01*
X85596525Y-74763368D01*
X85434010Y-75006589D01*
X85322068Y-75276842D01*
X85265000Y-75563740D01*
X85265000Y-75856260D01*
X85322068Y-76143158D01*
X85434010Y-76413411D01*
X85596525Y-76656632D01*
X85803368Y-76863475D01*
X85977760Y-76980000D01*
X85803368Y-77096525D01*
X85596525Y-77303368D01*
X85434010Y-77546589D01*
X85322068Y-77816842D01*
X85265000Y-78103740D01*
X85265000Y-78396260D01*
X85322068Y-78683158D01*
X85434010Y-78953411D01*
X85596525Y-79196632D01*
X85803368Y-79403475D01*
X85977760Y-79520000D01*
X85803368Y-79636525D01*
X85596525Y-79843368D01*
X85434010Y-80086589D01*
X85322068Y-80356842D01*
X85265000Y-80643740D01*
X85265000Y-80936260D01*
X85322068Y-81223158D01*
X85434010Y-81493411D01*
X85596525Y-81736632D01*
X85803368Y-81943475D01*
X86046589Y-82105990D01*
X86316842Y-82217932D01*
X86603740Y-82275000D01*
X86896260Y-82275000D01*
X87183158Y-82217932D01*
X87453411Y-82105990D01*
X87696632Y-81943475D01*
X87903475Y-81736632D01*
X88065990Y-81493411D01*
X88177932Y-81223158D01*
X88235000Y-80936260D01*
X88235000Y-80650000D01*
X112261928Y-80650000D01*
X112261928Y-82350000D01*
X112274188Y-82474482D01*
X112310498Y-82594180D01*
X112369463Y-82704494D01*
X112448815Y-82801185D01*
X112545506Y-82880537D01*
X112655820Y-82939502D01*
X112775518Y-82975812D01*
X112900000Y-82988072D01*
X114600000Y-82988072D01*
X114724482Y-82975812D01*
X114844180Y-82939502D01*
X114954494Y-82880537D01*
X115051185Y-82801185D01*
X115130537Y-82704494D01*
X115189502Y-82594180D01*
X115225812Y-82474482D01*
X115238072Y-82350000D01*
X115238072Y-80650000D01*
X115225812Y-80525518D01*
X115189502Y-80405820D01*
X115130537Y-80295506D01*
X115051185Y-80198815D01*
X114954494Y-80119463D01*
X114844180Y-80060498D01*
X114771620Y-80038487D01*
X114903475Y-79906632D01*
X115065990Y-79663411D01*
X115177932Y-79393158D01*
X115235000Y-79106260D01*
X115235000Y-78813740D01*
X115177932Y-78526842D01*
X115065990Y-78256589D01*
X114903475Y-78013368D01*
X114696632Y-77806525D01*
X114522240Y-77690000D01*
X114696632Y-77573475D01*
X114903475Y-77366632D01*
X115065990Y-77123411D01*
X115177932Y-76853158D01*
X115235000Y-76566260D01*
X115235000Y-76273740D01*
X115177932Y-75986842D01*
X115065990Y-75716589D01*
X114903475Y-75473368D01*
X114696632Y-75266525D01*
X114522240Y-75150000D01*
X114696632Y-75033475D01*
X114903475Y-74826632D01*
X115065990Y-74583411D01*
X115157858Y-74361620D01*
X118345000Y-74361620D01*
X118345000Y-74638380D01*
X118398994Y-74909823D01*
X118504905Y-75165517D01*
X118658665Y-75395635D01*
X118854365Y-75591335D01*
X119084483Y-75745095D01*
X119340177Y-75851006D01*
X119611620Y-75905000D01*
X119888380Y-75905000D01*
X120159823Y-75851006D01*
X120415517Y-75745095D01*
X120645635Y-75591335D01*
X120765692Y-75471278D01*
X123458327Y-75471278D01*
X123526276Y-75712187D01*
X123776668Y-75830087D01*
X124045250Y-75896872D01*
X124321701Y-75909977D01*
X124595395Y-75868896D01*
X124855817Y-75775210D01*
X124973724Y-75712187D01*
X125041673Y-75471278D01*
X124250000Y-74679605D01*
X123458327Y-75471278D01*
X120765692Y-75471278D01*
X120841335Y-75395635D01*
X120995095Y-75165517D01*
X121101006Y-74909823D01*
X121155000Y-74638380D01*
X121155000Y-74571701D01*
X122840023Y-74571701D01*
X122881104Y-74845395D01*
X122974790Y-75105817D01*
X123037813Y-75223724D01*
X123278722Y-75291673D01*
X124070395Y-74500000D01*
X124429605Y-74500000D01*
X125221278Y-75291673D01*
X125462187Y-75223724D01*
X125580087Y-74973332D01*
X125646872Y-74704750D01*
X125659977Y-74428299D01*
X125618896Y-74154605D01*
X125525210Y-73894183D01*
X125462187Y-73776276D01*
X125221278Y-73708327D01*
X124429605Y-74500000D01*
X124070395Y-74500000D01*
X123278722Y-73708327D01*
X123037813Y-73776276D01*
X122919913Y-74026668D01*
X122853128Y-74295250D01*
X122840023Y-74571701D01*
X121155000Y-74571701D01*
X121155000Y-74361620D01*
X121101006Y-74090177D01*
X120995095Y-73834483D01*
X120841335Y-73604365D01*
X120765692Y-73528722D01*
X123458327Y-73528722D01*
X124250000Y-74320395D01*
X125041673Y-73528722D01*
X124973724Y-73287813D01*
X124723332Y-73169913D01*
X124454750Y-73103128D01*
X124178299Y-73090023D01*
X123904605Y-73131104D01*
X123644183Y-73224790D01*
X123526276Y-73287813D01*
X123458327Y-73528722D01*
X120765692Y-73528722D01*
X120645635Y-73408665D01*
X120415517Y-73254905D01*
X120159823Y-73148994D01*
X119888380Y-73095000D01*
X119611620Y-73095000D01*
X119340177Y-73148994D01*
X119084483Y-73254905D01*
X118854365Y-73408665D01*
X118658665Y-73604365D01*
X118504905Y-73834483D01*
X118398994Y-74090177D01*
X118345000Y-74361620D01*
X115157858Y-74361620D01*
X115177932Y-74313158D01*
X115235000Y-74026260D01*
X115235000Y-73733740D01*
X115177932Y-73446842D01*
X115065990Y-73176589D01*
X114903475Y-72933368D01*
X114696632Y-72726525D01*
X114453411Y-72564010D01*
X114183158Y-72452068D01*
X113896260Y-72395000D01*
X113603740Y-72395000D01*
X113316842Y-72452068D01*
X113046589Y-72564010D01*
X112803368Y-72726525D01*
X112596525Y-72933368D01*
X112434010Y-73176589D01*
X112322068Y-73446842D01*
X112265000Y-73733740D01*
X112265000Y-74026260D01*
X112322068Y-74313158D01*
X112434010Y-74583411D01*
X112596525Y-74826632D01*
X112803368Y-75033475D01*
X112977760Y-75150000D01*
X112803368Y-75266525D01*
X112596525Y-75473368D01*
X112434010Y-75716589D01*
X112322068Y-75986842D01*
X112265000Y-76273740D01*
X112265000Y-76566260D01*
X112322068Y-76853158D01*
X112434010Y-77123411D01*
X112596525Y-77366632D01*
X112803368Y-77573475D01*
X112977760Y-77690000D01*
X112803368Y-77806525D01*
X112596525Y-78013368D01*
X112434010Y-78256589D01*
X112322068Y-78526842D01*
X112265000Y-78813740D01*
X112265000Y-79106260D01*
X112322068Y-79393158D01*
X112434010Y-79663411D01*
X112596525Y-79906632D01*
X112728380Y-80038487D01*
X112655820Y-80060498D01*
X112545506Y-80119463D01*
X112448815Y-80198815D01*
X112369463Y-80295506D01*
X112310498Y-80405820D01*
X112274188Y-80525518D01*
X112261928Y-80650000D01*
X88235000Y-80650000D01*
X88235000Y-80643740D01*
X88177932Y-80356842D01*
X88065990Y-80086589D01*
X87903475Y-79843368D01*
X87696632Y-79636525D01*
X87522240Y-79520000D01*
X87696632Y-79403475D01*
X87903475Y-79196632D01*
X88065990Y-78953411D01*
X88177932Y-78683158D01*
X88235000Y-78396260D01*
X88235000Y-78103740D01*
X88177932Y-77816842D01*
X88065990Y-77546589D01*
X87903475Y-77303368D01*
X87696632Y-77096525D01*
X87522240Y-76980000D01*
X87696632Y-76863475D01*
X87903475Y-76656632D01*
X88065990Y-76413411D01*
X88177932Y-76143158D01*
X88235000Y-75856260D01*
X88235000Y-75563740D01*
X88177932Y-75276842D01*
X88065990Y-75006589D01*
X87903475Y-74763368D01*
X87771620Y-74631513D01*
X87844180Y-74609502D01*
X87954494Y-74550537D01*
X88051185Y-74471185D01*
X88130537Y-74374494D01*
X88189502Y-74264180D01*
X88225812Y-74144482D01*
X88238072Y-74020000D01*
X88238072Y-72320000D01*
X88225812Y-72195518D01*
X88189502Y-72075820D01*
X88130537Y-71965506D01*
X88051185Y-71868815D01*
X87954494Y-71789463D01*
X87844180Y-71730498D01*
X87724482Y-71694188D01*
X87600000Y-71681928D01*
X85900000Y-71681928D01*
X85775518Y-71694188D01*
X85655820Y-71730498D01*
X85545506Y-71789463D01*
X85448815Y-71868815D01*
X85369463Y-71965506D01*
X85310498Y-72075820D01*
X85274188Y-72195518D01*
X85261928Y-72320000D01*
X81660000Y-72320000D01*
X81660000Y-67856891D01*
X85518519Y-67856891D01*
X85615843Y-68131252D01*
X85764822Y-68381355D01*
X85959731Y-68597588D01*
X86193080Y-68771641D01*
X86455901Y-68896825D01*
X86603110Y-68941476D01*
X86833000Y-68820155D01*
X86833000Y-67627000D01*
X85639186Y-67627000D01*
X85518519Y-67856891D01*
X81660000Y-67856891D01*
X81660000Y-67143109D01*
X85518519Y-67143109D01*
X85639186Y-67373000D01*
X86833000Y-67373000D01*
X86833000Y-66179845D01*
X87087000Y-66179845D01*
X87087000Y-67373000D01*
X87107000Y-67373000D01*
X87107000Y-67627000D01*
X87087000Y-67627000D01*
X87087000Y-68820155D01*
X87316890Y-68941476D01*
X87464099Y-68896825D01*
X87726920Y-68771641D01*
X87960269Y-68597588D01*
X88036034Y-68513534D01*
X88060498Y-68594180D01*
X88119463Y-68704494D01*
X88198815Y-68801185D01*
X88295506Y-68880537D01*
X88405820Y-68939502D01*
X88525518Y-68975812D01*
X88650000Y-68988072D01*
X90350000Y-68988072D01*
X90474482Y-68975812D01*
X90594180Y-68939502D01*
X90704494Y-68880537D01*
X90801185Y-68801185D01*
X90880537Y-68704494D01*
X90939502Y-68594180D01*
X90975812Y-68474482D01*
X90988072Y-68350000D01*
X90988072Y-66650000D01*
X90975812Y-66525518D01*
X90939502Y-66405820D01*
X90936392Y-66400000D01*
X96761928Y-66400000D01*
X96761928Y-68100000D01*
X96774188Y-68224482D01*
X96810498Y-68344180D01*
X96869463Y-68454494D01*
X96948815Y-68551185D01*
X97045506Y-68630537D01*
X97155820Y-68689502D01*
X97275518Y-68725812D01*
X97400000Y-68738072D01*
X99100000Y-68738072D01*
X99224482Y-68725812D01*
X99344180Y-68689502D01*
X99454494Y-68630537D01*
X99551185Y-68551185D01*
X99630537Y-68454494D01*
X99689502Y-68344180D01*
X99711513Y-68271620D01*
X99843368Y-68403475D01*
X100086589Y-68565990D01*
X100356842Y-68677932D01*
X100643740Y-68735000D01*
X100936260Y-68735000D01*
X101223158Y-68677932D01*
X101493411Y-68565990D01*
X101736632Y-68403475D01*
X101943475Y-68196632D01*
X102065195Y-68014466D01*
X102134822Y-68131355D01*
X102329731Y-68347588D01*
X102563080Y-68521641D01*
X102825901Y-68646825D01*
X102973110Y-68691476D01*
X103203000Y-68570155D01*
X103203000Y-67377000D01*
X103183000Y-67377000D01*
X103183000Y-67123000D01*
X103203000Y-67123000D01*
X103203000Y-65929845D01*
X103457000Y-65929845D01*
X103457000Y-67123000D01*
X103477000Y-67123000D01*
X103477000Y-67377000D01*
X103457000Y-67377000D01*
X103457000Y-68570155D01*
X103686890Y-68691476D01*
X103834099Y-68646825D01*
X104096920Y-68521641D01*
X104330269Y-68347588D01*
X104525178Y-68131355D01*
X104594805Y-68014466D01*
X104716525Y-68196632D01*
X104923368Y-68403475D01*
X105166589Y-68565990D01*
X105436842Y-68677932D01*
X105723740Y-68735000D01*
X106016260Y-68735000D01*
X106303158Y-68677932D01*
X106573411Y-68565990D01*
X106816632Y-68403475D01*
X107023475Y-68196632D01*
X107140000Y-68022240D01*
X107256525Y-68196632D01*
X107463368Y-68403475D01*
X107706589Y-68565990D01*
X107976842Y-68677932D01*
X108263740Y-68735000D01*
X108556260Y-68735000D01*
X108843158Y-68677932D01*
X109113411Y-68565990D01*
X109356632Y-68403475D01*
X109563475Y-68196632D01*
X109725990Y-67953411D01*
X109764010Y-67861620D01*
X118345000Y-67861620D01*
X118345000Y-68138380D01*
X118398994Y-68409823D01*
X118504905Y-68665517D01*
X118658665Y-68895635D01*
X118854365Y-69091335D01*
X119084483Y-69245095D01*
X119340177Y-69351006D01*
X119611620Y-69405000D01*
X119888380Y-69405000D01*
X120159823Y-69351006D01*
X120415517Y-69245095D01*
X120645635Y-69091335D01*
X120765692Y-68971278D01*
X123458327Y-68971278D01*
X123526276Y-69212187D01*
X123776668Y-69330087D01*
X124045250Y-69396872D01*
X124321701Y-69409977D01*
X124595395Y-69368896D01*
X124855817Y-69275210D01*
X124973724Y-69212187D01*
X125041673Y-68971278D01*
X124250000Y-68179605D01*
X123458327Y-68971278D01*
X120765692Y-68971278D01*
X120841335Y-68895635D01*
X120995095Y-68665517D01*
X121101006Y-68409823D01*
X121155000Y-68138380D01*
X121155000Y-68071701D01*
X122840023Y-68071701D01*
X122881104Y-68345395D01*
X122974790Y-68605817D01*
X123037813Y-68723724D01*
X123278722Y-68791673D01*
X124070395Y-68000000D01*
X124429605Y-68000000D01*
X125221278Y-68791673D01*
X125462187Y-68723724D01*
X125580087Y-68473332D01*
X125646872Y-68204750D01*
X125659977Y-67928299D01*
X125618896Y-67654605D01*
X125525210Y-67394183D01*
X125462187Y-67276276D01*
X125221278Y-67208327D01*
X124429605Y-68000000D01*
X124070395Y-68000000D01*
X123278722Y-67208327D01*
X123037813Y-67276276D01*
X122919913Y-67526668D01*
X122853128Y-67795250D01*
X122840023Y-68071701D01*
X121155000Y-68071701D01*
X121155000Y-67861620D01*
X121101006Y-67590177D01*
X120995095Y-67334483D01*
X120841335Y-67104365D01*
X120765692Y-67028722D01*
X123458327Y-67028722D01*
X124250000Y-67820395D01*
X125041673Y-67028722D01*
X124973724Y-66787813D01*
X124723332Y-66669913D01*
X124454750Y-66603128D01*
X124178299Y-66590023D01*
X123904605Y-66631104D01*
X123644183Y-66724790D01*
X123526276Y-66787813D01*
X123458327Y-67028722D01*
X120765692Y-67028722D01*
X120645635Y-66908665D01*
X120415517Y-66754905D01*
X120159823Y-66648994D01*
X119888380Y-66595000D01*
X119611620Y-66595000D01*
X119340177Y-66648994D01*
X119084483Y-66754905D01*
X118854365Y-66908665D01*
X118658665Y-67104365D01*
X118504905Y-67334483D01*
X118398994Y-67590177D01*
X118345000Y-67861620D01*
X109764010Y-67861620D01*
X109837932Y-67683158D01*
X109895000Y-67396260D01*
X109895000Y-67103740D01*
X109837932Y-66816842D01*
X109725990Y-66546589D01*
X109563475Y-66303368D01*
X109356632Y-66096525D01*
X109113411Y-65934010D01*
X108843158Y-65822068D01*
X108556260Y-65765000D01*
X108263740Y-65765000D01*
X107976842Y-65822068D01*
X107706589Y-65934010D01*
X107463368Y-66096525D01*
X107256525Y-66303368D01*
X107140000Y-66477760D01*
X107023475Y-66303368D01*
X106816632Y-66096525D01*
X106573411Y-65934010D01*
X106303158Y-65822068D01*
X106016260Y-65765000D01*
X105723740Y-65765000D01*
X105436842Y-65822068D01*
X105166589Y-65934010D01*
X104923368Y-66096525D01*
X104716525Y-66303368D01*
X104594805Y-66485534D01*
X104525178Y-66368645D01*
X104330269Y-66152412D01*
X104096920Y-65978359D01*
X103834099Y-65853175D01*
X103686890Y-65808524D01*
X103457000Y-65929845D01*
X103203000Y-65929845D01*
X102973110Y-65808524D01*
X102825901Y-65853175D01*
X102563080Y-65978359D01*
X102329731Y-66152412D01*
X102134822Y-66368645D01*
X102065195Y-66485534D01*
X101943475Y-66303368D01*
X101736632Y-66096525D01*
X101493411Y-65934010D01*
X101223158Y-65822068D01*
X100936260Y-65765000D01*
X100643740Y-65765000D01*
X100356842Y-65822068D01*
X100086589Y-65934010D01*
X99843368Y-66096525D01*
X99711513Y-66228380D01*
X99689502Y-66155820D01*
X99630537Y-66045506D01*
X99551185Y-65948815D01*
X99454494Y-65869463D01*
X99344180Y-65810498D01*
X99224482Y-65774188D01*
X99100000Y-65761928D01*
X97400000Y-65761928D01*
X97275518Y-65774188D01*
X97155820Y-65810498D01*
X97045506Y-65869463D01*
X96948815Y-65948815D01*
X96869463Y-66045506D01*
X96810498Y-66155820D01*
X96774188Y-66275518D01*
X96761928Y-66400000D01*
X90936392Y-66400000D01*
X90880537Y-66295506D01*
X90801185Y-66198815D01*
X90704494Y-66119463D01*
X90594180Y-66060498D01*
X90474482Y-66024188D01*
X90350000Y-66011928D01*
X88650000Y-66011928D01*
X88525518Y-66024188D01*
X88405820Y-66060498D01*
X88295506Y-66119463D01*
X88198815Y-66198815D01*
X88119463Y-66295506D01*
X88060498Y-66405820D01*
X88036034Y-66486466D01*
X87960269Y-66402412D01*
X87726920Y-66228359D01*
X87464099Y-66103175D01*
X87316890Y-66058524D01*
X87087000Y-66179845D01*
X86833000Y-66179845D01*
X86603110Y-66058524D01*
X86455901Y-66103175D01*
X86193080Y-66228359D01*
X85959731Y-66402412D01*
X85764822Y-66618645D01*
X85615843Y-66868748D01*
X85518519Y-67143109D01*
X81660000Y-67143109D01*
X81660000Y-64910000D01*
X128340001Y-64910000D01*
X128340000Y-103623000D01*
G04 #@! TA.AperFunction,Conductor*
D17*
G36*
X128340000Y-103623000D02*
G01*
X81660000Y-103623000D01*
X81660000Y-98134997D01*
X99346928Y-98134997D01*
X99346928Y-99365003D01*
X99363992Y-99538257D01*
X99414528Y-99704852D01*
X99496595Y-99858388D01*
X99607037Y-99992963D01*
X99741612Y-100103405D01*
X99895148Y-100185472D01*
X100061743Y-100236008D01*
X100234997Y-100253072D01*
X100765003Y-100253072D01*
X100938257Y-100236008D01*
X101104852Y-100185472D01*
X101258388Y-100103405D01*
X101334144Y-100041234D01*
X101358004Y-100060816D01*
X101557786Y-100167602D01*
X101774562Y-100233360D01*
X102000000Y-100255564D01*
X102225439Y-100233360D01*
X102442215Y-100167602D01*
X102641997Y-100060816D01*
X102750001Y-99972180D01*
X102858004Y-100060816D01*
X103057786Y-100167602D01*
X103274562Y-100233360D01*
X103500000Y-100255564D01*
X103725439Y-100233360D01*
X103942215Y-100167602D01*
X104141997Y-100060816D01*
X104317107Y-99917107D01*
X104460816Y-99741997D01*
X104567602Y-99542215D01*
X104633360Y-99325438D01*
X104650000Y-99156491D01*
X104650000Y-98343508D01*
X104633360Y-98174561D01*
X104567602Y-97957785D01*
X104460816Y-97758003D01*
X104317107Y-97582893D01*
X104141996Y-97439184D01*
X103942214Y-97332398D01*
X103725438Y-97266640D01*
X103500000Y-97244436D01*
X103274561Y-97266640D01*
X103057785Y-97332398D01*
X102858003Y-97439184D01*
X102750000Y-97527820D01*
X102641996Y-97439184D01*
X102442214Y-97332398D01*
X102225438Y-97266640D01*
X102000000Y-97244436D01*
X101774561Y-97266640D01*
X101557785Y-97332398D01*
X101358003Y-97439184D01*
X101334143Y-97458765D01*
X101258388Y-97396595D01*
X101104852Y-97314528D01*
X100938257Y-97263992D01*
X100765003Y-97246928D01*
X100234997Y-97246928D01*
X100061743Y-97263992D01*
X99895148Y-97314528D01*
X99741612Y-97396595D01*
X99607037Y-97507037D01*
X99496595Y-97641612D01*
X99414528Y-97795148D01*
X99363992Y-97961743D01*
X99346928Y-98134997D01*
X81660000Y-98134997D01*
X81660000Y-92148061D01*
X94215000Y-92148061D01*
X94215000Y-92351939D01*
X94254774Y-92551898D01*
X94332795Y-92740256D01*
X94446063Y-92909774D01*
X94590226Y-93053937D01*
X94759744Y-93167205D01*
X94948102Y-93245226D01*
X95148061Y-93285000D01*
X95210199Y-93285000D01*
X95686200Y-93761002D01*
X95709999Y-93790001D01*
X95738997Y-93813799D01*
X95825724Y-93884974D01*
X95957753Y-93955546D01*
X96101014Y-93999003D01*
X96250000Y-94013677D01*
X96287333Y-94010000D01*
X107345987Y-94010000D01*
X107446063Y-94159774D01*
X107590226Y-94303937D01*
X107759744Y-94417205D01*
X107948102Y-94495226D01*
X108148061Y-94535000D01*
X108351939Y-94535000D01*
X108551898Y-94495226D01*
X108740256Y-94417205D01*
X108909774Y-94303937D01*
X109053937Y-94159774D01*
X109167205Y-93990256D01*
X109245226Y-93801898D01*
X109285000Y-93601939D01*
X109285000Y-93398061D01*
X109245226Y-93198102D01*
X109167205Y-93009744D01*
X109053937Y-92840226D01*
X108909774Y-92696063D01*
X108740256Y-92582795D01*
X108551898Y-92504774D01*
X108351939Y-92465000D01*
X108148061Y-92465000D01*
X108027326Y-92489015D01*
X108000000Y-92486324D01*
X107962678Y-92490000D01*
X96564802Y-92490000D01*
X96285000Y-92210199D01*
X96285000Y-92148061D01*
X96245226Y-91948102D01*
X96167205Y-91759744D01*
X96053937Y-91590226D01*
X95909774Y-91446063D01*
X95740256Y-91332795D01*
X95551898Y-91254774D01*
X95351939Y-91215000D01*
X95148061Y-91215000D01*
X94948102Y-91254774D01*
X94759744Y-91332795D01*
X94590226Y-91446063D01*
X94446063Y-91590226D01*
X94332795Y-91759744D01*
X94254774Y-91948102D01*
X94215000Y-92148061D01*
X81660000Y-92148061D01*
X81660000Y-85648061D01*
X113965000Y-85648061D01*
X113965000Y-85851939D01*
X114004774Y-86051898D01*
X114082795Y-86240256D01*
X114196063Y-86409774D01*
X114240001Y-86453712D01*
X114240000Y-96296289D01*
X114196063Y-96340226D01*
X114082795Y-96509744D01*
X114004774Y-96698102D01*
X113965000Y-96898061D01*
X113965000Y-97101939D01*
X114004774Y-97301898D01*
X114082795Y-97490256D01*
X114196063Y-97659774D01*
X114340226Y-97803937D01*
X114509744Y-97917205D01*
X114698102Y-97995226D01*
X114898061Y-98035000D01*
X115101939Y-98035000D01*
X115301898Y-97995226D01*
X115490256Y-97917205D01*
X115659774Y-97803937D01*
X115803937Y-97659774D01*
X115917205Y-97490256D01*
X115995226Y-97301898D01*
X116035000Y-97101939D01*
X116035000Y-96898061D01*
X115995226Y-96698102D01*
X115917205Y-96509744D01*
X115803937Y-96340226D01*
X115760000Y-96296289D01*
X115760000Y-90593137D01*
X122665000Y-90593137D01*
X122665000Y-90806863D01*
X122706696Y-91016483D01*
X122788485Y-91213940D01*
X122907225Y-91391647D01*
X123058353Y-91542775D01*
X123236060Y-91661515D01*
X123433517Y-91743304D01*
X123643137Y-91785000D01*
X123856863Y-91785000D01*
X124066483Y-91743304D01*
X124263940Y-91661515D01*
X124441647Y-91542775D01*
X124592775Y-91391647D01*
X124711515Y-91213940D01*
X124793304Y-91016483D01*
X124835000Y-90806863D01*
X124835000Y-90593137D01*
X124793304Y-90383517D01*
X124711515Y-90186060D01*
X124592775Y-90008353D01*
X124441647Y-89857225D01*
X124263940Y-89738485D01*
X124066483Y-89656696D01*
X123856863Y-89615000D01*
X123643137Y-89615000D01*
X123433517Y-89656696D01*
X123236060Y-89738485D01*
X123058353Y-89857225D01*
X122907225Y-90008353D01*
X122788485Y-90186060D01*
X122706696Y-90383517D01*
X122665000Y-90593137D01*
X115760000Y-90593137D01*
X115760000Y-86453711D01*
X115803937Y-86409774D01*
X115917205Y-86240256D01*
X115936722Y-86193137D01*
X122665000Y-86193137D01*
X122665000Y-86406863D01*
X122706696Y-86616483D01*
X122788485Y-86813940D01*
X122907225Y-86991647D01*
X123058353Y-87142775D01*
X123236060Y-87261515D01*
X123433517Y-87343304D01*
X123643137Y-87385000D01*
X123856863Y-87385000D01*
X124066483Y-87343304D01*
X124263940Y-87261515D01*
X124441647Y-87142775D01*
X124592775Y-86991647D01*
X124711515Y-86813940D01*
X124793304Y-86616483D01*
X124835000Y-86406863D01*
X124835000Y-86193137D01*
X124793304Y-85983517D01*
X124711515Y-85786060D01*
X124592775Y-85608353D01*
X124441647Y-85457225D01*
X124263940Y-85338485D01*
X124066483Y-85256696D01*
X123856863Y-85215000D01*
X123643137Y-85215000D01*
X123433517Y-85256696D01*
X123236060Y-85338485D01*
X123058353Y-85457225D01*
X122907225Y-85608353D01*
X122788485Y-85786060D01*
X122706696Y-85983517D01*
X122665000Y-86193137D01*
X115936722Y-86193137D01*
X115995226Y-86051898D01*
X116035000Y-85851939D01*
X116035000Y-85648061D01*
X115995226Y-85448102D01*
X115917205Y-85259744D01*
X115803937Y-85090226D01*
X115659774Y-84946063D01*
X115490256Y-84832795D01*
X115301898Y-84754774D01*
X115101939Y-84715000D01*
X114898061Y-84715000D01*
X114698102Y-84754774D01*
X114509744Y-84832795D01*
X114340226Y-84946063D01*
X114196063Y-85090226D01*
X114082795Y-85259744D01*
X114004774Y-85448102D01*
X113965000Y-85648061D01*
X81660000Y-85648061D01*
X81660000Y-72320000D01*
X85261928Y-72320000D01*
X85261928Y-74020000D01*
X85274188Y-74144482D01*
X85310498Y-74264180D01*
X85369463Y-74374494D01*
X85448815Y-74471185D01*
X85545506Y-74550537D01*
X85655820Y-74609502D01*
X85728380Y-74631513D01*
X85596525Y-74763368D01*
X85434010Y-75006589D01*
X85322068Y-75276842D01*
X85265000Y-75563740D01*
X85265000Y-75856260D01*
X85322068Y-76143158D01*
X85434010Y-76413411D01*
X85596525Y-76656632D01*
X85803368Y-76863475D01*
X85977760Y-76980000D01*
X85803368Y-77096525D01*
X85596525Y-77303368D01*
X85434010Y-77546589D01*
X85322068Y-77816842D01*
X85265000Y-78103740D01*
X85265000Y-78396260D01*
X85322068Y-78683158D01*
X85434010Y-78953411D01*
X85596525Y-79196632D01*
X85803368Y-79403475D01*
X85977760Y-79520000D01*
X85803368Y-79636525D01*
X85596525Y-79843368D01*
X85434010Y-80086589D01*
X85322068Y-80356842D01*
X85265000Y-80643740D01*
X85265000Y-80936260D01*
X85322068Y-81223158D01*
X85434010Y-81493411D01*
X85596525Y-81736632D01*
X85803368Y-81943475D01*
X86046589Y-82105990D01*
X86316842Y-82217932D01*
X86603740Y-82275000D01*
X86896260Y-82275000D01*
X87183158Y-82217932D01*
X87453411Y-82105990D01*
X87696632Y-81943475D01*
X87903475Y-81736632D01*
X88065990Y-81493411D01*
X88177932Y-81223158D01*
X88235000Y-80936260D01*
X88235000Y-80650000D01*
X112261928Y-80650000D01*
X112261928Y-82350000D01*
X112274188Y-82474482D01*
X112310498Y-82594180D01*
X112369463Y-82704494D01*
X112448815Y-82801185D01*
X112545506Y-82880537D01*
X112655820Y-82939502D01*
X112775518Y-82975812D01*
X112900000Y-82988072D01*
X114600000Y-82988072D01*
X114724482Y-82975812D01*
X114844180Y-82939502D01*
X114954494Y-82880537D01*
X115051185Y-82801185D01*
X115130537Y-82704494D01*
X115189502Y-82594180D01*
X115225812Y-82474482D01*
X115238072Y-82350000D01*
X115238072Y-80650000D01*
X115225812Y-80525518D01*
X115189502Y-80405820D01*
X115130537Y-80295506D01*
X115051185Y-80198815D01*
X114954494Y-80119463D01*
X114844180Y-80060498D01*
X114771620Y-80038487D01*
X114903475Y-79906632D01*
X115065990Y-79663411D01*
X115177932Y-79393158D01*
X115235000Y-79106260D01*
X115235000Y-78813740D01*
X115177932Y-78526842D01*
X115065990Y-78256589D01*
X114903475Y-78013368D01*
X114696632Y-77806525D01*
X114522240Y-77690000D01*
X114696632Y-77573475D01*
X114903475Y-77366632D01*
X115065990Y-77123411D01*
X115177932Y-76853158D01*
X115235000Y-76566260D01*
X115235000Y-76273740D01*
X115177932Y-75986842D01*
X115065990Y-75716589D01*
X114903475Y-75473368D01*
X114696632Y-75266525D01*
X114522240Y-75150000D01*
X114696632Y-75033475D01*
X114903475Y-74826632D01*
X115065990Y-74583411D01*
X115157858Y-74361620D01*
X118345000Y-74361620D01*
X118345000Y-74638380D01*
X118398994Y-74909823D01*
X118504905Y-75165517D01*
X118658665Y-75395635D01*
X118854365Y-75591335D01*
X119084483Y-75745095D01*
X119340177Y-75851006D01*
X119611620Y-75905000D01*
X119888380Y-75905000D01*
X120159823Y-75851006D01*
X120415517Y-75745095D01*
X120645635Y-75591335D01*
X120765692Y-75471278D01*
X123458327Y-75471278D01*
X123526276Y-75712187D01*
X123776668Y-75830087D01*
X124045250Y-75896872D01*
X124321701Y-75909977D01*
X124595395Y-75868896D01*
X124855817Y-75775210D01*
X124973724Y-75712187D01*
X125041673Y-75471278D01*
X124250000Y-74679605D01*
X123458327Y-75471278D01*
X120765692Y-75471278D01*
X120841335Y-75395635D01*
X120995095Y-75165517D01*
X121101006Y-74909823D01*
X121155000Y-74638380D01*
X121155000Y-74571701D01*
X122840023Y-74571701D01*
X122881104Y-74845395D01*
X122974790Y-75105817D01*
X123037813Y-75223724D01*
X123278722Y-75291673D01*
X124070395Y-74500000D01*
X124429605Y-74500000D01*
X125221278Y-75291673D01*
X125462187Y-75223724D01*
X125580087Y-74973332D01*
X125646872Y-74704750D01*
X125659977Y-74428299D01*
X125618896Y-74154605D01*
X125525210Y-73894183D01*
X125462187Y-73776276D01*
X125221278Y-73708327D01*
X124429605Y-74500000D01*
X124070395Y-74500000D01*
X123278722Y-73708327D01*
X123037813Y-73776276D01*
X122919913Y-74026668D01*
X122853128Y-74295250D01*
X122840023Y-74571701D01*
X121155000Y-74571701D01*
X121155000Y-74361620D01*
X121101006Y-74090177D01*
X120995095Y-73834483D01*
X120841335Y-73604365D01*
X120765692Y-73528722D01*
X123458327Y-73528722D01*
X124250000Y-74320395D01*
X125041673Y-73528722D01*
X124973724Y-73287813D01*
X124723332Y-73169913D01*
X124454750Y-73103128D01*
X124178299Y-73090023D01*
X123904605Y-73131104D01*
X123644183Y-73224790D01*
X123526276Y-73287813D01*
X123458327Y-73528722D01*
X120765692Y-73528722D01*
X120645635Y-73408665D01*
X120415517Y-73254905D01*
X120159823Y-73148994D01*
X119888380Y-73095000D01*
X119611620Y-73095000D01*
X119340177Y-73148994D01*
X119084483Y-73254905D01*
X118854365Y-73408665D01*
X118658665Y-73604365D01*
X118504905Y-73834483D01*
X118398994Y-74090177D01*
X118345000Y-74361620D01*
X115157858Y-74361620D01*
X115177932Y-74313158D01*
X115235000Y-74026260D01*
X115235000Y-73733740D01*
X115177932Y-73446842D01*
X115065990Y-73176589D01*
X114903475Y-72933368D01*
X114696632Y-72726525D01*
X114453411Y-72564010D01*
X114183158Y-72452068D01*
X113896260Y-72395000D01*
X113603740Y-72395000D01*
X113316842Y-72452068D01*
X113046589Y-72564010D01*
X112803368Y-72726525D01*
X112596525Y-72933368D01*
X112434010Y-73176589D01*
X112322068Y-73446842D01*
X112265000Y-73733740D01*
X112265000Y-74026260D01*
X112322068Y-74313158D01*
X112434010Y-74583411D01*
X112596525Y-74826632D01*
X112803368Y-75033475D01*
X112977760Y-75150000D01*
X112803368Y-75266525D01*
X112596525Y-75473368D01*
X112434010Y-75716589D01*
X112322068Y-75986842D01*
X112265000Y-76273740D01*
X112265000Y-76566260D01*
X112322068Y-76853158D01*
X112434010Y-77123411D01*
X112596525Y-77366632D01*
X112803368Y-77573475D01*
X112977760Y-77690000D01*
X112803368Y-77806525D01*
X112596525Y-78013368D01*
X112434010Y-78256589D01*
X112322068Y-78526842D01*
X112265000Y-78813740D01*
X112265000Y-79106260D01*
X112322068Y-79393158D01*
X112434010Y-79663411D01*
X112596525Y-79906632D01*
X112728380Y-80038487D01*
X112655820Y-80060498D01*
X112545506Y-80119463D01*
X112448815Y-80198815D01*
X112369463Y-80295506D01*
X112310498Y-80405820D01*
X112274188Y-80525518D01*
X112261928Y-80650000D01*
X88235000Y-80650000D01*
X88235000Y-80643740D01*
X88177932Y-80356842D01*
X88065990Y-80086589D01*
X87903475Y-79843368D01*
X87696632Y-79636525D01*
X87522240Y-79520000D01*
X87696632Y-79403475D01*
X87903475Y-79196632D01*
X88065990Y-78953411D01*
X88177932Y-78683158D01*
X88235000Y-78396260D01*
X88235000Y-78103740D01*
X88177932Y-77816842D01*
X88065990Y-77546589D01*
X87903475Y-77303368D01*
X87696632Y-77096525D01*
X87522240Y-76980000D01*
X87696632Y-76863475D01*
X87903475Y-76656632D01*
X88065990Y-76413411D01*
X88177932Y-76143158D01*
X88235000Y-75856260D01*
X88235000Y-75563740D01*
X88177932Y-75276842D01*
X88065990Y-75006589D01*
X87903475Y-74763368D01*
X87771620Y-74631513D01*
X87844180Y-74609502D01*
X87954494Y-74550537D01*
X88051185Y-74471185D01*
X88130537Y-74374494D01*
X88189502Y-74264180D01*
X88225812Y-74144482D01*
X88238072Y-74020000D01*
X88238072Y-72320000D01*
X88225812Y-72195518D01*
X88189502Y-72075820D01*
X88130537Y-71965506D01*
X88051185Y-71868815D01*
X87954494Y-71789463D01*
X87844180Y-71730498D01*
X87724482Y-71694188D01*
X87600000Y-71681928D01*
X85900000Y-71681928D01*
X85775518Y-71694188D01*
X85655820Y-71730498D01*
X85545506Y-71789463D01*
X85448815Y-71868815D01*
X85369463Y-71965506D01*
X85310498Y-72075820D01*
X85274188Y-72195518D01*
X85261928Y-72320000D01*
X81660000Y-72320000D01*
X81660000Y-67856891D01*
X85518519Y-67856891D01*
X85615843Y-68131252D01*
X85764822Y-68381355D01*
X85959731Y-68597588D01*
X86193080Y-68771641D01*
X86455901Y-68896825D01*
X86603110Y-68941476D01*
X86833000Y-68820155D01*
X86833000Y-67627000D01*
X85639186Y-67627000D01*
X85518519Y-67856891D01*
X81660000Y-67856891D01*
X81660000Y-67143109D01*
X85518519Y-67143109D01*
X85639186Y-67373000D01*
X86833000Y-67373000D01*
X86833000Y-66179845D01*
X87087000Y-66179845D01*
X87087000Y-67373000D01*
X87107000Y-67373000D01*
X87107000Y-67627000D01*
X87087000Y-67627000D01*
X87087000Y-68820155D01*
X87316890Y-68941476D01*
X87464099Y-68896825D01*
X87726920Y-68771641D01*
X87960269Y-68597588D01*
X88036034Y-68513534D01*
X88060498Y-68594180D01*
X88119463Y-68704494D01*
X88198815Y-68801185D01*
X88295506Y-68880537D01*
X88405820Y-68939502D01*
X88525518Y-68975812D01*
X88650000Y-68988072D01*
X90350000Y-68988072D01*
X90474482Y-68975812D01*
X90594180Y-68939502D01*
X90704494Y-68880537D01*
X90801185Y-68801185D01*
X90880537Y-68704494D01*
X90939502Y-68594180D01*
X90975812Y-68474482D01*
X90988072Y-68350000D01*
X90988072Y-66650000D01*
X90975812Y-66525518D01*
X90939502Y-66405820D01*
X90936392Y-66400000D01*
X96761928Y-66400000D01*
X96761928Y-68100000D01*
X96774188Y-68224482D01*
X96810498Y-68344180D01*
X96869463Y-68454494D01*
X96948815Y-68551185D01*
X97045506Y-68630537D01*
X97155820Y-68689502D01*
X97275518Y-68725812D01*
X97400000Y-68738072D01*
X99100000Y-68738072D01*
X99224482Y-68725812D01*
X99344180Y-68689502D01*
X99454494Y-68630537D01*
X99551185Y-68551185D01*
X99630537Y-68454494D01*
X99689502Y-68344180D01*
X99711513Y-68271620D01*
X99843368Y-68403475D01*
X100086589Y-68565990D01*
X100356842Y-68677932D01*
X100643740Y-68735000D01*
X100936260Y-68735000D01*
X101223158Y-68677932D01*
X101493411Y-68565990D01*
X101736632Y-68403475D01*
X101943475Y-68196632D01*
X102065195Y-68014466D01*
X102134822Y-68131355D01*
X102329731Y-68347588D01*
X102563080Y-68521641D01*
X102825901Y-68646825D01*
X102973110Y-68691476D01*
X103203000Y-68570155D01*
X103203000Y-67377000D01*
X103183000Y-67377000D01*
X103183000Y-67123000D01*
X103203000Y-67123000D01*
X103203000Y-65929845D01*
X103457000Y-65929845D01*
X103457000Y-67123000D01*
X103477000Y-67123000D01*
X103477000Y-67377000D01*
X103457000Y-67377000D01*
X103457000Y-68570155D01*
X103686890Y-68691476D01*
X103834099Y-68646825D01*
X104096920Y-68521641D01*
X104330269Y-68347588D01*
X104525178Y-68131355D01*
X104594805Y-68014466D01*
X104716525Y-68196632D01*
X104923368Y-68403475D01*
X105166589Y-68565990D01*
X105436842Y-68677932D01*
X105723740Y-68735000D01*
X106016260Y-68735000D01*
X106303158Y-68677932D01*
X106573411Y-68565990D01*
X106816632Y-68403475D01*
X107023475Y-68196632D01*
X107140000Y-68022240D01*
X107256525Y-68196632D01*
X107463368Y-68403475D01*
X107706589Y-68565990D01*
X107976842Y-68677932D01*
X108263740Y-68735000D01*
X108556260Y-68735000D01*
X108843158Y-68677932D01*
X109113411Y-68565990D01*
X109356632Y-68403475D01*
X109563475Y-68196632D01*
X109725990Y-67953411D01*
X109764010Y-67861620D01*
X118345000Y-67861620D01*
X118345000Y-68138380D01*
X118398994Y-68409823D01*
X118504905Y-68665517D01*
X118658665Y-68895635D01*
X118854365Y-69091335D01*
X119084483Y-69245095D01*
X119340177Y-69351006D01*
X119611620Y-69405000D01*
X119888380Y-69405000D01*
X120159823Y-69351006D01*
X120415517Y-69245095D01*
X120645635Y-69091335D01*
X120765692Y-68971278D01*
X123458327Y-68971278D01*
X123526276Y-69212187D01*
X123776668Y-69330087D01*
X124045250Y-69396872D01*
X124321701Y-69409977D01*
X124595395Y-69368896D01*
X124855817Y-69275210D01*
X124973724Y-69212187D01*
X125041673Y-68971278D01*
X124250000Y-68179605D01*
X123458327Y-68971278D01*
X120765692Y-68971278D01*
X120841335Y-68895635D01*
X120995095Y-68665517D01*
X121101006Y-68409823D01*
X121155000Y-68138380D01*
X121155000Y-68071701D01*
X122840023Y-68071701D01*
X122881104Y-68345395D01*
X122974790Y-68605817D01*
X123037813Y-68723724D01*
X123278722Y-68791673D01*
X124070395Y-68000000D01*
X124429605Y-68000000D01*
X125221278Y-68791673D01*
X125462187Y-68723724D01*
X125580087Y-68473332D01*
X125646872Y-68204750D01*
X125659977Y-67928299D01*
X125618896Y-67654605D01*
X125525210Y-67394183D01*
X125462187Y-67276276D01*
X125221278Y-67208327D01*
X124429605Y-68000000D01*
X124070395Y-68000000D01*
X123278722Y-67208327D01*
X123037813Y-67276276D01*
X122919913Y-67526668D01*
X122853128Y-67795250D01*
X122840023Y-68071701D01*
X121155000Y-68071701D01*
X121155000Y-67861620D01*
X121101006Y-67590177D01*
X120995095Y-67334483D01*
X120841335Y-67104365D01*
X120765692Y-67028722D01*
X123458327Y-67028722D01*
X124250000Y-67820395D01*
X125041673Y-67028722D01*
X124973724Y-66787813D01*
X124723332Y-66669913D01*
X124454750Y-66603128D01*
X124178299Y-66590023D01*
X123904605Y-66631104D01*
X123644183Y-66724790D01*
X123526276Y-66787813D01*
X123458327Y-67028722D01*
X120765692Y-67028722D01*
X120645635Y-66908665D01*
X120415517Y-66754905D01*
X120159823Y-66648994D01*
X119888380Y-66595000D01*
X119611620Y-66595000D01*
X119340177Y-66648994D01*
X119084483Y-66754905D01*
X118854365Y-66908665D01*
X118658665Y-67104365D01*
X118504905Y-67334483D01*
X118398994Y-67590177D01*
X118345000Y-67861620D01*
X109764010Y-67861620D01*
X109837932Y-67683158D01*
X109895000Y-67396260D01*
X109895000Y-67103740D01*
X109837932Y-66816842D01*
X109725990Y-66546589D01*
X109563475Y-66303368D01*
X109356632Y-66096525D01*
X109113411Y-65934010D01*
X108843158Y-65822068D01*
X108556260Y-65765000D01*
X108263740Y-65765000D01*
X107976842Y-65822068D01*
X107706589Y-65934010D01*
X107463368Y-66096525D01*
X107256525Y-66303368D01*
X107140000Y-66477760D01*
X107023475Y-66303368D01*
X106816632Y-66096525D01*
X106573411Y-65934010D01*
X106303158Y-65822068D01*
X106016260Y-65765000D01*
X105723740Y-65765000D01*
X105436842Y-65822068D01*
X105166589Y-65934010D01*
X104923368Y-66096525D01*
X104716525Y-66303368D01*
X104594805Y-66485534D01*
X104525178Y-66368645D01*
X104330269Y-66152412D01*
X104096920Y-65978359D01*
X103834099Y-65853175D01*
X103686890Y-65808524D01*
X103457000Y-65929845D01*
X103203000Y-65929845D01*
X102973110Y-65808524D01*
X102825901Y-65853175D01*
X102563080Y-65978359D01*
X102329731Y-66152412D01*
X102134822Y-66368645D01*
X102065195Y-66485534D01*
X101943475Y-66303368D01*
X101736632Y-66096525D01*
X101493411Y-65934010D01*
X101223158Y-65822068D01*
X100936260Y-65765000D01*
X100643740Y-65765000D01*
X100356842Y-65822068D01*
X100086589Y-65934010D01*
X99843368Y-66096525D01*
X99711513Y-66228380D01*
X99689502Y-66155820D01*
X99630537Y-66045506D01*
X99551185Y-65948815D01*
X99454494Y-65869463D01*
X99344180Y-65810498D01*
X99224482Y-65774188D01*
X99100000Y-65761928D01*
X97400000Y-65761928D01*
X97275518Y-65774188D01*
X97155820Y-65810498D01*
X97045506Y-65869463D01*
X96948815Y-65948815D01*
X96869463Y-66045506D01*
X96810498Y-66155820D01*
X96774188Y-66275518D01*
X96761928Y-66400000D01*
X90936392Y-66400000D01*
X90880537Y-66295506D01*
X90801185Y-66198815D01*
X90704494Y-66119463D01*
X90594180Y-66060498D01*
X90474482Y-66024188D01*
X90350000Y-66011928D01*
X88650000Y-66011928D01*
X88525518Y-66024188D01*
X88405820Y-66060498D01*
X88295506Y-66119463D01*
X88198815Y-66198815D01*
X88119463Y-66295506D01*
X88060498Y-66405820D01*
X88036034Y-66486466D01*
X87960269Y-66402412D01*
X87726920Y-66228359D01*
X87464099Y-66103175D01*
X87316890Y-66058524D01*
X87087000Y-66179845D01*
X86833000Y-66179845D01*
X86603110Y-66058524D01*
X86455901Y-66103175D01*
X86193080Y-66228359D01*
X85959731Y-66402412D01*
X85764822Y-66618645D01*
X85615843Y-66868748D01*
X85518519Y-67143109D01*
X81660000Y-67143109D01*
X81660000Y-64910000D01*
X128340001Y-64910000D01*
X128340000Y-103623000D01*
G37*
G04 #@! TD.AperFunction*
D16*
X128340000Y-130340000D02*
X88127000Y-130340000D01*
X88127000Y-128971278D01*
X90458327Y-128971278D01*
X90526276Y-129212187D01*
X90776668Y-129330087D01*
X91045250Y-129396872D01*
X91321701Y-129409977D01*
X91595395Y-129368896D01*
X91855817Y-129275210D01*
X91973724Y-129212187D01*
X92041673Y-128971278D01*
X96958327Y-128971278D01*
X97026276Y-129212187D01*
X97276668Y-129330087D01*
X97545250Y-129396872D01*
X97821701Y-129409977D01*
X98095395Y-129368896D01*
X98355817Y-129275210D01*
X98473724Y-129212187D01*
X98541673Y-128971278D01*
X97750000Y-128179605D01*
X96958327Y-128971278D01*
X92041673Y-128971278D01*
X91250000Y-128179605D01*
X90458327Y-128971278D01*
X88127000Y-128971278D01*
X88127000Y-128071701D01*
X89840023Y-128071701D01*
X89881104Y-128345395D01*
X89974790Y-128605817D01*
X90037813Y-128723724D01*
X90278722Y-128791673D01*
X91070395Y-128000000D01*
X91429605Y-128000000D01*
X92221278Y-128791673D01*
X92462187Y-128723724D01*
X92580087Y-128473332D01*
X92646872Y-128204750D01*
X92653179Y-128071701D01*
X96340023Y-128071701D01*
X96381104Y-128345395D01*
X96474790Y-128605817D01*
X96537813Y-128723724D01*
X96778722Y-128791673D01*
X97570395Y-128000000D01*
X97929605Y-128000000D01*
X98721278Y-128791673D01*
X98962187Y-128723724D01*
X99080087Y-128473332D01*
X99146872Y-128204750D01*
X99159977Y-127928299D01*
X99118896Y-127654605D01*
X99025210Y-127394183D01*
X98962187Y-127276276D01*
X98721278Y-127208327D01*
X97929605Y-128000000D01*
X97570395Y-128000000D01*
X96778722Y-127208327D01*
X96537813Y-127276276D01*
X96419913Y-127526668D01*
X96353128Y-127795250D01*
X96340023Y-128071701D01*
X92653179Y-128071701D01*
X92659977Y-127928299D01*
X92618896Y-127654605D01*
X92525210Y-127394183D01*
X92462187Y-127276276D01*
X92221278Y-127208327D01*
X91429605Y-128000000D01*
X91070395Y-128000000D01*
X90278722Y-127208327D01*
X90037813Y-127276276D01*
X89919913Y-127526668D01*
X89853128Y-127795250D01*
X89840023Y-128071701D01*
X88127000Y-128071701D01*
X88127000Y-127028722D01*
X90458327Y-127028722D01*
X91250000Y-127820395D01*
X92041673Y-127028722D01*
X96958327Y-127028722D01*
X97750000Y-127820395D01*
X98541673Y-127028722D01*
X98473724Y-126787813D01*
X98223332Y-126669913D01*
X97954750Y-126603128D01*
X97678299Y-126590023D01*
X97404605Y-126631104D01*
X97144183Y-126724790D01*
X97026276Y-126787813D01*
X96958327Y-127028722D01*
X92041673Y-127028722D01*
X91973724Y-126787813D01*
X91723332Y-126669913D01*
X91454750Y-126603128D01*
X91178299Y-126590023D01*
X90904605Y-126631104D01*
X90644183Y-126724790D01*
X90526276Y-126787813D01*
X90458327Y-127028722D01*
X88127000Y-127028722D01*
X88127000Y-123361620D01*
X89845000Y-123361620D01*
X89845000Y-123638380D01*
X89898994Y-123909823D01*
X90004905Y-124165517D01*
X90158665Y-124395635D01*
X90354365Y-124591335D01*
X90584483Y-124745095D01*
X90840177Y-124851006D01*
X91111620Y-124905000D01*
X91388380Y-124905000D01*
X91659823Y-124851006D01*
X91915517Y-124745095D01*
X92145635Y-124591335D01*
X92341335Y-124395635D01*
X92495095Y-124165517D01*
X92601006Y-123909823D01*
X92655000Y-123638380D01*
X92655000Y-123361620D01*
X92601006Y-123090177D01*
X92495095Y-122834483D01*
X92341335Y-122604365D01*
X92145635Y-122408665D01*
X91915517Y-122254905D01*
X91659823Y-122148994D01*
X91388380Y-122095000D01*
X91111620Y-122095000D01*
X90840177Y-122148994D01*
X90584483Y-122254905D01*
X90354365Y-122408665D01*
X90158665Y-122604365D01*
X90004905Y-122834483D01*
X89898994Y-123090177D01*
X89845000Y-123361620D01*
X88127000Y-123361620D01*
X88127000Y-117150000D01*
X89261928Y-117150000D01*
X89261928Y-118850000D01*
X89274188Y-118974482D01*
X89310498Y-119094180D01*
X89369463Y-119204494D01*
X89448815Y-119301185D01*
X89545506Y-119380537D01*
X89655820Y-119439502D01*
X89775518Y-119475812D01*
X89900000Y-119488072D01*
X91600000Y-119488072D01*
X91724482Y-119475812D01*
X91844180Y-119439502D01*
X91954494Y-119380537D01*
X92051185Y-119301185D01*
X92130537Y-119204494D01*
X92189502Y-119094180D01*
X92225812Y-118974482D01*
X92238072Y-118850000D01*
X92238072Y-117150000D01*
X92225812Y-117025518D01*
X92189502Y-116905820D01*
X92130537Y-116795506D01*
X92051185Y-116698815D01*
X91954494Y-116619463D01*
X91844180Y-116560498D01*
X91771620Y-116538487D01*
X91903475Y-116406632D01*
X92065990Y-116163411D01*
X92177932Y-115893158D01*
X92235000Y-115606260D01*
X92235000Y-115313740D01*
X92177932Y-115026842D01*
X92065990Y-114756589D01*
X91903475Y-114513368D01*
X91696632Y-114306525D01*
X91514466Y-114184805D01*
X91631355Y-114115178D01*
X91847588Y-113920269D01*
X92021641Y-113686920D01*
X92146825Y-113424099D01*
X92191476Y-113276890D01*
X92070155Y-113047000D01*
X90877000Y-113047000D01*
X90877000Y-113067000D01*
X90623000Y-113067000D01*
X90623000Y-113047000D01*
X89429845Y-113047000D01*
X89308524Y-113276890D01*
X89353175Y-113424099D01*
X89478359Y-113686920D01*
X89652412Y-113920269D01*
X89868645Y-114115178D01*
X89985534Y-114184805D01*
X89803368Y-114306525D01*
X89596525Y-114513368D01*
X89434010Y-114756589D01*
X89322068Y-115026842D01*
X89265000Y-115313740D01*
X89265000Y-115606260D01*
X89322068Y-115893158D01*
X89434010Y-116163411D01*
X89596525Y-116406632D01*
X89728380Y-116538487D01*
X89655820Y-116560498D01*
X89545506Y-116619463D01*
X89448815Y-116698815D01*
X89369463Y-116795506D01*
X89310498Y-116905820D01*
X89274188Y-117025518D01*
X89261928Y-117150000D01*
X88127000Y-117150000D01*
X88127000Y-107693740D01*
X89265000Y-107693740D01*
X89265000Y-107986260D01*
X89322068Y-108273158D01*
X89434010Y-108543411D01*
X89596525Y-108786632D01*
X89803368Y-108993475D01*
X89977760Y-109110000D01*
X89803368Y-109226525D01*
X89596525Y-109433368D01*
X89434010Y-109676589D01*
X89322068Y-109946842D01*
X89265000Y-110233740D01*
X89265000Y-110526260D01*
X89322068Y-110813158D01*
X89434010Y-111083411D01*
X89596525Y-111326632D01*
X89803368Y-111533475D01*
X89985534Y-111655195D01*
X89868645Y-111724822D01*
X89652412Y-111919731D01*
X89478359Y-112153080D01*
X89353175Y-112415901D01*
X89308524Y-112563110D01*
X89429845Y-112793000D01*
X90623000Y-112793000D01*
X90623000Y-112773000D01*
X90877000Y-112773000D01*
X90877000Y-112793000D01*
X92070155Y-112793000D01*
X92191476Y-112563110D01*
X92146825Y-112415901D01*
X92021641Y-112153080D01*
X91847588Y-111919731D01*
X91631355Y-111724822D01*
X91514466Y-111655195D01*
X91696632Y-111533475D01*
X91730107Y-111500000D01*
X93236324Y-111500000D01*
X93240001Y-111537332D01*
X93240000Y-122462678D01*
X93236324Y-122500000D01*
X93240000Y-122537322D01*
X93240000Y-122537332D01*
X93250997Y-122648985D01*
X93283087Y-122754774D01*
X93294454Y-122792246D01*
X93365026Y-122924276D01*
X93404871Y-122972826D01*
X93459999Y-123040001D01*
X93489003Y-123063804D01*
X96686201Y-126261003D01*
X96709999Y-126290001D01*
X96738997Y-126313799D01*
X96825723Y-126384974D01*
X96957753Y-126455546D01*
X97101014Y-126499003D01*
X97212667Y-126510000D01*
X97212676Y-126510000D01*
X97249999Y-126513676D01*
X97287322Y-126510000D01*
X106462678Y-126510000D01*
X106500000Y-126513676D01*
X106537322Y-126510000D01*
X106537333Y-126510000D01*
X106648986Y-126499003D01*
X106792247Y-126455546D01*
X106924276Y-126384974D01*
X107040001Y-126290001D01*
X107063804Y-126260997D01*
X108539802Y-124785000D01*
X108601939Y-124785000D01*
X108801898Y-124745226D01*
X108990256Y-124667205D01*
X109159774Y-124553937D01*
X109303937Y-124409774D01*
X109417205Y-124240256D01*
X109495226Y-124051898D01*
X109535000Y-123851939D01*
X109535000Y-123648061D01*
X109495226Y-123448102D01*
X109417205Y-123259744D01*
X109303937Y-123090226D01*
X109159774Y-122946063D01*
X108990256Y-122832795D01*
X108801898Y-122754774D01*
X108601939Y-122715000D01*
X108398061Y-122715000D01*
X108198102Y-122754774D01*
X108009744Y-122832795D01*
X107840226Y-122946063D01*
X107696063Y-123090226D01*
X107582795Y-123259744D01*
X107504774Y-123448102D01*
X107465000Y-123648061D01*
X107465000Y-123710198D01*
X106185199Y-124990000D01*
X97564802Y-124990000D01*
X97447071Y-124872269D01*
X97611620Y-124905000D01*
X97888380Y-124905000D01*
X98159823Y-124851006D01*
X98415517Y-124745095D01*
X98645635Y-124591335D01*
X98841335Y-124395635D01*
X98995095Y-124165517D01*
X99101006Y-123909823D01*
X99155000Y-123638380D01*
X99155000Y-123361620D01*
X99101006Y-123090177D01*
X98995095Y-122834483D01*
X98841335Y-122604365D01*
X98645635Y-122408665D01*
X98510000Y-122318037D01*
X98510000Y-119814801D01*
X102814803Y-115510000D01*
X103046289Y-115510000D01*
X103090226Y-115553937D01*
X103259744Y-115667205D01*
X103448102Y-115745226D01*
X103648061Y-115785000D01*
X103851939Y-115785000D01*
X104051898Y-115745226D01*
X104240256Y-115667205D01*
X104409774Y-115553937D01*
X104553937Y-115409774D01*
X104667205Y-115240256D01*
X104745226Y-115051898D01*
X104785000Y-114851939D01*
X104785000Y-114648061D01*
X104745226Y-114448102D01*
X104667205Y-114259744D01*
X104553937Y-114090226D01*
X104409774Y-113946063D01*
X104240256Y-113832795D01*
X104051898Y-113754774D01*
X103851939Y-113715000D01*
X103648061Y-113715000D01*
X103448102Y-113754774D01*
X103259744Y-113832795D01*
X103090226Y-113946063D01*
X103046289Y-113990000D01*
X102537322Y-113990000D01*
X102499999Y-113986324D01*
X102462676Y-113990000D01*
X102462667Y-113990000D01*
X102351014Y-114000997D01*
X102207753Y-114044454D01*
X102075724Y-114115026D01*
X102075722Y-114115027D01*
X102075723Y-114115027D01*
X101988996Y-114186201D01*
X101988992Y-114186205D01*
X101959999Y-114209999D01*
X101936205Y-114238992D01*
X97238998Y-118936201D01*
X97210000Y-118959999D01*
X97186202Y-118988997D01*
X97186201Y-118988998D01*
X97119204Y-119070634D01*
X97042205Y-118884744D01*
X96928937Y-118715226D01*
X96885000Y-118671289D01*
X96885000Y-117939801D01*
X101564802Y-113260000D01*
X103296289Y-113260000D01*
X103340226Y-113303937D01*
X103509744Y-113417205D01*
X103698102Y-113495226D01*
X103898061Y-113535000D01*
X104101939Y-113535000D01*
X104301898Y-113495226D01*
X104490256Y-113417205D01*
X104659774Y-113303937D01*
X104703711Y-113260000D01*
X110185199Y-113260000D01*
X112990001Y-116064803D01*
X112990000Y-117296289D01*
X112946063Y-117340226D01*
X112832795Y-117509744D01*
X112754774Y-117698102D01*
X112715000Y-117898061D01*
X112715000Y-118101939D01*
X112754774Y-118301898D01*
X112832795Y-118490256D01*
X112946063Y-118659774D01*
X113090226Y-118803937D01*
X113259744Y-118917205D01*
X113448102Y-118995226D01*
X113648061Y-119035000D01*
X113851939Y-119035000D01*
X114051898Y-118995226D01*
X114240256Y-118917205D01*
X114409774Y-118803937D01*
X114553937Y-118659774D01*
X114667205Y-118490256D01*
X114745226Y-118301898D01*
X114785000Y-118101939D01*
X114785000Y-117898061D01*
X114745226Y-117698102D01*
X114667205Y-117509744D01*
X114553937Y-117340226D01*
X114510000Y-117296289D01*
X114510000Y-115787322D01*
X114513676Y-115749999D01*
X114510000Y-115712676D01*
X114510000Y-115712667D01*
X114499003Y-115601014D01*
X114455546Y-115457753D01*
X114454366Y-115455546D01*
X114384974Y-115325723D01*
X114313799Y-115238997D01*
X114290001Y-115209999D01*
X114261003Y-115186201D01*
X114167939Y-115093137D01*
X122415000Y-115093137D01*
X122415000Y-115306863D01*
X122456696Y-115516483D01*
X122538485Y-115713940D01*
X122657225Y-115891647D01*
X122808353Y-116042775D01*
X122986060Y-116161515D01*
X123183517Y-116243304D01*
X123393137Y-116285000D01*
X123606863Y-116285000D01*
X123816483Y-116243304D01*
X124013940Y-116161515D01*
X124191647Y-116042775D01*
X124342775Y-115891647D01*
X124461515Y-115713940D01*
X124543304Y-115516483D01*
X124585000Y-115306863D01*
X124585000Y-115093137D01*
X124543304Y-114883517D01*
X124461515Y-114686060D01*
X124342775Y-114508353D01*
X124191647Y-114357225D01*
X124013940Y-114238485D01*
X123816483Y-114156696D01*
X123606863Y-114115000D01*
X123393137Y-114115000D01*
X123183517Y-114156696D01*
X122986060Y-114238485D01*
X122808353Y-114357225D01*
X122657225Y-114508353D01*
X122538485Y-114686060D01*
X122456696Y-114883517D01*
X122415000Y-115093137D01*
X114167939Y-115093137D01*
X111063804Y-111989003D01*
X111040001Y-111959999D01*
X110924276Y-111865026D01*
X110792247Y-111794454D01*
X110648986Y-111750997D01*
X110537333Y-111740000D01*
X110537322Y-111740000D01*
X110500000Y-111736324D01*
X110462678Y-111740000D01*
X104703711Y-111740000D01*
X104659774Y-111696063D01*
X104490256Y-111582795D01*
X104301898Y-111504774D01*
X104101939Y-111465000D01*
X103898061Y-111465000D01*
X103698102Y-111504774D01*
X103509744Y-111582795D01*
X103340226Y-111696063D01*
X103296289Y-111740000D01*
X101287333Y-111740000D01*
X101250000Y-111736323D01*
X101212667Y-111740000D01*
X101101014Y-111750997D01*
X100957753Y-111794454D01*
X100825724Y-111865026D01*
X100709999Y-111959999D01*
X100686201Y-111988997D01*
X95613998Y-117061201D01*
X95585000Y-117084999D01*
X95561202Y-117113997D01*
X95561201Y-117113998D01*
X95490026Y-117200724D01*
X95419454Y-117332754D01*
X95375998Y-117476015D01*
X95361324Y-117625000D01*
X95365001Y-117662332D01*
X95365000Y-118671289D01*
X95321063Y-118715226D01*
X95207795Y-118884744D01*
X95129774Y-119073102D01*
X95090000Y-119273061D01*
X95090000Y-119476939D01*
X95129774Y-119676898D01*
X95207795Y-119865256D01*
X95321063Y-120034774D01*
X95465226Y-120178937D01*
X95634744Y-120292205D01*
X95823102Y-120370226D01*
X96023061Y-120410000D01*
X96226939Y-120410000D01*
X96426898Y-120370226D01*
X96615256Y-120292205D01*
X96784774Y-120178937D01*
X96928937Y-120034774D01*
X96990001Y-119943385D01*
X96990000Y-122318036D01*
X96854365Y-122408665D01*
X96658665Y-122604365D01*
X96504905Y-122834483D01*
X96398994Y-123090177D01*
X96345000Y-123361620D01*
X96345000Y-123638380D01*
X96377731Y-123802930D01*
X94760000Y-122185199D01*
X94760000Y-111814801D01*
X95539802Y-111035000D01*
X95601939Y-111035000D01*
X95801898Y-110995226D01*
X95990256Y-110917205D01*
X96159774Y-110803937D01*
X96270574Y-110693137D01*
X122415000Y-110693137D01*
X122415000Y-110906863D01*
X122456696Y-111116483D01*
X122538485Y-111313940D01*
X122657225Y-111491647D01*
X122808353Y-111642775D01*
X122986060Y-111761515D01*
X123183517Y-111843304D01*
X123393137Y-111885000D01*
X123606863Y-111885000D01*
X123816483Y-111843304D01*
X124013940Y-111761515D01*
X124191647Y-111642775D01*
X124342775Y-111491647D01*
X124461515Y-111313940D01*
X124543304Y-111116483D01*
X124585000Y-110906863D01*
X124585000Y-110693137D01*
X124543304Y-110483517D01*
X124461515Y-110286060D01*
X124342775Y-110108353D01*
X124191647Y-109957225D01*
X124013940Y-109838485D01*
X123816483Y-109756696D01*
X123606863Y-109715000D01*
X123393137Y-109715000D01*
X123183517Y-109756696D01*
X122986060Y-109838485D01*
X122808353Y-109957225D01*
X122657225Y-110108353D01*
X122538485Y-110286060D01*
X122456696Y-110483517D01*
X122415000Y-110693137D01*
X96270574Y-110693137D01*
X96303937Y-110659774D01*
X96417205Y-110490256D01*
X96495226Y-110301898D01*
X96535000Y-110101939D01*
X96535000Y-109898061D01*
X96495226Y-109698102D01*
X96417205Y-109509744D01*
X96303937Y-109340226D01*
X96159774Y-109196063D01*
X95990256Y-109082795D01*
X95801898Y-109004774D01*
X95601939Y-108965000D01*
X95398061Y-108965000D01*
X95198102Y-109004774D01*
X95009744Y-109082795D01*
X94840226Y-109196063D01*
X94696063Y-109340226D01*
X94582795Y-109509744D01*
X94504774Y-109698102D01*
X94465000Y-109898061D01*
X94465000Y-109960198D01*
X93488998Y-110936201D01*
X93460000Y-110959999D01*
X93436202Y-110988997D01*
X93436201Y-110988998D01*
X93365026Y-111075724D01*
X93294454Y-111207754D01*
X93250998Y-111351015D01*
X93236324Y-111500000D01*
X91730107Y-111500000D01*
X91903475Y-111326632D01*
X92065990Y-111083411D01*
X92177932Y-110813158D01*
X92235000Y-110526260D01*
X92235000Y-110233740D01*
X92177932Y-109946842D01*
X92065990Y-109676589D01*
X91903475Y-109433368D01*
X91696632Y-109226525D01*
X91522240Y-109110000D01*
X91696632Y-108993475D01*
X91903475Y-108786632D01*
X92065990Y-108543411D01*
X92177932Y-108273158D01*
X92235000Y-107986260D01*
X92235000Y-107693740D01*
X92223316Y-107634997D01*
X102846928Y-107634997D01*
X102846928Y-108865003D01*
X102863992Y-109038257D01*
X102914528Y-109204852D01*
X102996595Y-109358388D01*
X103107037Y-109492963D01*
X103241612Y-109603405D01*
X103395148Y-109685472D01*
X103561743Y-109736008D01*
X103734997Y-109753072D01*
X104265003Y-109753072D01*
X104438257Y-109736008D01*
X104604852Y-109685472D01*
X104758388Y-109603405D01*
X104834144Y-109541234D01*
X104858004Y-109560816D01*
X105057786Y-109667602D01*
X105274562Y-109733360D01*
X105500000Y-109755564D01*
X105725439Y-109733360D01*
X105942215Y-109667602D01*
X106141997Y-109560816D01*
X106250001Y-109472180D01*
X106358004Y-109560816D01*
X106557786Y-109667602D01*
X106774562Y-109733360D01*
X107000000Y-109755564D01*
X107225439Y-109733360D01*
X107442215Y-109667602D01*
X107641997Y-109560816D01*
X107817107Y-109417107D01*
X107960816Y-109241997D01*
X108067602Y-109042215D01*
X108133360Y-108825438D01*
X108150000Y-108656491D01*
X108150000Y-107843508D01*
X108133360Y-107674561D01*
X108067602Y-107457785D01*
X107960816Y-107258003D01*
X107817107Y-107082893D01*
X107641996Y-106939184D01*
X107442214Y-106832398D01*
X107225438Y-106766640D01*
X107000000Y-106744436D01*
X106774561Y-106766640D01*
X106557785Y-106832398D01*
X106358003Y-106939184D01*
X106250000Y-107027820D01*
X106141996Y-106939184D01*
X105942214Y-106832398D01*
X105725438Y-106766640D01*
X105500000Y-106744436D01*
X105274561Y-106766640D01*
X105057785Y-106832398D01*
X104858003Y-106939184D01*
X104834143Y-106958765D01*
X104758388Y-106896595D01*
X104604852Y-106814528D01*
X104438257Y-106763992D01*
X104265003Y-106746928D01*
X103734997Y-106746928D01*
X103561743Y-106763992D01*
X103395148Y-106814528D01*
X103241612Y-106896595D01*
X103107037Y-107007037D01*
X102996595Y-107141612D01*
X102914528Y-107295148D01*
X102863992Y-107461743D01*
X102846928Y-107634997D01*
X92223316Y-107634997D01*
X92177932Y-107406842D01*
X92065990Y-107136589D01*
X91903475Y-106893368D01*
X91696632Y-106686525D01*
X91453411Y-106524010D01*
X91183158Y-106412068D01*
X90896260Y-106355000D01*
X90603740Y-106355000D01*
X90316842Y-106412068D01*
X90046589Y-106524010D01*
X89803368Y-106686525D01*
X89596525Y-106893368D01*
X89434010Y-107136589D01*
X89322068Y-107406842D01*
X89265000Y-107693740D01*
X88127000Y-107693740D01*
X88127000Y-105377000D01*
X128340000Y-105377000D01*
X128340000Y-130340000D01*
G04 #@! TA.AperFunction,Conductor*
D17*
G36*
X128340000Y-130340000D02*
G01*
X88127000Y-130340000D01*
X88127000Y-128971278D01*
X90458327Y-128971278D01*
X90526276Y-129212187D01*
X90776668Y-129330087D01*
X91045250Y-129396872D01*
X91321701Y-129409977D01*
X91595395Y-129368896D01*
X91855817Y-129275210D01*
X91973724Y-129212187D01*
X92041673Y-128971278D01*
X96958327Y-128971278D01*
X97026276Y-129212187D01*
X97276668Y-129330087D01*
X97545250Y-129396872D01*
X97821701Y-129409977D01*
X98095395Y-129368896D01*
X98355817Y-129275210D01*
X98473724Y-129212187D01*
X98541673Y-128971278D01*
X97750000Y-128179605D01*
X96958327Y-128971278D01*
X92041673Y-128971278D01*
X91250000Y-128179605D01*
X90458327Y-128971278D01*
X88127000Y-128971278D01*
X88127000Y-128071701D01*
X89840023Y-128071701D01*
X89881104Y-128345395D01*
X89974790Y-128605817D01*
X90037813Y-128723724D01*
X90278722Y-128791673D01*
X91070395Y-128000000D01*
X91429605Y-128000000D01*
X92221278Y-128791673D01*
X92462187Y-128723724D01*
X92580087Y-128473332D01*
X92646872Y-128204750D01*
X92653179Y-128071701D01*
X96340023Y-128071701D01*
X96381104Y-128345395D01*
X96474790Y-128605817D01*
X96537813Y-128723724D01*
X96778722Y-128791673D01*
X97570395Y-128000000D01*
X97929605Y-128000000D01*
X98721278Y-128791673D01*
X98962187Y-128723724D01*
X99080087Y-128473332D01*
X99146872Y-128204750D01*
X99159977Y-127928299D01*
X99118896Y-127654605D01*
X99025210Y-127394183D01*
X98962187Y-127276276D01*
X98721278Y-127208327D01*
X97929605Y-128000000D01*
X97570395Y-128000000D01*
X96778722Y-127208327D01*
X96537813Y-127276276D01*
X96419913Y-127526668D01*
X96353128Y-127795250D01*
X96340023Y-128071701D01*
X92653179Y-128071701D01*
X92659977Y-127928299D01*
X92618896Y-127654605D01*
X92525210Y-127394183D01*
X92462187Y-127276276D01*
X92221278Y-127208327D01*
X91429605Y-128000000D01*
X91070395Y-128000000D01*
X90278722Y-127208327D01*
X90037813Y-127276276D01*
X89919913Y-127526668D01*
X89853128Y-127795250D01*
X89840023Y-128071701D01*
X88127000Y-128071701D01*
X88127000Y-127028722D01*
X90458327Y-127028722D01*
X91250000Y-127820395D01*
X92041673Y-127028722D01*
X96958327Y-127028722D01*
X97750000Y-127820395D01*
X98541673Y-127028722D01*
X98473724Y-126787813D01*
X98223332Y-126669913D01*
X97954750Y-126603128D01*
X97678299Y-126590023D01*
X97404605Y-126631104D01*
X97144183Y-126724790D01*
X97026276Y-126787813D01*
X96958327Y-127028722D01*
X92041673Y-127028722D01*
X91973724Y-126787813D01*
X91723332Y-126669913D01*
X91454750Y-126603128D01*
X91178299Y-126590023D01*
X90904605Y-126631104D01*
X90644183Y-126724790D01*
X90526276Y-126787813D01*
X90458327Y-127028722D01*
X88127000Y-127028722D01*
X88127000Y-123361620D01*
X89845000Y-123361620D01*
X89845000Y-123638380D01*
X89898994Y-123909823D01*
X90004905Y-124165517D01*
X90158665Y-124395635D01*
X90354365Y-124591335D01*
X90584483Y-124745095D01*
X90840177Y-124851006D01*
X91111620Y-124905000D01*
X91388380Y-124905000D01*
X91659823Y-124851006D01*
X91915517Y-124745095D01*
X92145635Y-124591335D01*
X92341335Y-124395635D01*
X92495095Y-124165517D01*
X92601006Y-123909823D01*
X92655000Y-123638380D01*
X92655000Y-123361620D01*
X92601006Y-123090177D01*
X92495095Y-122834483D01*
X92341335Y-122604365D01*
X92145635Y-122408665D01*
X91915517Y-122254905D01*
X91659823Y-122148994D01*
X91388380Y-122095000D01*
X91111620Y-122095000D01*
X90840177Y-122148994D01*
X90584483Y-122254905D01*
X90354365Y-122408665D01*
X90158665Y-122604365D01*
X90004905Y-122834483D01*
X89898994Y-123090177D01*
X89845000Y-123361620D01*
X88127000Y-123361620D01*
X88127000Y-117150000D01*
X89261928Y-117150000D01*
X89261928Y-118850000D01*
X89274188Y-118974482D01*
X89310498Y-119094180D01*
X89369463Y-119204494D01*
X89448815Y-119301185D01*
X89545506Y-119380537D01*
X89655820Y-119439502D01*
X89775518Y-119475812D01*
X89900000Y-119488072D01*
X91600000Y-119488072D01*
X91724482Y-119475812D01*
X91844180Y-119439502D01*
X91954494Y-119380537D01*
X92051185Y-119301185D01*
X92130537Y-119204494D01*
X92189502Y-119094180D01*
X92225812Y-118974482D01*
X92238072Y-118850000D01*
X92238072Y-117150000D01*
X92225812Y-117025518D01*
X92189502Y-116905820D01*
X92130537Y-116795506D01*
X92051185Y-116698815D01*
X91954494Y-116619463D01*
X91844180Y-116560498D01*
X91771620Y-116538487D01*
X91903475Y-116406632D01*
X92065990Y-116163411D01*
X92177932Y-115893158D01*
X92235000Y-115606260D01*
X92235000Y-115313740D01*
X92177932Y-115026842D01*
X92065990Y-114756589D01*
X91903475Y-114513368D01*
X91696632Y-114306525D01*
X91514466Y-114184805D01*
X91631355Y-114115178D01*
X91847588Y-113920269D01*
X92021641Y-113686920D01*
X92146825Y-113424099D01*
X92191476Y-113276890D01*
X92070155Y-113047000D01*
X90877000Y-113047000D01*
X90877000Y-113067000D01*
X90623000Y-113067000D01*
X90623000Y-113047000D01*
X89429845Y-113047000D01*
X89308524Y-113276890D01*
X89353175Y-113424099D01*
X89478359Y-113686920D01*
X89652412Y-113920269D01*
X89868645Y-114115178D01*
X89985534Y-114184805D01*
X89803368Y-114306525D01*
X89596525Y-114513368D01*
X89434010Y-114756589D01*
X89322068Y-115026842D01*
X89265000Y-115313740D01*
X89265000Y-115606260D01*
X89322068Y-115893158D01*
X89434010Y-116163411D01*
X89596525Y-116406632D01*
X89728380Y-116538487D01*
X89655820Y-116560498D01*
X89545506Y-116619463D01*
X89448815Y-116698815D01*
X89369463Y-116795506D01*
X89310498Y-116905820D01*
X89274188Y-117025518D01*
X89261928Y-117150000D01*
X88127000Y-117150000D01*
X88127000Y-107693740D01*
X89265000Y-107693740D01*
X89265000Y-107986260D01*
X89322068Y-108273158D01*
X89434010Y-108543411D01*
X89596525Y-108786632D01*
X89803368Y-108993475D01*
X89977760Y-109110000D01*
X89803368Y-109226525D01*
X89596525Y-109433368D01*
X89434010Y-109676589D01*
X89322068Y-109946842D01*
X89265000Y-110233740D01*
X89265000Y-110526260D01*
X89322068Y-110813158D01*
X89434010Y-111083411D01*
X89596525Y-111326632D01*
X89803368Y-111533475D01*
X89985534Y-111655195D01*
X89868645Y-111724822D01*
X89652412Y-111919731D01*
X89478359Y-112153080D01*
X89353175Y-112415901D01*
X89308524Y-112563110D01*
X89429845Y-112793000D01*
X90623000Y-112793000D01*
X90623000Y-112773000D01*
X90877000Y-112773000D01*
X90877000Y-112793000D01*
X92070155Y-112793000D01*
X92191476Y-112563110D01*
X92146825Y-112415901D01*
X92021641Y-112153080D01*
X91847588Y-111919731D01*
X91631355Y-111724822D01*
X91514466Y-111655195D01*
X91696632Y-111533475D01*
X91730107Y-111500000D01*
X93236324Y-111500000D01*
X93240001Y-111537332D01*
X93240000Y-122462678D01*
X93236324Y-122500000D01*
X93240000Y-122537322D01*
X93240000Y-122537332D01*
X93250997Y-122648985D01*
X93283087Y-122754774D01*
X93294454Y-122792246D01*
X93365026Y-122924276D01*
X93404871Y-122972826D01*
X93459999Y-123040001D01*
X93489003Y-123063804D01*
X96686201Y-126261003D01*
X96709999Y-126290001D01*
X96738997Y-126313799D01*
X96825723Y-126384974D01*
X96957753Y-126455546D01*
X97101014Y-126499003D01*
X97212667Y-126510000D01*
X97212676Y-126510000D01*
X97249999Y-126513676D01*
X97287322Y-126510000D01*
X106462678Y-126510000D01*
X106500000Y-126513676D01*
X106537322Y-126510000D01*
X106537333Y-126510000D01*
X106648986Y-126499003D01*
X106792247Y-126455546D01*
X106924276Y-126384974D01*
X107040001Y-126290001D01*
X107063804Y-126260997D01*
X108539802Y-124785000D01*
X108601939Y-124785000D01*
X108801898Y-124745226D01*
X108990256Y-124667205D01*
X109159774Y-124553937D01*
X109303937Y-124409774D01*
X109417205Y-124240256D01*
X109495226Y-124051898D01*
X109535000Y-123851939D01*
X109535000Y-123648061D01*
X109495226Y-123448102D01*
X109417205Y-123259744D01*
X109303937Y-123090226D01*
X109159774Y-122946063D01*
X108990256Y-122832795D01*
X108801898Y-122754774D01*
X108601939Y-122715000D01*
X108398061Y-122715000D01*
X108198102Y-122754774D01*
X108009744Y-122832795D01*
X107840226Y-122946063D01*
X107696063Y-123090226D01*
X107582795Y-123259744D01*
X107504774Y-123448102D01*
X107465000Y-123648061D01*
X107465000Y-123710198D01*
X106185199Y-124990000D01*
X97564802Y-124990000D01*
X97447071Y-124872269D01*
X97611620Y-124905000D01*
X97888380Y-124905000D01*
X98159823Y-124851006D01*
X98415517Y-124745095D01*
X98645635Y-124591335D01*
X98841335Y-124395635D01*
X98995095Y-124165517D01*
X99101006Y-123909823D01*
X99155000Y-123638380D01*
X99155000Y-123361620D01*
X99101006Y-123090177D01*
X98995095Y-122834483D01*
X98841335Y-122604365D01*
X98645635Y-122408665D01*
X98510000Y-122318037D01*
X98510000Y-119814801D01*
X102814803Y-115510000D01*
X103046289Y-115510000D01*
X103090226Y-115553937D01*
X103259744Y-115667205D01*
X103448102Y-115745226D01*
X103648061Y-115785000D01*
X103851939Y-115785000D01*
X104051898Y-115745226D01*
X104240256Y-115667205D01*
X104409774Y-115553937D01*
X104553937Y-115409774D01*
X104667205Y-115240256D01*
X104745226Y-115051898D01*
X104785000Y-114851939D01*
X104785000Y-114648061D01*
X104745226Y-114448102D01*
X104667205Y-114259744D01*
X104553937Y-114090226D01*
X104409774Y-113946063D01*
X104240256Y-113832795D01*
X104051898Y-113754774D01*
X103851939Y-113715000D01*
X103648061Y-113715000D01*
X103448102Y-113754774D01*
X103259744Y-113832795D01*
X103090226Y-113946063D01*
X103046289Y-113990000D01*
X102537322Y-113990000D01*
X102499999Y-113986324D01*
X102462676Y-113990000D01*
X102462667Y-113990000D01*
X102351014Y-114000997D01*
X102207753Y-114044454D01*
X102075724Y-114115026D01*
X102075722Y-114115027D01*
X102075723Y-114115027D01*
X101988996Y-114186201D01*
X101988992Y-114186205D01*
X101959999Y-114209999D01*
X101936205Y-114238992D01*
X97238998Y-118936201D01*
X97210000Y-118959999D01*
X97186202Y-118988997D01*
X97186201Y-118988998D01*
X97119204Y-119070634D01*
X97042205Y-118884744D01*
X96928937Y-118715226D01*
X96885000Y-118671289D01*
X96885000Y-117939801D01*
X101564802Y-113260000D01*
X103296289Y-113260000D01*
X103340226Y-113303937D01*
X103509744Y-113417205D01*
X103698102Y-113495226D01*
X103898061Y-113535000D01*
X104101939Y-113535000D01*
X104301898Y-113495226D01*
X104490256Y-113417205D01*
X104659774Y-113303937D01*
X104703711Y-113260000D01*
X110185199Y-113260000D01*
X112990001Y-116064803D01*
X112990000Y-117296289D01*
X112946063Y-117340226D01*
X112832795Y-117509744D01*
X112754774Y-117698102D01*
X112715000Y-117898061D01*
X112715000Y-118101939D01*
X112754774Y-118301898D01*
X112832795Y-118490256D01*
X112946063Y-118659774D01*
X113090226Y-118803937D01*
X113259744Y-118917205D01*
X113448102Y-118995226D01*
X113648061Y-119035000D01*
X113851939Y-119035000D01*
X114051898Y-118995226D01*
X114240256Y-118917205D01*
X114409774Y-118803937D01*
X114553937Y-118659774D01*
X114667205Y-118490256D01*
X114745226Y-118301898D01*
X114785000Y-118101939D01*
X114785000Y-117898061D01*
X114745226Y-117698102D01*
X114667205Y-117509744D01*
X114553937Y-117340226D01*
X114510000Y-117296289D01*
X114510000Y-115787322D01*
X114513676Y-115749999D01*
X114510000Y-115712676D01*
X114510000Y-115712667D01*
X114499003Y-115601014D01*
X114455546Y-115457753D01*
X114454366Y-115455546D01*
X114384974Y-115325723D01*
X114313799Y-115238997D01*
X114290001Y-115209999D01*
X114261003Y-115186201D01*
X114167939Y-115093137D01*
X122415000Y-115093137D01*
X122415000Y-115306863D01*
X122456696Y-115516483D01*
X122538485Y-115713940D01*
X122657225Y-115891647D01*
X122808353Y-116042775D01*
X122986060Y-116161515D01*
X123183517Y-116243304D01*
X123393137Y-116285000D01*
X123606863Y-116285000D01*
X123816483Y-116243304D01*
X124013940Y-116161515D01*
X124191647Y-116042775D01*
X124342775Y-115891647D01*
X124461515Y-115713940D01*
X124543304Y-115516483D01*
X124585000Y-115306863D01*
X124585000Y-115093137D01*
X124543304Y-114883517D01*
X124461515Y-114686060D01*
X124342775Y-114508353D01*
X124191647Y-114357225D01*
X124013940Y-114238485D01*
X123816483Y-114156696D01*
X123606863Y-114115000D01*
X123393137Y-114115000D01*
X123183517Y-114156696D01*
X122986060Y-114238485D01*
X122808353Y-114357225D01*
X122657225Y-114508353D01*
X122538485Y-114686060D01*
X122456696Y-114883517D01*
X122415000Y-115093137D01*
X114167939Y-115093137D01*
X111063804Y-111989003D01*
X111040001Y-111959999D01*
X110924276Y-111865026D01*
X110792247Y-111794454D01*
X110648986Y-111750997D01*
X110537333Y-111740000D01*
X110537322Y-111740000D01*
X110500000Y-111736324D01*
X110462678Y-111740000D01*
X104703711Y-111740000D01*
X104659774Y-111696063D01*
X104490256Y-111582795D01*
X104301898Y-111504774D01*
X104101939Y-111465000D01*
X103898061Y-111465000D01*
X103698102Y-111504774D01*
X103509744Y-111582795D01*
X103340226Y-111696063D01*
X103296289Y-111740000D01*
X101287333Y-111740000D01*
X101250000Y-111736323D01*
X101212667Y-111740000D01*
X101101014Y-111750997D01*
X100957753Y-111794454D01*
X100825724Y-111865026D01*
X100709999Y-111959999D01*
X100686201Y-111988997D01*
X95613998Y-117061201D01*
X95585000Y-117084999D01*
X95561202Y-117113997D01*
X95561201Y-117113998D01*
X95490026Y-117200724D01*
X95419454Y-117332754D01*
X95375998Y-117476015D01*
X95361324Y-117625000D01*
X95365001Y-117662332D01*
X95365000Y-118671289D01*
X95321063Y-118715226D01*
X95207795Y-118884744D01*
X95129774Y-119073102D01*
X95090000Y-119273061D01*
X95090000Y-119476939D01*
X95129774Y-119676898D01*
X95207795Y-119865256D01*
X95321063Y-120034774D01*
X95465226Y-120178937D01*
X95634744Y-120292205D01*
X95823102Y-120370226D01*
X96023061Y-120410000D01*
X96226939Y-120410000D01*
X96426898Y-120370226D01*
X96615256Y-120292205D01*
X96784774Y-120178937D01*
X96928937Y-120034774D01*
X96990001Y-119943385D01*
X96990000Y-122318036D01*
X96854365Y-122408665D01*
X96658665Y-122604365D01*
X96504905Y-122834483D01*
X96398994Y-123090177D01*
X96345000Y-123361620D01*
X96345000Y-123638380D01*
X96377731Y-123802930D01*
X94760000Y-122185199D01*
X94760000Y-111814801D01*
X95539802Y-111035000D01*
X95601939Y-111035000D01*
X95801898Y-110995226D01*
X95990256Y-110917205D01*
X96159774Y-110803937D01*
X96270574Y-110693137D01*
X122415000Y-110693137D01*
X122415000Y-110906863D01*
X122456696Y-111116483D01*
X122538485Y-111313940D01*
X122657225Y-111491647D01*
X122808353Y-111642775D01*
X122986060Y-111761515D01*
X123183517Y-111843304D01*
X123393137Y-111885000D01*
X123606863Y-111885000D01*
X123816483Y-111843304D01*
X124013940Y-111761515D01*
X124191647Y-111642775D01*
X124342775Y-111491647D01*
X124461515Y-111313940D01*
X124543304Y-111116483D01*
X124585000Y-110906863D01*
X124585000Y-110693137D01*
X124543304Y-110483517D01*
X124461515Y-110286060D01*
X124342775Y-110108353D01*
X124191647Y-109957225D01*
X124013940Y-109838485D01*
X123816483Y-109756696D01*
X123606863Y-109715000D01*
X123393137Y-109715000D01*
X123183517Y-109756696D01*
X122986060Y-109838485D01*
X122808353Y-109957225D01*
X122657225Y-110108353D01*
X122538485Y-110286060D01*
X122456696Y-110483517D01*
X122415000Y-110693137D01*
X96270574Y-110693137D01*
X96303937Y-110659774D01*
X96417205Y-110490256D01*
X96495226Y-110301898D01*
X96535000Y-110101939D01*
X96535000Y-109898061D01*
X96495226Y-109698102D01*
X96417205Y-109509744D01*
X96303937Y-109340226D01*
X96159774Y-109196063D01*
X95990256Y-109082795D01*
X95801898Y-109004774D01*
X95601939Y-108965000D01*
X95398061Y-108965000D01*
X95198102Y-109004774D01*
X95009744Y-109082795D01*
X94840226Y-109196063D01*
X94696063Y-109340226D01*
X94582795Y-109509744D01*
X94504774Y-109698102D01*
X94465000Y-109898061D01*
X94465000Y-109960198D01*
X93488998Y-110936201D01*
X93460000Y-110959999D01*
X93436202Y-110988997D01*
X93436201Y-110988998D01*
X93365026Y-111075724D01*
X93294454Y-111207754D01*
X93250998Y-111351015D01*
X93236324Y-111500000D01*
X91730107Y-111500000D01*
X91903475Y-111326632D01*
X92065990Y-111083411D01*
X92177932Y-110813158D01*
X92235000Y-110526260D01*
X92235000Y-110233740D01*
X92177932Y-109946842D01*
X92065990Y-109676589D01*
X91903475Y-109433368D01*
X91696632Y-109226525D01*
X91522240Y-109110000D01*
X91696632Y-108993475D01*
X91903475Y-108786632D01*
X92065990Y-108543411D01*
X92177932Y-108273158D01*
X92235000Y-107986260D01*
X92235000Y-107693740D01*
X92223316Y-107634997D01*
X102846928Y-107634997D01*
X102846928Y-108865003D01*
X102863992Y-109038257D01*
X102914528Y-109204852D01*
X102996595Y-109358388D01*
X103107037Y-109492963D01*
X103241612Y-109603405D01*
X103395148Y-109685472D01*
X103561743Y-109736008D01*
X103734997Y-109753072D01*
X104265003Y-109753072D01*
X104438257Y-109736008D01*
X104604852Y-109685472D01*
X104758388Y-109603405D01*
X104834144Y-109541234D01*
X104858004Y-109560816D01*
X105057786Y-109667602D01*
X105274562Y-109733360D01*
X105500000Y-109755564D01*
X105725439Y-109733360D01*
X105942215Y-109667602D01*
X106141997Y-109560816D01*
X106250001Y-109472180D01*
X106358004Y-109560816D01*
X106557786Y-109667602D01*
X106774562Y-109733360D01*
X107000000Y-109755564D01*
X107225439Y-109733360D01*
X107442215Y-109667602D01*
X107641997Y-109560816D01*
X107817107Y-109417107D01*
X107960816Y-109241997D01*
X108067602Y-109042215D01*
X108133360Y-108825438D01*
X108150000Y-108656491D01*
X108150000Y-107843508D01*
X108133360Y-107674561D01*
X108067602Y-107457785D01*
X107960816Y-107258003D01*
X107817107Y-107082893D01*
X107641996Y-106939184D01*
X107442214Y-106832398D01*
X107225438Y-106766640D01*
X107000000Y-106744436D01*
X106774561Y-106766640D01*
X106557785Y-106832398D01*
X106358003Y-106939184D01*
X106250000Y-107027820D01*
X106141996Y-106939184D01*
X105942214Y-106832398D01*
X105725438Y-106766640D01*
X105500000Y-106744436D01*
X105274561Y-106766640D01*
X105057785Y-106832398D01*
X104858003Y-106939184D01*
X104834143Y-106958765D01*
X104758388Y-106896595D01*
X104604852Y-106814528D01*
X104438257Y-106763992D01*
X104265003Y-106746928D01*
X103734997Y-106746928D01*
X103561743Y-106763992D01*
X103395148Y-106814528D01*
X103241612Y-106896595D01*
X103107037Y-107007037D01*
X102996595Y-107141612D01*
X102914528Y-107295148D01*
X102863992Y-107461743D01*
X102846928Y-107634997D01*
X92223316Y-107634997D01*
X92177932Y-107406842D01*
X92065990Y-107136589D01*
X91903475Y-106893368D01*
X91696632Y-106686525D01*
X91453411Y-106524010D01*
X91183158Y-106412068D01*
X90896260Y-106355000D01*
X90603740Y-106355000D01*
X90316842Y-106412068D01*
X90046589Y-106524010D01*
X89803368Y-106686525D01*
X89596525Y-106893368D01*
X89434010Y-107136589D01*
X89322068Y-107406842D01*
X89265000Y-107693740D01*
X88127000Y-107693740D01*
X88127000Y-105377000D01*
X128340000Y-105377000D01*
X128340000Y-130340000D01*
G37*
G04 #@! TD.AperFunction*
M02*
