G04 #@! TF.GenerationSoftware,KiCad,Pcbnew,(5.1.8)-1*
G04 #@! TF.CreationDate,2021-08-02T19:11:59-06:00*
G04 #@! TF.ProjectId,RCtoUSB,5243746f-5553-4422-9e6b-696361645f70,rev?*
G04 #@! TF.SameCoordinates,Original*
G04 #@! TF.FileFunction,Legend,Bot*
G04 #@! TF.FilePolarity,Positive*
%FSLAX46Y46*%
G04 Gerber Fmt 4.6, Leading zero omitted, Abs format (unit mm)*
G04 Created by KiCad (PCBNEW (5.1.8)-1) date 2021-08-02 19:11:59*
%MOMM*%
%LPD*%
G01*
G04 APERTURE LIST*
%ADD10C,0.200000*%
G04 APERTURE END LIST*
D10*
X125642857Y-122478571D02*
X126142857Y-121764285D01*
X126500000Y-122478571D02*
X126500000Y-120978571D01*
X125928571Y-120978571D01*
X125785714Y-121050000D01*
X125714285Y-121121428D01*
X125642857Y-121264285D01*
X125642857Y-121478571D01*
X125714285Y-121621428D01*
X125785714Y-121692857D01*
X125928571Y-121764285D01*
X126500000Y-121764285D01*
X124142857Y-122335714D02*
X124214285Y-122407142D01*
X124428571Y-122478571D01*
X124571428Y-122478571D01*
X124785714Y-122407142D01*
X124928571Y-122264285D01*
X125000000Y-122121428D01*
X125071428Y-121835714D01*
X125071428Y-121621428D01*
X125000000Y-121335714D01*
X124928571Y-121192857D01*
X124785714Y-121050000D01*
X124571428Y-120978571D01*
X124428571Y-120978571D01*
X124214285Y-121050000D01*
X124142857Y-121121428D01*
X123714285Y-121478571D02*
X123142857Y-121478571D01*
X123500000Y-120978571D02*
X123500000Y-122264285D01*
X123428571Y-122407142D01*
X123285714Y-122478571D01*
X123142857Y-122478571D01*
X122428571Y-122478571D02*
X122571428Y-122407142D01*
X122642857Y-122335714D01*
X122714285Y-122192857D01*
X122714285Y-121764285D01*
X122642857Y-121621428D01*
X122571428Y-121550000D01*
X122428571Y-121478571D01*
X122214285Y-121478571D01*
X122071428Y-121550000D01*
X122000000Y-121621428D01*
X121928571Y-121764285D01*
X121928571Y-122192857D01*
X122000000Y-122335714D01*
X122071428Y-122407142D01*
X122214285Y-122478571D01*
X122428571Y-122478571D01*
X121285714Y-120978571D02*
X121285714Y-122192857D01*
X121214285Y-122335714D01*
X121142857Y-122407142D01*
X121000000Y-122478571D01*
X120714285Y-122478571D01*
X120571428Y-122407142D01*
X120500000Y-122335714D01*
X120428571Y-122192857D01*
X120428571Y-120978571D01*
X119785714Y-122407142D02*
X119571428Y-122478571D01*
X119214285Y-122478571D01*
X119071428Y-122407142D01*
X119000000Y-122335714D01*
X118928571Y-122192857D01*
X118928571Y-122050000D01*
X119000000Y-121907142D01*
X119071428Y-121835714D01*
X119214285Y-121764285D01*
X119500000Y-121692857D01*
X119642857Y-121621428D01*
X119714285Y-121550000D01*
X119785714Y-121407142D01*
X119785714Y-121264285D01*
X119714285Y-121121428D01*
X119642857Y-121050000D01*
X119500000Y-120978571D01*
X119142857Y-120978571D01*
X118928571Y-121050000D01*
X117785714Y-121692857D02*
X117571428Y-121764285D01*
X117500000Y-121835714D01*
X117428571Y-121978571D01*
X117428571Y-122192857D01*
X117500000Y-122335714D01*
X117571428Y-122407142D01*
X117714285Y-122478571D01*
X118285714Y-122478571D01*
X118285714Y-120978571D01*
X117785714Y-120978571D01*
X117642857Y-121050000D01*
X117571428Y-121121428D01*
X117500000Y-121264285D01*
X117500000Y-121407142D01*
X117571428Y-121550000D01*
X117642857Y-121621428D01*
X117785714Y-121692857D01*
X118285714Y-121692857D01*
X124857142Y-123428571D02*
X124357142Y-124928571D01*
X123857142Y-123428571D01*
X121428571Y-124928571D02*
X122285714Y-124928571D01*
X121857142Y-124928571D02*
X121857142Y-123428571D01*
X122000000Y-123642857D01*
X122142857Y-123785714D01*
X122285714Y-123857142D01*
X120785714Y-124785714D02*
X120714285Y-124857142D01*
X120785714Y-124928571D01*
X120857142Y-124857142D01*
X120785714Y-124785714D01*
X120785714Y-124928571D01*
X119785714Y-123428571D02*
X119642857Y-123428571D01*
X119500000Y-123500000D01*
X119428571Y-123571428D01*
X119357142Y-123714285D01*
X119285714Y-124000000D01*
X119285714Y-124357142D01*
X119357142Y-124642857D01*
X119428571Y-124785714D01*
X119500000Y-124857142D01*
X119642857Y-124928571D01*
X119785714Y-124928571D01*
X119928571Y-124857142D01*
X120000000Y-124785714D01*
X120071428Y-124642857D01*
X120142857Y-124357142D01*
X120142857Y-124000000D01*
X120071428Y-123714285D01*
X120000000Y-123571428D01*
X119928571Y-123500000D01*
X119785714Y-123428571D01*
X126250000Y-127521428D02*
X126392857Y-127450000D01*
X126535714Y-127307142D01*
X126750000Y-127092857D01*
X126892857Y-127021428D01*
X127035714Y-127021428D01*
X126964285Y-127378571D02*
X127107142Y-127307142D01*
X127250000Y-127164285D01*
X127321428Y-126878571D01*
X127321428Y-126378571D01*
X127250000Y-126092857D01*
X127107142Y-125950000D01*
X126964285Y-125878571D01*
X126678571Y-125878571D01*
X126535714Y-125950000D01*
X126392857Y-126092857D01*
X126321428Y-126378571D01*
X126321428Y-126878571D01*
X126392857Y-127164285D01*
X126535714Y-127307142D01*
X126678571Y-127378571D01*
X126964285Y-127378571D01*
X125678571Y-126592857D02*
X125178571Y-126592857D01*
X124964285Y-127378571D02*
X125678571Y-127378571D01*
X125678571Y-125878571D01*
X124964285Y-125878571D01*
X124392857Y-127307142D02*
X124178571Y-127378571D01*
X123821428Y-127378571D01*
X123678571Y-127307142D01*
X123607142Y-127235714D01*
X123535714Y-127092857D01*
X123535714Y-126950000D01*
X123607142Y-126807142D01*
X123678571Y-126735714D01*
X123821428Y-126664285D01*
X124107142Y-126592857D01*
X124250000Y-126521428D01*
X124321428Y-126450000D01*
X124392857Y-126307142D01*
X124392857Y-126164285D01*
X124321428Y-126021428D01*
X124250000Y-125950000D01*
X124107142Y-125878571D01*
X123750000Y-125878571D01*
X123535714Y-125950000D01*
X121821428Y-126021428D02*
X121750000Y-125950000D01*
X121607142Y-125878571D01*
X121250000Y-125878571D01*
X121107142Y-125950000D01*
X121035714Y-126021428D01*
X120964285Y-126164285D01*
X120964285Y-126307142D01*
X121035714Y-126521428D01*
X121892857Y-127378571D01*
X120964285Y-127378571D01*
X120035714Y-125878571D02*
X119892857Y-125878571D01*
X119750000Y-125950000D01*
X119678571Y-126021428D01*
X119607142Y-126164285D01*
X119535714Y-126450000D01*
X119535714Y-126807142D01*
X119607142Y-127092857D01*
X119678571Y-127235714D01*
X119750000Y-127307142D01*
X119892857Y-127378571D01*
X120035714Y-127378571D01*
X120178571Y-127307142D01*
X120250000Y-127235714D01*
X120321428Y-127092857D01*
X120392857Y-126807142D01*
X120392857Y-126450000D01*
X120321428Y-126164285D01*
X120250000Y-126021428D01*
X120178571Y-125950000D01*
X120035714Y-125878571D01*
X118964285Y-126021428D02*
X118892857Y-125950000D01*
X118750000Y-125878571D01*
X118392857Y-125878571D01*
X118250000Y-125950000D01*
X118178571Y-126021428D01*
X118107142Y-126164285D01*
X118107142Y-126307142D01*
X118178571Y-126521428D01*
X119035714Y-127378571D01*
X118107142Y-127378571D01*
X116678571Y-127378571D02*
X117535714Y-127378571D01*
X117107142Y-127378571D02*
X117107142Y-125878571D01*
X117250000Y-126092857D01*
X117392857Y-126235714D01*
X117535714Y-126307142D01*
X101892857Y-73728571D02*
X102392857Y-73014285D01*
X102750000Y-73728571D02*
X102750000Y-72228571D01*
X102178571Y-72228571D01*
X102035714Y-72300000D01*
X101964285Y-72371428D01*
X101892857Y-72514285D01*
X101892857Y-72728571D01*
X101964285Y-72871428D01*
X102035714Y-72942857D01*
X102178571Y-73014285D01*
X102750000Y-73014285D01*
X100392857Y-73585714D02*
X100464285Y-73657142D01*
X100678571Y-73728571D01*
X100821428Y-73728571D01*
X101035714Y-73657142D01*
X101178571Y-73514285D01*
X101250000Y-73371428D01*
X101321428Y-73085714D01*
X101321428Y-72871428D01*
X101250000Y-72585714D01*
X101178571Y-72442857D01*
X101035714Y-72300000D01*
X100821428Y-72228571D01*
X100678571Y-72228571D01*
X100464285Y-72300000D01*
X100392857Y-72371428D01*
X99964285Y-72728571D02*
X99392857Y-72728571D01*
X99750000Y-72228571D02*
X99750000Y-73514285D01*
X99678571Y-73657142D01*
X99535714Y-73728571D01*
X99392857Y-73728571D01*
X98678571Y-73728571D02*
X98821428Y-73657142D01*
X98892857Y-73585714D01*
X98964285Y-73442857D01*
X98964285Y-73014285D01*
X98892857Y-72871428D01*
X98821428Y-72800000D01*
X98678571Y-72728571D01*
X98464285Y-72728571D01*
X98321428Y-72800000D01*
X98250000Y-72871428D01*
X98178571Y-73014285D01*
X98178571Y-73442857D01*
X98250000Y-73585714D01*
X98321428Y-73657142D01*
X98464285Y-73728571D01*
X98678571Y-73728571D01*
X97535714Y-72228571D02*
X97535714Y-73442857D01*
X97464285Y-73585714D01*
X97392857Y-73657142D01*
X97250000Y-73728571D01*
X96964285Y-73728571D01*
X96821428Y-73657142D01*
X96750000Y-73585714D01*
X96678571Y-73442857D01*
X96678571Y-72228571D01*
X96035714Y-73657142D02*
X95821428Y-73728571D01*
X95464285Y-73728571D01*
X95321428Y-73657142D01*
X95250000Y-73585714D01*
X95178571Y-73442857D01*
X95178571Y-73300000D01*
X95250000Y-73157142D01*
X95321428Y-73085714D01*
X95464285Y-73014285D01*
X95750000Y-72942857D01*
X95892857Y-72871428D01*
X95964285Y-72800000D01*
X96035714Y-72657142D01*
X96035714Y-72514285D01*
X95964285Y-72371428D01*
X95892857Y-72300000D01*
X95750000Y-72228571D01*
X95392857Y-72228571D01*
X95178571Y-72300000D01*
X94035714Y-72942857D02*
X93821428Y-73014285D01*
X93750000Y-73085714D01*
X93678571Y-73228571D01*
X93678571Y-73442857D01*
X93750000Y-73585714D01*
X93821428Y-73657142D01*
X93964285Y-73728571D01*
X94535714Y-73728571D01*
X94535714Y-72228571D01*
X94035714Y-72228571D01*
X93892857Y-72300000D01*
X93821428Y-72371428D01*
X93750000Y-72514285D01*
X93750000Y-72657142D01*
X93821428Y-72800000D01*
X93892857Y-72871428D01*
X94035714Y-72942857D01*
X94535714Y-72942857D01*
X101107142Y-74678571D02*
X100607142Y-76178571D01*
X100107142Y-74678571D01*
X97678571Y-76178571D02*
X98535714Y-76178571D01*
X98107142Y-76178571D02*
X98107142Y-74678571D01*
X98250000Y-74892857D01*
X98392857Y-75035714D01*
X98535714Y-75107142D01*
X97035714Y-76035714D02*
X96964285Y-76107142D01*
X97035714Y-76178571D01*
X97107142Y-76107142D01*
X97035714Y-76035714D01*
X97035714Y-76178571D01*
X96035714Y-74678571D02*
X95892857Y-74678571D01*
X95750000Y-74750000D01*
X95678571Y-74821428D01*
X95607142Y-74964285D01*
X95535714Y-75250000D01*
X95535714Y-75607142D01*
X95607142Y-75892857D01*
X95678571Y-76035714D01*
X95750000Y-76107142D01*
X95892857Y-76178571D01*
X96035714Y-76178571D01*
X96178571Y-76107142D01*
X96250000Y-76035714D01*
X96321428Y-75892857D01*
X96392857Y-75607142D01*
X96392857Y-75250000D01*
X96321428Y-74964285D01*
X96250000Y-74821428D01*
X96178571Y-74750000D01*
X96035714Y-74678571D01*
X102500000Y-78771428D02*
X102642857Y-78700000D01*
X102785714Y-78557142D01*
X103000000Y-78342857D01*
X103142857Y-78271428D01*
X103285714Y-78271428D01*
X103214285Y-78628571D02*
X103357142Y-78557142D01*
X103500000Y-78414285D01*
X103571428Y-78128571D01*
X103571428Y-77628571D01*
X103500000Y-77342857D01*
X103357142Y-77200000D01*
X103214285Y-77128571D01*
X102928571Y-77128571D01*
X102785714Y-77200000D01*
X102642857Y-77342857D01*
X102571428Y-77628571D01*
X102571428Y-78128571D01*
X102642857Y-78414285D01*
X102785714Y-78557142D01*
X102928571Y-78628571D01*
X103214285Y-78628571D01*
X101928571Y-77842857D02*
X101428571Y-77842857D01*
X101214285Y-78628571D02*
X101928571Y-78628571D01*
X101928571Y-77128571D01*
X101214285Y-77128571D01*
X100642857Y-78557142D02*
X100428571Y-78628571D01*
X100071428Y-78628571D01*
X99928571Y-78557142D01*
X99857142Y-78485714D01*
X99785714Y-78342857D01*
X99785714Y-78200000D01*
X99857142Y-78057142D01*
X99928571Y-77985714D01*
X100071428Y-77914285D01*
X100357142Y-77842857D01*
X100500000Y-77771428D01*
X100571428Y-77700000D01*
X100642857Y-77557142D01*
X100642857Y-77414285D01*
X100571428Y-77271428D01*
X100500000Y-77200000D01*
X100357142Y-77128571D01*
X100000000Y-77128571D01*
X99785714Y-77200000D01*
X98071428Y-77271428D02*
X98000000Y-77200000D01*
X97857142Y-77128571D01*
X97500000Y-77128571D01*
X97357142Y-77200000D01*
X97285714Y-77271428D01*
X97214285Y-77414285D01*
X97214285Y-77557142D01*
X97285714Y-77771428D01*
X98142857Y-78628571D01*
X97214285Y-78628571D01*
X96285714Y-77128571D02*
X96142857Y-77128571D01*
X96000000Y-77200000D01*
X95928571Y-77271428D01*
X95857142Y-77414285D01*
X95785714Y-77700000D01*
X95785714Y-78057142D01*
X95857142Y-78342857D01*
X95928571Y-78485714D01*
X96000000Y-78557142D01*
X96142857Y-78628571D01*
X96285714Y-78628571D01*
X96428571Y-78557142D01*
X96500000Y-78485714D01*
X96571428Y-78342857D01*
X96642857Y-78057142D01*
X96642857Y-77700000D01*
X96571428Y-77414285D01*
X96500000Y-77271428D01*
X96428571Y-77200000D01*
X96285714Y-77128571D01*
X95214285Y-77271428D02*
X95142857Y-77200000D01*
X95000000Y-77128571D01*
X94642857Y-77128571D01*
X94500000Y-77200000D01*
X94428571Y-77271428D01*
X94357142Y-77414285D01*
X94357142Y-77557142D01*
X94428571Y-77771428D01*
X95285714Y-78628571D01*
X94357142Y-78628571D01*
X92928571Y-78628571D02*
X93785714Y-78628571D01*
X93357142Y-78628571D02*
X93357142Y-77128571D01*
X93500000Y-77342857D01*
X93642857Y-77485714D01*
X93785714Y-77557142D01*
M02*
